<svg xmlns="http://www.w3.org/2000/svg" viewBox="0 0 500 500"><defs><clipPath id="a"><path fill="#fff" stroke="#263238" stroke-linecap="round" stroke-linejoin="round" d="M108.77 145.02h292.05v210.92H108.77z"/></clipPath><clipPath id="b"><path fill="none" d="M332.48 276.35h60.39v79.24h-60.39z"/></clipPath><clipPath id="c"><path fill="none" d="M261.7 276.35h60.39v79.24H261.7z"/></clipPath><clipPath id="d"><path fill="none" d="M182.46 275.97h60.39v79.63h-60.39z"/></clipPath><clipPath id="e"><path fill="none" d="M121.68 276.35h53.47v79.24h-53.47z"/></clipPath></defs><path d="M387 130.86s-42.69-44.11-110.28-42-125.23 44.83-172.9 78.27-60.47 85.4-32.72 125.95 71.86 23.48 128.06 49.8 66.84 41.27 129.49 34.87 110.29-71.86 103.17-141.59S387 130.86 387 130.86z" fill="#ffbf00"/><path d="M387 130.86s-42.69-44.11-110.28-42-125.23 44.83-172.9 78.27-60.47 85.4-32.72 125.95 71.86 23.48 128.06 49.8 66.84 41.27 129.49 34.87 110.29-71.86 103.17-141.59S387 130.86 387 130.86z" fill="#fff" opacity=".7"/><path d="M403.36 399.3c0 2.94-66 5.31-147.33 5.31s-147.34-2.37-147.34-5.31 66-5.3 147.34-5.3 147.33 2.37 147.33 5.3z" fill="#ffbf00"/><path d="M403.36 399.3c0 2.94-66 5.31-147.33 5.31s-147.34-2.37-147.34-5.31 66-5.3 147.34-5.3 147.33 2.37 147.33 5.3z" fill="#fff" opacity=".6"/><path d="M116.67 233.78c.06 0-.69-3.73-.77-4-.86-2.66-4.09-7.3-7.23-7.3a3.72 3.72 0 00-3.57 4.22c.23 2.2 2.21 4.08 4 5.16 2.1 1.31 7.57 1.92 7.57 1.92z" fill="#ffbf00"/><path d="M122.74 208.66c-2.95 1.06-4.41 6.52-4.32 9.32 0 .24.56 4 .62 4h.06c-.24.86-.49 1.78-.74 2.8-.44 1.88-.92 4-1.29 6.36a65.63 65.63 0 00-.84 7.64 49.24 49.24 0 00.29 8.6.44.44 0 010 .1c-.38-.83-1.54-3.12-1.65-3.29-1.54-2.34-5.88-6-8.91-5.13a3.71 3.71 0 00-2.32 5c.8 2.07 3.2 3.35 5.21 3.93 2.27.64 7.33-.12 7.73-.18a67.33 67.33 0 001.86 8.56c.47 1.64 1 3.28 1.52 4.91-.35-.71-.68-1.34-.73-1.42-1.54-2.34-5.88-6-8.91-5.13a3.71 3.71 0 00-2.32 5c.8 2.06 3.2 3.35 5.21 3.92s6.37 0 7.51-.14c.21.62.42 1.25.64 1.87 1 3 2.08 6 3 8.94.33 1 .61 2.08.9 3.12-.31-.63-.59-1.16-.64-1.23-1.53-2.35-5.88-6-8.9-5.13a3.71 3.71 0 00-2.33 5c.8 2.06 3.21 3.35 5.22 3.92s5.94.07 7.3-.12c.27 1.07.54 2.15.75 3.2.12.72.29 1.4.38 2.14l.3 2.14c.14 1.37.3 2.78.4 4.12.08.94.14 1.83.2 2.72-.31-1-1-3.07-1-3.23a14.41 14.41 0 00-4.8-5.46 5.07 5.07 0 00-.4-.72 3.72 3.72 0 00-5.46-.85c-2.37 2.05-1.78 7.67-.69 10.25.06.15 1 1.73 1.52 2.71l-1.27-1.58c-.88-1.07-1.78-2.11-2.74-3.23q-.74-.78-1.47-1.59c-.48-.54-1.05-1.05-1.58-1.59a62.429 62.429 0 00-4-3.52c.94-.77 4.21-3.53 5.15-5.41s1.61-4.51.63-6.5a3.71 3.71 0 00-5.26-1.66c-2.66 1.66-2.93 7.31-2.24 10 0 .17.76 2.07 1.17 3.1-.83-.69-1.65-1.37-2.51-2-2.48-1.91-5-3.77-7.6-5.64l-2.33-1.73c.33-.27 4.29-3.47 5.35-5.58.94-1.87 1.61-4.51.63-6.49a3.71 3.71 0 00-5.27-1.67c-2.65 1.67-2.92 7.31-2.23 10 .05.2 1.08 2.92 1.38 3.6-1.71-1.27-3.4-2.55-5-3.88a66 66 0 01-6.2-5.78c.15-.12 4.3-3.45 5.38-5.6.94-1.87 1.61-4.51.63-6.5a3.71 3.71 0 00-5.25-1.65c-2.66 1.67-2.92 7.32-2.24 10 .05.18.83 2.26 1.23 3.23l-.15.1a48 48 0 01-5.1-6.84 59.08 59.08 0 01-2.24-3.93c.84-.54 4.63-3 5.82-4.88s2.1-4.31 1.34-6.39a3.71 3.71 0 00-5-2.23c-2.82 1.36-3.71 7-3.32 9.72 0 .15.4 1.66.7 2.75-.3-.58-.62-1.19-.89-1.76-1-2.13-1.85-4.15-2.55-5.94-.39-1-.73-2-1-2.84.54-.95 2.69-4.84 2.89-7s-.12-4.79-1.75-6.29a3.72 3.72 0 00-5.52.34c-1.87 2.51-.08 7.88 1.54 10.16.14.2 2.68 3 2.71 3v-.06c.28.85.58 1.75.94 2.74.67 1.81 1.44 3.85 2.43 6a65.73 65.73 0 003.52 6.84 48.53 48.53 0 005 7l.07.07c-.78-.48-3-1.75-3.19-1.83-2.57-1.11-8.2-1.73-10.26.63a3.71 3.71 0 00.83 5.46c1.8 1.28 4.52 1 6.51.4 2.25-.71 6-4.14 6.35-4.41a66.15 66.15 0 006.28 6.11c1.29 1.11 2.62 2.19 4 3.26-.69-.39-1.31-.74-1.4-.78-2.57-1.11-8.19-1.73-10.25.63a3.7 3.7 0 00.82 5.46c1.81 1.28 4.52 1 6.52.4s5.31-3.5 6.18-4.27l1.56 1.22c2.52 1.93 5 3.84 7.45 5.79.85.69 1.66 1.39 2.48 2.1-.61-.35-1.13-.64-1.22-.68-2.57-1.1-8.19-1.73-10.25.64a3.7 3.7 0 00.82 5.46c1.81 1.28 4.52 1 6.52.39s5-3.22 6-4.12c.81.74 1.63 1.49 2.39 2.25.5.53 1 1 1.5 1.57l1.43 1.63c.88 1.06 1.78 2.15 2.61 3.21.58.74 1.12 1.45 1.67 2.16-.84-.69-2.51-2-2.67-2.11-2.37-1.49-7.83-2.95-10.23-.93a3.71 3.71 0 000 5.52c1.59 1.54 4.31 1.7 6.38 1.38 2.27-.35 6.39-3 6.9-3.37.9 1.18 1.76 2.34 2.56 3.44 2.77 3.83 4.93 7.13 6.41 9.45l.15.24 1.92-.93-.3-.46c-1.55-2.31-3.8-5.59-6.69-9.4-.9-1.21-1.9-2.47-2.93-3.77a41.25 41.25 0 003-3.68c2.2.86 6.79.89 7.38.89.1 1.49.18 2.93.23 4.29.2 4.73.18 8.67.14 11.42v.32l2.11-1c0-2.74-.11-6.44-.38-10.82-.1-1.5-.23-3.11-.37-4.76.58-.14 5.35-1.37 7.15-2.81 1.64-1.3 3.36-3.42 3.3-5.63a3.71 3.71 0 00-4.08-3.72c-3.12.4-5.72 5.41-6.23 8.17 0 .16-.17 2-.23 3.09-.06-.67-.12-1.32-.19-2-.14-1.37-.32-2.73-.5-4.2-.12-.7-.24-1.42-.35-2.14s-.3-1.46-.45-2.19a74.63 74.63 0 00-1.35-5.13c1.2-.12 5.46-.62 7.28-1.67s3.83-2.87 4.11-5.07a3.71 3.71 0 00-3.47-4.29c-3.14-.08-6.48 4.48-7.4 7.13-.06.16-.51 2.13-.73 3.22-.32-1-.62-2.05-1-3.08-1-3-2.13-5.93-3.23-8.9l-1-2.73c.43 0 5.5-.52 7.54-1.7 1.81-1 3.83-2.87 4.11-5.07a3.7 3.7 0 00-3.47-4.29c-3.14-.08-6.48 4.49-7.4 7.13-.07.2-.71 3-.84 3.77-.72-2-1.42-4-2-6a68.9 68.9 0 01-2-8.24c.2 0 5.5-.5 7.59-1.7 1.81-1.05 3.83-2.88 4.11-5.08a3.71 3.71 0 00-3.48-4.29c-3.13-.08-6.47 4.49-7.39 7.13-.06.17-.55 2.34-.76 3.37h-.18a47.81 47.81 0 01-.48-8.51c0-1.56.15-3.06.3-4.51 1 0 5.55 0 7.55-.86s4.12-2.44 4.64-4.59a3.71 3.71 0 00-3-4.65c-3.11-.42-6.93 3.75-8.13 6.27-.07.14-.58 1.61-.94 2.69.07-.66.14-1.33.23-2 .32-2.35.75-4.48 1.15-6.37.24-1.07.47-2 .7-2.93 1-.5 4.92-2.55 6.27-4.22s2.53-4.06 2-6.21a3.71 3.71 0 00-4.88-2.72z" fill="#ffbf00"/><path d="M66.06 257c2.45-.1 7.35-2.62 7.36-2.62s-2.64-2.72-2.83-2.88c-2.19-1.74-7.45-3.83-10.06-2.09a3.71 3.71 0 00-.65 5.48c1.41 1.71 4.12 2.19 6.18 2.11z" fill="#ffbf00"/><g opacity=".5" fill="#fff"><path d="M116.67 233.78c.06 0-.69-3.73-.77-4-.86-2.66-4.09-7.3-7.23-7.3a3.72 3.72 0 00-3.57 4.22c.23 2.2 2.21 4.08 4 5.16 2.1 1.31 7.57 1.92 7.57 1.92z"/><path d="M122.74 208.66c-2.95 1.06-4.41 6.52-4.32 9.32 0 .24.56 4 .62 4h.06c-.24.86-.49 1.78-.74 2.8-.44 1.88-.92 4-1.29 6.36a65.63 65.63 0 00-.84 7.64 49.24 49.24 0 00.29 8.6.44.44 0 010 .1c-.38-.83-1.54-3.12-1.65-3.29-1.54-2.34-5.88-6-8.91-5.13a3.71 3.71 0 00-2.32 5c.8 2.07 3.2 3.35 5.21 3.93 2.27.64 7.33-.12 7.73-.18a67.33 67.33 0 001.86 8.56c.47 1.64 1 3.28 1.52 4.91-.35-.71-.68-1.34-.73-1.42-1.54-2.34-5.88-6-8.91-5.13a3.71 3.71 0 00-2.32 5c.8 2.06 3.2 3.35 5.21 3.92s6.37 0 7.51-.14c.21.62.42 1.25.64 1.87 1 3 2.08 6 3 8.94.33 1 .61 2.08.9 3.12-.31-.63-.59-1.16-.64-1.23-1.53-2.35-5.88-6-8.9-5.13a3.71 3.71 0 00-2.33 5c.8 2.06 3.21 3.35 5.22 3.92s5.94.07 7.3-.12c.27 1.07.54 2.15.75 3.2.12.72.29 1.4.38 2.14l.3 2.14c.14 1.37.3 2.78.4 4.12.08.94.14 1.83.2 2.72-.31-1-1-3.07-1-3.23a14.41 14.41 0 00-4.8-5.46 5.07 5.07 0 00-.4-.72 3.72 3.72 0 00-5.46-.85c-2.37 2.05-1.78 7.67-.69 10.25.06.15 1 1.73 1.52 2.71l-1.27-1.58c-.88-1.07-1.78-2.11-2.74-3.23q-.74-.78-1.47-1.59c-.48-.54-1.05-1.05-1.58-1.59a62.429 62.429 0 00-4-3.52c.94-.77 4.21-3.53 5.15-5.41s1.61-4.51.63-6.5a3.71 3.71 0 00-5.26-1.66c-2.66 1.66-2.93 7.31-2.24 10 0 .17.76 2.07 1.17 3.1-.83-.69-1.65-1.37-2.51-2-2.48-1.91-5-3.77-7.6-5.64l-2.33-1.73c.33-.27 4.29-3.47 5.35-5.58.94-1.87 1.61-4.51.63-6.49a3.71 3.71 0 00-5.27-1.67c-2.65 1.67-2.92 7.31-2.23 10 .05.2 1.08 2.92 1.38 3.6-1.71-1.27-3.4-2.55-5-3.88a66 66 0 01-6.2-5.78c.15-.12 4.3-3.45 5.38-5.6.94-1.87 1.61-4.51.63-6.5a3.71 3.71 0 00-5.25-1.65c-2.66 1.67-2.92 7.32-2.24 10 .05.18.83 2.26 1.23 3.23l-.15.1a48 48 0 01-5.1-6.84 59.08 59.08 0 01-2.24-3.93c.84-.54 4.63-3 5.82-4.88s2.1-4.31 1.34-6.39a3.71 3.71 0 00-5-2.23c-2.82 1.36-3.71 7-3.32 9.72 0 .15.4 1.66.7 2.75-.3-.58-.62-1.19-.89-1.76-1-2.13-1.85-4.15-2.55-5.94-.39-1-.73-2-1-2.84.54-.95 2.69-4.84 2.89-7s-.12-4.79-1.75-6.29a3.72 3.72 0 00-5.52.34c-1.87 2.51-.08 7.88 1.54 10.16.14.2 2.68 3 2.71 3v-.06c.28.85.58 1.75.94 2.74.67 1.81 1.44 3.85 2.43 6a65.73 65.73 0 003.52 6.84 48.53 48.53 0 005 7l.07.07c-.78-.48-3-1.75-3.19-1.83-2.57-1.11-8.2-1.73-10.26.63a3.71 3.71 0 00.83 5.46c1.8 1.28 4.52 1 6.51.4 2.25-.71 6-4.14 6.35-4.41a66.15 66.15 0 006.28 6.11c1.29 1.11 2.62 2.19 4 3.26-.69-.39-1.31-.74-1.4-.78-2.57-1.11-8.19-1.73-10.25.63a3.7 3.7 0 00.82 5.46c1.81 1.28 4.52 1 6.52.4s5.31-3.5 6.18-4.27l1.56 1.22c2.52 1.93 5 3.84 7.45 5.79.85.69 1.66 1.39 2.48 2.1-.61-.35-1.13-.64-1.22-.68-2.57-1.1-8.19-1.73-10.25.64a3.7 3.7 0 00.82 5.46c1.81 1.28 4.52 1 6.52.39s5-3.22 6-4.12c.81.74 1.63 1.49 2.39 2.25.5.53 1 1 1.5 1.57l1.43 1.63c.88 1.06 1.78 2.15 2.61 3.21.58.74 1.12 1.45 1.67 2.16-.84-.69-2.51-2-2.67-2.11-2.37-1.49-7.83-2.95-10.23-.93a3.71 3.71 0 000 5.52c1.59 1.54 4.31 1.7 6.38 1.38 2.27-.35 6.39-3 6.9-3.37.9 1.18 1.76 2.34 2.56 3.44 2.77 3.83 4.93 7.13 6.41 9.45l.15.24 1.92-.93-.3-.46c-1.55-2.31-3.8-5.59-6.69-9.4-.9-1.21-1.9-2.47-2.93-3.77a41.25 41.25 0 003-3.68c2.2.86 6.79.89 7.38.89.1 1.49.18 2.93.23 4.29.2 4.73.18 8.67.14 11.42v.32l2.11-1c0-2.74-.11-6.44-.38-10.82-.1-1.5-.23-3.11-.37-4.76.58-.14 5.35-1.37 7.15-2.81 1.64-1.3 3.36-3.42 3.3-5.63a3.71 3.71 0 00-4.08-3.72c-3.12.4-5.72 5.41-6.23 8.17 0 .16-.17 2-.23 3.09-.06-.67-.12-1.32-.19-2-.14-1.37-.32-2.73-.5-4.2-.12-.7-.24-1.42-.35-2.14s-.3-1.46-.45-2.19a74.63 74.63 0 00-1.35-5.13c1.2-.12 5.46-.62 7.28-1.67s3.83-2.87 4.11-5.07a3.71 3.71 0 00-3.47-4.29c-3.14-.08-6.48 4.48-7.4 7.13-.06.16-.51 2.13-.73 3.22-.32-1-.62-2.05-1-3.08-1-3-2.13-5.93-3.23-8.9l-1-2.73c.43 0 5.5-.52 7.54-1.7 1.81-1 3.83-2.87 4.11-5.07a3.7 3.7 0 00-3.47-4.29c-3.14-.08-6.48 4.49-7.4 7.13-.07.2-.71 3-.84 3.77-.72-2-1.42-4-2-6a68.9 68.9 0 01-2-8.24c.2 0 5.5-.5 7.59-1.7 1.81-1.05 3.83-2.88 4.11-5.08a3.71 3.71 0 00-3.48-4.29c-3.13-.08-6.47 4.49-7.39 7.13-.06.17-.55 2.34-.76 3.37h-.18a47.81 47.81 0 01-.48-8.51c0-1.56.15-3.06.3-4.51 1 0 5.55 0 7.55-.86s4.12-2.44 4.64-4.59a3.71 3.71 0 00-3-4.65c-3.11-.42-6.93 3.75-8.13 6.27-.07.14-.58 1.61-.94 2.69.07-.66.14-1.33.23-2 .32-2.35.75-4.48 1.15-6.37.24-1.07.47-2 .7-2.93 1-.5 4.92-2.55 6.27-4.22s2.53-4.06 2-6.21a3.71 3.71 0 00-4.88-2.72z"/><path d="M66.06 257c2.45-.1 7.35-2.62 7.36-2.62s-2.64-2.72-2.83-2.88c-2.19-1.74-7.45-3.83-10.06-2.09a3.71 3.71 0 00-.65 5.48c1.41 1.71 4.12 2.19 6.18 2.11z"/></g><path d="M94.67 318.35s14.87-35.84 23.19-34.28-14.27 57.14-14.27 57.14 26.16-49.35 44-49.35-6.54 54.54-29.13 72.72c0 0 35.67-38.44 56.49-30.12s-41.63 47.27-41.63 47.27 36.27-11.43 32.11-2.6S150 389.52 150 389.52l41 2.08H48.29l32.11-3.12S47.1 371.86 56 365.1s28.54 7.79 28.54 7.79-33.89-37.4-27.35-51.42 35.68 25.45 35.68 25.45-23.79-50.38-19-59.22 20.8 30.65 20.8 30.65z" fill="#ffbf00"/><path d="M94.67 318.35s14.87-35.84 23.19-34.28-14.27 57.14-14.27 57.14 26.16-49.35 44-49.35-6.54 54.54-29.13 72.72c0 0 35.67-38.44 56.49-30.12s-41.63 47.27-41.63 47.27 36.27-11.43 32.11-2.6S150 389.52 150 389.52l41 2.08H48.29l32.11-3.12S47.1 371.86 56 365.1s28.54 7.79 28.54 7.79-33.89-37.4-27.35-51.42 35.68 25.45 35.68 25.45-23.79-50.38-19-59.22 20.8 30.65 20.8 30.65z" fill="#fff" opacity=".4"/><path d="M89.92 320.24c13.08 38.65 13.08 66 13.08 66s-15.46.6-31.52-11.29M96.46 341.05a231.27 231.27 0 0110.7-33.89" fill="none" stroke="#263238" stroke-linecap="round" stroke-linejoin="round"/><path d="M135.11 318.46l-33.3 49.35s-22.6-19-30.33-29.73M102.4 379.7s35.08-16.65 49.36-26.16" fill="none" stroke="#263238" stroke-linecap="round" stroke-linejoin="round"/><path d="M394.62 233.78c-.06 0 .7-3.73.77-4 .86-2.66 4.1-7.3 7.23-7.3a3.72 3.72 0 013.57 4.22c-.23 2.2-2.21 4.08-4 5.16-2.1 1.31-7.57 1.92-7.57 1.92z" fill="#ffbf00"/><path d="M388.55 208.66c2.95 1.06 4.42 6.52 4.32 9.32 0 .24-.56 4-.61 4h-.06c.23.86.48 1.78.73 2.8.44 1.88.92 4 1.29 6.36a65.63 65.63 0 01.84 7.64 48.28 48.28 0 01-.29 8.6.44.44 0 000 .1c.39-.83 1.55-3.12 1.65-3.29 1.54-2.34 5.88-6 8.91-5.13a3.7 3.7 0 012.32 5c-.8 2.07-3.2 3.35-5.21 3.93-2.27.64-7.33-.12-7.73-.18a65.64 65.64 0 01-1.86 8.56q-.7 2.46-1.52 4.91c.35-.71.68-1.34.73-1.42 1.54-2.34 5.89-6 8.91-5.13a3.7 3.7 0 012.32 5c-.8 2.06-3.2 3.35-5.21 3.92s-6.37 0-7.51-.14l-.63 1.87c-1 3-2.09 6-3 8.94-.33 1-.62 2.08-.91 3.12.32-.63.59-1.16.64-1.23 1.54-2.35 5.88-6 8.9-5.13a3.71 3.71 0 012.33 5c-.8 2.06-3.21 3.35-5.22 3.92s-5.94.07-7.3-.12c-.27 1.07-.53 2.15-.74 3.2-.13.72-.3 1.4-.39 2.14l-.3 2.14c-.14 1.37-.3 2.78-.4 4.12-.08.94-.14 1.83-.2 2.72.32-1 1-3.07 1.05-3.23a14.5 14.5 0 014.8-5.46 4.3 4.3 0 01.41-.72 3.7 3.7 0 015.45-.85c2.38 2.05 1.78 7.67.69 10.25-.06.15-.95 1.73-1.52 2.71.43-.53.83-1 1.28-1.58.87-1.07 1.77-2.11 2.73-3.23l1.47-1.59c.48-.54 1.06-1.05 1.59-1.59a70.66 70.66 0 013.95-3.52c-.93-.77-4.21-3.53-5.15-5.41s-1.61-4.51-.63-6.5a3.71 3.71 0 015.27-1.66c2.65 1.66 2.92 7.31 2.23 10 0 .17-.76 2.07-1.17 3.1.83-.69 1.65-1.37 2.51-2 2.48-1.91 5.05-3.77 7.6-5.64l2.33-1.73c-.33-.27-4.29-3.47-5.35-5.58-.93-1.87-1.61-4.51-.63-6.49a3.71 3.71 0 015.27-1.67c2.66 1.67 2.92 7.31 2.23 10-.05.2-1.08 2.92-1.37 3.6 1.7-1.27 3.39-2.55 5-3.88a66 66 0 006.2-5.78c-.15-.12-4.3-3.45-5.38-5.6-.94-1.87-1.61-4.51-.63-6.5a3.71 3.71 0 015.26-1.67c2.66 1.67 2.93 7.32 2.24 10-.05.18-.83 2.26-1.22 3.23a.78.78 0 00.15.1 47.88 47.88 0 005.09-6.84c.84-1.32 1.56-2.64 2.24-3.93-.84-.54-4.63-3-5.82-4.88s-2.09-4.31-1.34-6.39a3.71 3.71 0 015.05-2.23c2.83 1.36 3.71 7 3.32 9.72 0 .15-.4 1.66-.69 2.75.29-.58.61-1.19.88-1.76 1-2.13 1.85-4.15 2.55-5.94.4-1 .73-2 1-2.84-.55-.95-2.69-4.84-2.9-7s.13-4.79 1.76-6.29a3.71 3.71 0 015.51.34c1.88 2.51.09 7.88-1.53 10.16-.14.2-2.69 3-2.72 3v-.06c-.28.85-.58 1.75-.94 2.74-.66 1.81-1.43 3.85-2.42 6a67.92 67.92 0 01-3.53 6.84 48.53 48.53 0 01-5 7l-.07.07c.78-.48 3-1.75 3.19-1.83 2.58-1.11 8.2-1.73 10.26.63a3.71 3.71 0 01-.82 5.46c-1.81 1.28-4.52 1-6.52.4-2.25-.71-6-4.14-6.34-4.41a66.15 66.15 0 01-6.28 6.11c-1.29 1.11-2.63 2.19-4 3.26.69-.39 1.31-.74 1.4-.78 2.57-1.11 8.19-1.73 10.25.63a3.7 3.7 0 01-.82 5.46c-1.8 1.28-4.52 1-6.51.4s-5.32-3.5-6.18-4.27c-.53.41-1 .82-1.57 1.22-2.51 1.93-5 3.84-7.45 5.79-.85.69-1.66 1.39-2.48 2.1l1.22-.68c2.57-1.1 8.19-1.73 10.25.64a3.7 3.7 0 01-.82 5.46c-1.81 1.28-4.52 1-6.51.39s-5-3.22-6-4.12c-.81.74-1.63 1.49-2.38 2.25-.51.53-1 1-1.5 1.57l-1.44 1.63c-.87 1.06-1.78 2.15-2.61 3.21-.58.74-1.12 1.45-1.66 2.16.83-.69 2.51-2 2.66-2.11 2.37-1.49 7.84-2.95 10.23-.93a3.71 3.71 0 010 5.52c-1.6 1.54-4.32 1.7-6.38 1.38-2.28-.35-6.4-3-6.91-3.37-.9 1.18-1.76 2.34-2.56 3.44-2.77 3.83-4.93 7.13-6.41 9.45 0 .09-.1.16-.15.24l-1.92-.93.3-.46c1.55-2.31 3.81-5.59 6.69-9.4.91-1.21 1.9-2.47 2.93-3.77a40 40 0 01-3-3.68c-2.21.86-6.79.89-7.39.89-.09 1.49-.17 2.93-.23 4.29-.2 4.73-.18 8.67-.13 11.42v.32l-2.11-1c0-2.74.11-6.44.39-10.82.09-1.5.22-3.11.37-4.76-.59-.14-5.36-1.37-7.16-2.81-1.63-1.3-3.35-3.42-3.29-5.63a3.7 3.7 0 014.08-3.72c3.11.4 5.72 5.41 6.23 8.17 0 .16.16 2 .22 3.09.07-.67.12-1.32.2-2 .13-1.37.31-2.73.5-4.2.11-.7.23-1.42.34-2.14s.3-1.46.45-2.19c.38-1.71.84-3.42 1.35-5.13-1.2-.12-5.45-.62-7.28-1.67s-3.83-2.87-4.1-5.07a3.7 3.7 0 013.47-4.29c3.13-.08 6.47 4.48 7.39 7.13.06.16.51 2.13.73 3.22.32-1 .62-2.05 1-3.08 1-3 2.13-5.93 3.23-8.9.34-.91.66-1.82 1-2.73-.43 0-5.5-.52-7.54-1.7-1.81-1-3.83-2.87-4.11-5.07a3.71 3.71 0 013.47-4.29c3.14-.08 6.48 4.49 7.4 7.13.07.2.71 3 .84 3.77.72-2 1.43-4 2-6a65.26 65.26 0 002-8.24c-.2 0-5.49-.5-7.58-1.7-1.82-1.05-3.84-2.88-4.11-5.08a3.7 3.7 0 013.47-4.29c3.13-.08 6.47 4.49 7.39 7.13.06.17.56 2.34.77 3.37h.17a47.81 47.81 0 00.48-8.51c0-1.56-.15-3.06-.3-4.51-1 0-5.54 0-7.54-.86s-4.13-2.44-4.65-4.59a3.71 3.71 0 013-4.65c3.11-.42 6.93 3.75 8.14 6.27.06.14.58 1.61.93 2.69-.07-.66-.14-1.33-.23-2-.31-2.35-.75-4.48-1.15-6.37-.24-1.07-.47-2-.7-2.93-1-.5-4.92-2.55-6.26-4.22s-2.54-4.06-2-6.21a3.71 3.71 0 014.79-2.7z" fill="#ffbf00"/><path d="M445.23 257c-2.45-.1-7.35-2.62-7.35-2.62s2.63-2.72 2.82-2.88c2.19-1.74 7.45-3.83 10.06-2.09a3.7 3.7 0 01.65 5.48c-1.41 1.71-4.09 2.19-6.18 2.11z" fill="#ffbf00"/><g opacity=".5" fill="#fff"><path d="M394.62 233.78c-.06 0 .7-3.73.77-4 .86-2.66 4.1-7.3 7.23-7.3a3.72 3.72 0 013.57 4.22c-.23 2.2-2.21 4.08-4 5.16-2.1 1.31-7.57 1.92-7.57 1.92z"/><path d="M388.55 208.66c2.95 1.06 4.42 6.52 4.32 9.32 0 .24-.56 4-.61 4h-.06c.23.86.48 1.78.73 2.8.44 1.88.92 4 1.29 6.36a65.63 65.63 0 01.84 7.64 48.28 48.28 0 01-.29 8.6.44.44 0 000 .1c.39-.83 1.55-3.12 1.65-3.29 1.54-2.34 5.88-6 8.91-5.13a3.7 3.7 0 012.32 5c-.8 2.07-3.2 3.35-5.21 3.93-2.27.64-7.33-.12-7.73-.18a65.64 65.64 0 01-1.86 8.56q-.7 2.46-1.52 4.91c.35-.71.68-1.34.73-1.42 1.54-2.34 5.89-6 8.91-5.13a3.7 3.7 0 012.32 5c-.8 2.06-3.2 3.35-5.21 3.92s-6.37 0-7.51-.14l-.63 1.87c-1 3-2.09 6-3 8.94-.33 1-.62 2.08-.91 3.12.32-.63.59-1.16.64-1.23 1.54-2.35 5.88-6 8.9-5.13a3.71 3.71 0 012.33 5c-.8 2.06-3.21 3.35-5.22 3.92s-5.94.07-7.3-.12c-.27 1.07-.53 2.15-.74 3.2-.13.72-.3 1.4-.39 2.14l-.3 2.14c-.14 1.37-.3 2.78-.4 4.12-.08.94-.14 1.83-.2 2.72.32-1 1-3.07 1.05-3.23a14.5 14.5 0 014.8-5.46 4.3 4.3 0 01.41-.72 3.7 3.7 0 015.45-.85c2.38 2.05 1.78 7.67.69 10.25-.06.15-.95 1.73-1.52 2.71.43-.53.83-1 1.28-1.58.87-1.07 1.77-2.11 2.73-3.23l1.47-1.59c.48-.54 1.06-1.05 1.59-1.59a70.66 70.66 0 013.95-3.52c-.93-.77-4.21-3.53-5.15-5.41s-1.61-4.51-.63-6.5a3.71 3.71 0 015.27-1.66c2.65 1.66 2.92 7.31 2.23 10 0 .17-.76 2.07-1.17 3.1.83-.69 1.65-1.37 2.51-2 2.48-1.91 5.05-3.77 7.6-5.64l2.33-1.73c-.33-.27-4.29-3.47-5.35-5.58-.93-1.87-1.61-4.51-.63-6.49a3.71 3.71 0 015.27-1.67c2.66 1.67 2.92 7.31 2.23 10-.05.2-1.08 2.92-1.37 3.6 1.7-1.27 3.39-2.55 5-3.88a66 66 0 006.2-5.78c-.15-.12-4.3-3.45-5.38-5.6-.94-1.87-1.61-4.51-.63-6.5a3.71 3.71 0 015.26-1.67c2.66 1.67 2.93 7.32 2.24 10-.05.18-.83 2.26-1.22 3.23a.78.78 0 00.15.1 47.88 47.88 0 005.09-6.84c.84-1.32 1.56-2.64 2.24-3.93-.84-.54-4.63-3-5.82-4.88s-2.09-4.31-1.34-6.39a3.71 3.71 0 015.05-2.23c2.83 1.36 3.71 7 3.32 9.72 0 .15-.4 1.66-.69 2.75.29-.58.61-1.19.88-1.76 1-2.13 1.85-4.15 2.55-5.94.4-1 .73-2 1-2.84-.55-.95-2.69-4.84-2.9-7s.13-4.79 1.76-6.29a3.71 3.71 0 015.51.34c1.88 2.51.09 7.88-1.53 10.16-.14.2-2.69 3-2.72 3v-.06c-.28.85-.58 1.75-.94 2.74-.66 1.81-1.43 3.85-2.42 6a67.92 67.92 0 01-3.53 6.84 48.53 48.53 0 01-5 7l-.07.07c.78-.48 3-1.75 3.19-1.83 2.58-1.11 8.2-1.73 10.26.63a3.71 3.71 0 01-.82 5.46c-1.81 1.28-4.52 1-6.52.4-2.25-.71-6-4.14-6.34-4.41a66.15 66.15 0 01-6.28 6.11c-1.29 1.11-2.63 2.19-4 3.26.69-.39 1.31-.74 1.4-.78 2.57-1.11 8.19-1.73 10.25.63a3.7 3.7 0 01-.82 5.46c-1.8 1.28-4.52 1-6.51.4s-5.32-3.5-6.18-4.27c-.53.41-1 .82-1.57 1.22-2.51 1.93-5 3.84-7.45 5.79-.85.69-1.66 1.39-2.48 2.1l1.22-.68c2.57-1.1 8.19-1.73 10.25.64a3.7 3.7 0 01-.82 5.46c-1.81 1.28-4.52 1-6.51.39s-5-3.22-6-4.12c-.81.74-1.63 1.49-2.38 2.25-.51.53-1 1-1.5 1.57l-1.44 1.63c-.87 1.06-1.78 2.15-2.61 3.21-.58.74-1.12 1.45-1.66 2.16.83-.69 2.51-2 2.66-2.11 2.37-1.49 7.84-2.95 10.23-.93a3.71 3.71 0 010 5.52c-1.6 1.54-4.32 1.7-6.38 1.38-2.28-.35-6.4-3-6.91-3.37-.9 1.18-1.76 2.34-2.56 3.44-2.77 3.83-4.93 7.13-6.41 9.45 0 .09-.1.16-.15.24l-1.92-.93.3-.46c1.55-2.31 3.81-5.59 6.69-9.4.91-1.21 1.9-2.47 2.93-3.77a40 40 0 01-3-3.68c-2.21.86-6.79.89-7.39.89-.09 1.49-.17 2.93-.23 4.29-.2 4.73-.18 8.67-.13 11.42v.32l-2.11-1c0-2.74.11-6.44.39-10.82.09-1.5.22-3.11.37-4.76-.59-.14-5.36-1.37-7.16-2.81-1.63-1.3-3.35-3.42-3.29-5.63a3.7 3.7 0 014.08-3.72c3.11.4 5.72 5.41 6.23 8.17 0 .16.16 2 .22 3.09.07-.67.12-1.32.2-2 .13-1.37.31-2.73.5-4.2.11-.7.23-1.42.34-2.14s.3-1.46.45-2.19c.38-1.71.84-3.42 1.35-5.13-1.2-.12-5.45-.62-7.28-1.67s-3.83-2.87-4.1-5.07a3.7 3.7 0 013.47-4.29c3.13-.08 6.47 4.48 7.39 7.13.06.16.51 2.13.73 3.22.32-1 .62-2.05 1-3.08 1-3 2.13-5.93 3.23-8.9.34-.91.66-1.82 1-2.73-.43 0-5.5-.52-7.54-1.7-1.81-1-3.83-2.87-4.11-5.07a3.71 3.71 0 013.47-4.29c3.14-.08 6.48 4.49 7.4 7.13.07.2.71 3 .84 3.77.72-2 1.43-4 2-6a65.26 65.26 0 002-8.24c-.2 0-5.49-.5-7.58-1.7-1.82-1.05-3.84-2.88-4.11-5.08a3.7 3.7 0 013.47-4.29c3.13-.08 6.47 4.49 7.39 7.13.06.17.56 2.34.77 3.37h.17a47.81 47.81 0 00.48-8.51c0-1.56-.15-3.06-.3-4.51-1 0-5.54 0-7.54-.86s-4.13-2.44-4.65-4.59a3.71 3.71 0 013-4.65c3.11-.42 6.93 3.75 8.14 6.27.06.14.58 1.61.93 2.69-.07-.66-.14-1.33-.23-2-.31-2.35-.75-4.48-1.15-6.37-.24-1.07-.47-2-.7-2.93-1-.5-4.92-2.55-6.26-4.22s-2.54-4.06-2-6.21a3.71 3.71 0 014.79-2.7z"/><path d="M445.23 257c-2.45-.1-7.35-2.62-7.35-2.62s2.63-2.72 2.82-2.88c2.19-1.74 7.45-3.83 10.06-2.09a3.7 3.7 0 01.65 5.48c-1.41 1.71-4.09 2.19-6.18 2.11z"/></g><path d="M416.62 318.35s-14.87-35.84-23.19-34.28 14.27 57.14 14.27 57.14-26.16-49.35-44-49.35 6.54 54.54 29.14 72.72c0 0-35.68-38.44-56.49-30.12S378 381.73 378 381.73s-36.27-11.43-32.11-2.6 15.46 10.39 15.46 10.39l-41 2.08H463l-32.11-3.12s33.3-16.62 24.38-23.38-28.54 7.79-28.54 7.79 33.89-37.4 27.35-51.42-35.68 25.45-35.68 25.45 23.79-50.38 19-59.22-20.78 30.65-20.78 30.65z" fill="#ffbf00"/><path d="M416.62 318.35s-14.87-35.84-23.19-34.28 14.27 57.14 14.27 57.14-26.16-49.35-44-49.35 6.54 54.54 29.14 72.72c0 0-35.68-38.44-56.49-30.12S378 381.73 378 381.73s-36.27-11.43-32.11-2.6 15.46 10.39 15.46 10.39l-41 2.08H463l-32.11-3.12s33.3-16.62 24.38-23.38-28.54 7.79-28.54 7.79 33.89-37.4 27.35-51.42-35.68 25.45-35.68 25.45 23.79-50.38 19-59.22-20.78 30.65-20.78 30.65z" fill="#fff" opacity=".4"/><path d="M421.38 320.24c-13.08 38.65-13.08 66-13.08 66s15.46.6 31.51-11.29M414.84 341.05a232.21 232.21 0 00-10.71-33.89" fill="none" stroke="#263238" stroke-linecap="round" stroke-linejoin="round"/><path d="M376.19 318.46l33.29 49.35s22.6-19 30.33-29.73M408.89 379.7s-35.08-16.65-49.35-26.16" fill="none" stroke="#263238" stroke-linecap="round" stroke-linejoin="round"/><g><path fill="#263238" d="M186.7 139.04L178.53 126h-71.96v234.67h296.2V139.04H186.7z"/><path fill="#fff" d="M108.77 145.02h292.05v210.92H108.77z"/><g clip-path="url(#a)"><path opacity=".17" d="M395.47 143.21h6.78v214.33h-6.78z"/><path opacity=".17" d="M395.47 272.8h6.78v83h-6.78z"/><path fill="#ffbf00" stroke="#263238" stroke-miterlimit="10" d="M107.61 142.17H401.2v11.47H107.61z"/></g><path fill="none" stroke="#263238" stroke-linecap="round" stroke-linejoin="round" d="M108.77 145.02h292.05v210.92H108.77z"/><g opacity=".17"><path d="M260.93 164.7H240.5a1.8 1.8 0 01-1.8-1.8 1.8 1.8 0 011.8-1.81h20.43a1.8 1.8 0 011.8 1.81 1.8 1.8 0 01-1.8 1.8zM301.79 164.7h-20.43a1.81 1.81 0 01-1.8-1.8 1.81 1.81 0 011.8-1.81h20.43a1.81 1.81 0 011.81 1.81 1.81 1.81 0 01-1.81 1.8zM342.66 164.7h-20.43a1.81 1.81 0 01-1.81-1.8 1.81 1.81 0 011.81-1.81h20.43a1.81 1.81 0 011.8 1.81 1.81 1.81 0 01-1.8 1.8zM383.52 164.7h-20.43a1.8 1.8 0 01-1.8-1.8 1.8 1.8 0 011.8-1.81h20.43a1.81 1.81 0 011.8 1.81 1.81 1.81 0 01-1.8 1.8z"/></g><path fill="none" stroke="#263238" stroke-linecap="round" stroke-linejoin="round" stroke-width="3" d="M136.37 250.79h30.87"/><path fill="none" stroke="#263238" stroke-linecap="round" stroke-linejoin="round" d="M166.69 255.6h3.37M147.36 255.6h17.29M134.01 255.6h11.52M155.9 260.41h14.16M148.17 260.41h5.5M134.01 260.41h11.72M141.66 265.21h28.4M134.01 265.21h5.01M163.03 270.02h7.03M149.6 270.02h10.98M134.01 270.02h13.35M145.73 274.83h24.33M134.01 274.83h9.48"/><path fill="none" stroke="#263238" stroke-linecap="round" stroke-linejoin="round" stroke-width="3" d="M206.77 250.79h30.87"/><path fill="none" stroke="#263238" stroke-linecap="round" stroke-linejoin="round" d="M237.09 255.6h3.37M217.76 255.6h17.29M204.41 255.6h11.52M226.3 260.41h14.16M218.57 260.41h5.5M204.41 260.41h11.72M212.06 265.21h28.4M204.41 265.21h5.01M233.43 270.02h7.03M220 270.02h10.98M204.41 270.02h13.35M216.13 274.83h24.33M204.41 274.83h9.48"/><path fill="none" stroke="#263238" stroke-linecap="round" stroke-linejoin="round" stroke-width="3" d="M277.17 250.79h30.87"/><path fill="none" stroke="#263238" stroke-linecap="round" stroke-linejoin="round" d="M307.49 255.6h3.37M288.16 255.6h17.29M274.81 255.6h11.52M296.7 260.41h14.16M288.97 260.41h5.5M274.81 260.41h11.72M282.46 265.21h28.4M274.81 265.21h5.01M303.83 270.02h7.03M290.4 270.02h10.98M274.81 270.02h13.35M286.53 274.83h24.33M274.81 274.83h9.48"/><path fill="none" stroke="#263238" stroke-linecap="round" stroke-linejoin="round" stroke-width="3" d="M347.57 250.79h30.87"/><path fill="none" stroke="#263238" stroke-linecap="round" stroke-linejoin="round" d="M377.89 255.6h3.37M358.56 255.6h17.29M345.21 255.6h11.52M367.1 260.41h14.16M359.37 260.41h5.5M345.21 260.41h11.72M352.86 265.21h28.4M345.21 265.21h5.01M374.23 270.02h7.03M360.8 270.02h10.98M345.21 270.02h13.35M356.93 274.83h24.33M345.21 274.83h9.48"/><path d="M390.77 235.3h-272v-56.11h272z" fill="#ffbf00"/><path d="M390.77 235.3h-272v-56.11h272z" fill="#fff" opacity=".7"/><path d="M321.94 235.3H187.65v-56.11h134.29z" fill="#ffbf00"/><path d="M321.94 235.3H187.65v-56.11h134.29z" fill="#fff" opacity=".92"/><path fill="none" stroke="#263238" stroke-linecap="round" stroke-linejoin="round" d="M294.5 195.45h9.15M242.12 195.45h46.87M205.94 195.45h31.21M265.28 200.26h38.37M244.32 200.26h14.89M205.94 200.26h31.77M226.68 205.07h76.97M205.94 205.07h13.57M284.58 209.88h19.07M248.18 209.88h29.78M205.94 209.88h36.18M237.71 214.68h65.94M205.94 214.68h25.7"/><path d="M390.77 355.24h-272v-56.11h272z" fill="#ffbf00"/><path d="M390.77 355.24h-272v-56.11h272z" fill="#fff" opacity=".7"/></g><g><g clip-path="url(#b)"><path d="M358.58 320.48s-15.93 6.4-18.43 7.19-2.65 1.87-2.65 5.3.47 18.9.47 20.15-.16 3.59-.16 3.59H390s-3.44-14-5.47-20.61-1.09-7.19-4.68-9.37-13-5.31-15-5.78a38.93 38.93 0 00-6.27-.47z" fill="#263238" stroke="#263238" stroke-linecap="round" stroke-linejoin="round"/><path d="M359.36 318.76s-3.75-.31-5.31 2.82-5.31 10.42-5.31 10.42l4.53 2.81-5.27 2.69a106.32 106.32 0 003.28 11.4 71.42 71.42 0 003.12 7.19s7.6-8.59 10.6-11.25a23.84 23.84 0 004.84-6.56l-3.9-3.59 6.72-.78s-1.72-8.74-3.91-12.33-9.39-2.82-9.39-2.82z" fill="#263238" stroke="#263238" stroke-linecap="round" stroke-linejoin="round"/><path d="M351.69 349c.28.78.58 1.52.87 2.17M352.26 325.47l-3.52 6.53 4.53 2.81-4.85 2.75s1.13 4.93 2.55 9.35M370 322.51l2.63 11.4-6.72.78 3.9 3.59s-7.5 8.79-10.61 12.34M379.82 340l-2.81 17.34M341.25 336.88s-.31 10.46-.16 13.74a21.83 21.83 0 001.25 6.09" fill="none" stroke="#fff" stroke-linecap="round" stroke-linejoin="round" stroke-width=".5"/><path fill="#fff" stroke="#263238" stroke-miterlimit="10" d="M370.14 344.22l2.65-3.59 2.19 3.59h-4.84z"/><path d="M373.26 309.86s2.65-.31 3.28 3.6-1.25 8.9-7.5 8.9-5.77-4.69-5.62-8.12 9.84-4.38 9.84-4.38z" fill="#263238" stroke="#263238" stroke-miterlimit="10"/><path d="M357.8 316.27s-.16 4.52-.47 9.68-2.81 12.18-2.81 18.11a90.94 90.94 0 00.47 9.84s5.15-10 7.49-15.77 5-22.49 5-22.49z" fill="#fff" stroke="#263238" stroke-miterlimit="10"/><path d="M373.1 306a17.25 17.25 0 001.88-7.34c0-3.9-.78-9.21-5.31-11.56s-13.28-.78-15.46 3.75a18.64 18.64 0 00-2 9.37 22.18 22.18 0 001.09 5.15s.63-3 4.84-4.52 8.75-3.13 10.93-2 4.03 7.15 4.03 7.15z" fill="#263238" stroke="#263238" stroke-linecap="round" stroke-linejoin="round"/><path d="M353.43 304.4s-1.88-2.81-2.66-.78.32 5 1.56 5.62 1.88.31 1.88.31zM373.1 304.87s2.19-2.19 2.19-.16a9 9 0 01-2 5.15c-.94 1.25-1.41.63-1.41.63z" fill="#fff" stroke="#263238" stroke-linecap="round" stroke-linejoin="round"/><path d="M369.39 295.88l1.55-4.37a.68.68 0 00-1.29-.46l-1.3 3.65a10.33 10.33 0 00-8.05 1.42c-4.06 2.66-7.34 5-7.34 5s.16 8.9 1.87 12.18 4.69 7.18 7.19 7.18 6.87-5.46 8.59-7.18 2.81-8.43 2.81-10.62c0-1.57-2.58-4.99-4.03-6.8z" fill="#fff" stroke="#263238" stroke-miterlimit="10"/><path d="M363.24 336a17.05 17.05 0 01-7.48-1 46.39 46.39 0 00-1.24 9.13 90.94 90.94 0 00.47 9.84s5.15-10 7.49-15.77c.25-.68.52-1.43.76-2.2z" fill="#ffbf00" stroke="#263238" stroke-miterlimit="10"/></g></g><g><g clip-path="url(#c)" stroke="#263238"><path d="M289.43 312.19a110.91 110.91 0 00-11.85 2c-4.57 1.18-6.77 1.69-6.77 3.89s-.51 11.68-2 15.92-3.22 10.33-3.22 12.53 3.22 11.51 3.22 11.51h5.92s-2.2-10.84-2.2-11.85 3.05-10 3.05-10l.17 22.18h31l-.33-21.17s2.7 8.64 2.7 10.16-1 11.52-1 11.52H314s2.88-11 2.71-14.9-3-16.26-3.38-20 1.86-5.76-2.2-8.3-13.38-4.06-15.41-4.23a32.58 32.58 0 00-6.29.74z" fill="#ffbf00" stroke-miterlimit="10"/><path fill="none" stroke-linecap="round" stroke-linejoin="round" d="M275.55 336.24l.51-8.47-1.87-6.43M306.37 326.42v10.83M306.53 329.47l2.71-4.07"/><path fill="#fff" stroke-linecap="round" stroke-linejoin="round" d="M292.31 323.71l-1.01 34.37"/><path d="M291.8 308.13a6.6 6.6 0 00-4.06 1.69c-1.86 1.7-2.54 8.3-2.54 8.3s5.93-1.69 6.94-2 10 1.69 10 1.69-.84-5.92-3.21-8.46-7.13-1.22-7.13-1.22z" fill="#263238" stroke-linecap="round" stroke-linejoin="round"/><path d="M289.43 302.71s1.36 2 1.36 8 .67 12.19 1.52 13 4.4-8 4.4-12a18.38 18.38 0 011.87-7.62s-4.24-2.88-6.44-3.22a2.4 2.4 0 00-2.71 1.84z" fill="#fff" stroke-linecap="round" stroke-linejoin="round"/><path d="M291.06 317.31c.27 3.29.73 5.88 1.25 6.4s2.15-2.78 3.27-6.32a14.35 14.35 0 01-4.52-.08zM299.76 286.46s1 .34 2.88-1.36 1-4.91.17-4.23a6.55 6.55 0 00-1.36 1.52 5.48 5.48 0 00-4.57-3.72c-3.55-.34-7.79 4.57-7.79 4.57s-7.78 5.76-6.94 10.33 5.25 8.63 7.28 9.14 5.76-3.21 5.08-6.43-1.18-8 0-8.47a48.06 48.06 0 015.25-1.35z" fill="#263238" stroke-linecap="round" stroke-linejoin="round"/><path d="M289.09 300s-2.87-2-3.55-.5.85 4.23 2.71 5.07 3.55-1.86 3.55-1.86 5.93 4.74 10 4.91 4.24-3.05 3.56-9.14-2.71-10.84-4.23-12.53-7.45-.17-9.32 1.35-3 2.88-1.18 3.22 3.55 1 1.86 2.88-2.54 1.18-2 2.54 2.71 2.71.68 3.39z" fill="#fff" stroke-linecap="round" stroke-linejoin="round"/></g></g><g><g clip-path="url(#d)"><path d="M214.68 309s-21.34 2.54-22 4.4-8.46 20-7.28 21.67 3.56 2 5.42 2a6.26 6.26 0 003.56-1.52l-5.42 23h39.28l1.19-16.09s4.57 2 7.62 1.7 2.37-2.71 1.69-7.28-1-16.26-2.2-18.46-15.58-8.3-15.58-8.3z" fill="#263238" stroke="#263238" stroke-linecap="round" stroke-linejoin="round"/><path fill="none" stroke="#fff" stroke-linecap="round" stroke-linejoin="round" d="M229.75 336.58v-10.5l.84-2.03M195.54 327.77l1.7-7.11-.34-1.52"/><path d="M200 359.27s3.21-13.89 4.74-22.52 7.9-27.75 7.9-27.75l9.83 2.71s-6.61 19.3-8.3 27.6-3.11 20.06-3.11 20.06z" fill="#ffbf00" stroke="#263238" stroke-miterlimit="10"/><path d="M214 307s-2.88 0-3.9 2-2.37 9.82-2.37 9.82 6.1-2.71 6.61-2.71 2.88.17 4.06 1.52 3.73 4.57 3.73 4.57 3.89-6.26 2.88-10.32a6.57 6.57 0 00-5.93-4.91z" fill="#ffbf00" stroke="#263238" stroke-miterlimit="10"/><path d="M213 302.54s-.34 11.86 0 15.24.85 4.23.85 4.23 2.88-4.74 3.72-6.43 3.39-3.56 4.58-5.08 2-7.28 2-7.28-4.4 3.39-6.77 2.54a12.6 12.6 0 01-4.38-3.22z" fill="#fff" stroke="#263238" stroke-linecap="round" stroke-linejoin="round"/><path d="M220 281.11c-2.88.42-5.69 1.86-6.5 4.67-.68 2.37-1 10.16-1.18 14.05s1.86 8.81 3.55 9.32a8.46 8.46 0 004.4.34c.85-.34 4.75-5.59 5.76-6.61s4.06-10.5 4.06-13.88a7.67 7.67 0 00-5.24-7.62 11.67 11.67 0 00-4.85-.27z" fill="#fff" stroke="#263238" stroke-linecap="round" stroke-linejoin="round"/><path d="M228.39 297s2.71-2.38 2 .67a6.39 6.39 0 01-3.38 4.24zM212.64 293.74s-2-1.86-2 .68a8 8 0 001.7 4.57z" fill="#fff" stroke="#263238" stroke-linecap="round" stroke-linejoin="round"/><path d="M228.39 297a34.49 34.49 0 001.69-8 7.67 7.67 0 00-5.24-7.62 11.67 11.67 0 00-4.85-.27c-2.88.42-5.69 1.86-6.5 4.67a55.44 55.44 0 00-.91 8.49c.86-.67 2.65-2.31 2.27-4.26-.51-2.54-1.53-3.72.33-4.91s4.07.51 7.12 1.53 6.09-.34 6.94.5-2.71 4.41-2.2 5.76 1.69 2.88 1.35 4.07z" fill="#263238" stroke="#263238" stroke-linecap="round" stroke-linejoin="round"/><path d="M204 329.47s-2.54-3.56-4.23-3.73-5.76 3.73-5.76 3.73zM220.09 329.8h2.38l.5 4.75-2.54-.68-.34-4.07z" fill="#fff" stroke="#263238" stroke-linecap="round" stroke-linejoin="round"/><path fill="#fff" stroke="#263238" stroke-linecap="round" stroke-linejoin="round" d="M222.47 329.8l4.23 1.87 1.01 5.25-4.74-2.37-.5-4.75z"/><path d="M236 339l-24.21-9.48a19.64 19.64 0 00-3.9 2.53 6.14 6.14 0 00-1.52 2.54s11.51 8.3 17.1 10.84 13.72 3.39 15.07 2 1-6.6.17-7.45a6.86 6.86 0 00-1.52-1.18" fill="#263238" stroke="#263238" stroke-linecap="round" stroke-linejoin="round"/><path d="M220.09 329l.34 4.91s-17.78 4.06-24.38 5.25-10.16.33-11.17-2.71 2.37-6.78 3.89-7.62 31.32.17 31.32.17z" fill="#263238" stroke="#263238" stroke-linecap="round" stroke-linejoin="round"/></g></g><g><g clip-path="url(#e)" stroke="#263238"><path d="M154.69 317.39s6.78 1.69 9.49 2.54 3.55 1.86 3.55 3.89-1.52 11-1.52 12.36v9.15c0 2.54 2.54 11.85 2.54 11.85h-33s-3.72-14.22-6.26-22-2.88-10.5-.34-11.69a167.55 167.55 0 0118.45-5.58 50.79 50.79 0 017.09-.52z" fill="#ffbf00" stroke-miterlimit="10"/><path d="M164.52 328.56s2 9.32 1.35 12.7-5.25 16.26-5.25 16.26" fill="none" stroke-linecap="round" stroke-linejoin="round"/><path d="M129.13 323.48s-3 .51-2.2 4.41-3.05 29.11-3.05 29.11h7.45s5.08-13.38 5.92-16.59 1.53-5.76 0-8.47" fill="#ffbf00" stroke-miterlimit="10"/><path fill="#263238" stroke-linecap="round" stroke-linejoin="round" d="M160.68 300.9l1.11 34.49h-10.01v-31.52l8.9-2.97z"/><path d="M147.75 325.69s2.88 13 4.07 16.93 1.35 13 1 14.22 4.23 0 4.23 0 1.19-9 1.87-14.22-1.36-15.07-1.36-15.07l-2.2-8.64-8.3 1.53z" fill="#fff" stroke-linecap="round" stroke-linejoin="round"/><path d="M155 311.46a21.06 21.06 0 00.17 8.13c1 3.73 3.73 10.5 1.36 12.36s-5.59.85-7.28-2.54-3.22-11.85-3.22-18.79.68-8.13 3.05-8.13 5.92 8.97 5.92 8.97z" fill="#fff" stroke-linecap="round" stroke-linejoin="round"/><path d="M150.12 308.25a14 14 0 01-5.25 2.87c-2.54.51-3.89-6.26-4.23-13s1.36-10.5 4.91-12.19 12.19-.85 15.58.5 7.45 3.56 7.45 7.11-4.58 6.46-5.93 7.26-4.57 2-6.6 4.06a18.87 18.87 0 01-5.93 3.39z" fill="#263238" stroke-linecap="round" stroke-linejoin="round"/><path d="M150.12 308.25s2 5.08 5.76 5.24 8-8.46 8.13-12.19-3.73-10.16-3.73-10.16-6.6 15.07-10.16 17.11z" fill="#fff" stroke-linecap="round" stroke-linejoin="round"/><path fill="#263238" stroke-linecap="round" stroke-linejoin="round" d="M149.11 300.63l.33 36.57H138.1l2.54-42.5"/></g></g></svg>