<svg xmlns="http://www.w3.org/2000/svg" viewBox="0 0 500 500"><path d="M333.66 445.87l-132.87-.61A28.94 28.94 0 01172 416.19l1.4-333.08a28.94 28.94 0 0129.08-28.82l132.86.61a28.94 28.94 0 0128.8 29.1l-1.41 333.09a28.93 28.93 0 01-29.07 28.78z" fill="#455a64"/><path d="M335.14 66.39l-25.76-.11a6.39 6.39 0 00-6.28 6.51v4.67a6.39 6.39 0 01-6.3 6.54l-50.21-.23a6.41 6.41 0 01-6.23-6.57v-4.67a6.41 6.41 0 00-6.23-6.57h-9.06l-22.54-.11A20.28 20.28 0 00182.18 86l-1.37 325.11A20.26 20.26 0 00201 431.44l132.6.61a20.26 20.26 0 0020.36-20.18l1.38-325.12a20.29 20.29 0 00-20.2-20.36z" fill="#fafafa"/><rect x="234.57" y="153.15" width="71.57" height="71.57" rx="9.76" fill="#ffc100"/><path fill="#ffc100" d="M215.68 179.18l1.73 3.5 3.86.56-2.8 2.72.66 3.84-3.45-1.81-3.45 1.81.66-3.84-2.79-2.72 3.86-.56 1.72-3.5zM327.18 144.53l1.33 2.7 2.99.44-2.16 2.1.51 2.97-2.67-1.4-2.67 1.4.51-2.97-2.16-2.1 2.99-.44 1.33-2.7zM324.56 209.38l1.15 1.57 1.95-.06-1.13 1.58.66 1.84-1.86-.59-1.54 1.19-.01-1.95-1.61-1.09 1.85-.62.54-1.87zM214.36 156a1.83 1.83 0 111.82-1.82 1.83 1.83 0 01-1.82 1.82zm0-2.65a.83.83 0 10.82.83.83.83 0 00-.82-.86zM317.54 181.2a1.83 1.83 0 111.82-1.82 1.83 1.83 0 01-1.82 1.82zm0-2.65a.83.83 0 10.82.83.83.83 0 00-.82-.83zM293.72 142.68a1.83 1.83 0 111.83-1.82 1.82 1.82 0 01-1.83 1.82zm0-2.65a.83.83 0 10.83.83.83.83 0 00-.83-.86z"/><circle cx="204.43" cy="213.47" r="1.33" fill="#ffc100"/><path d="M266.87 232.39a1.33 1.33 0 11-1.33-1.33 1.32 1.32 0 011.33 1.33z" fill="#ffc100"/><circle cx="252.69" cy="127.41" r="1.33" fill="#ffc100"/><path d="M238.89 333v-5.62h1v5.58c0 2.32 1.09 3.39 3 3.39s3-1.07 3-3.39v-5.58h1V333c0 2.82-1.51 4.27-4 4.27s-4-1.47-4-4.27zM257.74 330.73c0 2.08-1.51 3.34-4 3.34h-2.64v3.1h-1v-9.81h3.67c2.46 0 3.97 1.27 3.97 3.37zm-1 0c0-1.57-1-2.47-3-2.47h-2.64v4.9h2.61c1.96 0 3-.89 3-2.43zM260 327.36h4c3.14 0 5.25 2 5.25 4.91s-2.11 4.9-5.25 4.9h-4zm3.94 8.91c2.6 0 4.28-1.65 4.28-4a3.93 3.93 0 00-4.28-4H261v8zM277.55 334.55h-5.46l-1.18 2.62h-1.08l4.49-9.81h1l4.48 9.81h-1.09zm-.38-.84l-2.35-5.27-2.35 5.27zM282.86 328.26h-3.45v-.9h7.93v.9h-3.45v8.91h-1zM295.92 336.27v.9H289v-9.81h6.72v.9H290v3.49h5.07v.88H290v3.64z" fill="#263238"/><path d="M280 176.4a15.09 15.09 0 012.88 2.82l3.68-.67 2.43 5.69-3 2.19a15.17 15.17 0 010 4l3.08 2.12-2.31 5.75-3.69-.6a15.2 15.2 0 01-2.83 2.89l.68 3.68-5.7 2.43-2.19-3a14.69 14.69 0 01-4 .05l-2.13 3.07-5.74-2.3.59-3.69a15.15 15.15 0 01-2.88-2.83l-3.68.67-2.41-5.67 3-2.19a15.17 15.17 0 010-4l-3.08-2.12 2.31-5.75 3.69.6a15.1 15.1 0 012.82-2.88l-.67-3.68 5.69-2.43 2.2 3a15.51 15.51 0 014-.05l2.13-3.07 5.74 2.3-.59 3.7zm-6.4 6.16a6.64 6.64 0 103.69 8.63 6.64 6.64 0 00-3.65-8.63z" fill="#fafafa"/><path d="M273.64 182.56a4.89 4.89 0 011.47.73 6.6 6.6 0 012.58 3.63 6.74 6.74 0 01-1.45 6.34 6.56 6.56 0 01-1.5 1.26 6.43 6.43 0 01-1.88.8 6.79 6.79 0 01-7.49-3 6.81 6.81 0 01-1-3.83 6.82 6.82 0 011.08-3.42 6.69 6.69 0 016.63-3 5 5 0 011.57.49 13.8 13.8 0 00-1.59-.34 6.6 6.6 0 00-4.22.92 6.46 6.46 0 00-3.12 5.36 6.46 6.46 0 001 3.62 6.47 6.47 0 008.86 2.09A6.12 6.12 0 00276 193a6.48 6.48 0 001.45-6 6.6 6.6 0 00-2.41-3.58 15.76 15.76 0 00-1.4-.86z" fill="#fafafa"/><path d="M280 176.4a.87.87 0 010-.24c0-.17.06-.4.1-.7.09-.64.23-1.56.41-2.76v.06l-5.76-2.27h.12l-2.12 3.09v.05h-.07a15.48 15.48 0 00-4 .06h-.07l-.05-.06c-.68-.94-1.42-2-2.2-3h.17l-5.69 2.44.09-.16.68 3.68v.09l-.08.06a14.6 14.6 0 00-2.79 2.86l-.06.08h-.1l-3.69-.59.19-.1c-.73 1.8-1.51 3.75-2.3 5.74l-.07-.21 3.08 2.13.09.06v.11a14.78 14.78 0 000 4v.11l-.09.07-3 2.19.06-.22c.77 1.8 1.6 3.73 2.43 5.69l-.21-.11 3.68-.68h.12l.07.09a15 15 0 002.84 2.79c0 .08-.07-.18.08.19v.41l-.07.46-.15.93c-.1.61-.2 1.23-.29 1.84l-.12-.21 5.74 2.31-.22.07 2.12-3.08.07-.09h.11a14.8 14.8 0 004 0h.11l.06.09 2.19 3-.22-.06 5.7-2.42-.11.19c-.22-1.25-.44-2.48-.66-3.68v-.11l.08-.06a15.35 15.35 0 002.8-2.84l.06-.08h.09l3.7.6-.18.1 2.32-5.74.06.17-3.05-2.16-.06-.05v-.08a15.22 15.22 0 000-4v-.07h.06l3-2.18v.13l-2.4-5.7h.09l-3.68.65a15.12 15.12 0 00-2.07-2.21l-.57-.49-.19-.16.21.13c.13.1.33.25.59.47a15.29 15.29 0 012.13 2.18h-.06l3.67-.7h.07v.06l2.45 5.69v.08l-.08.05-3 2.2.05-.12a15.29 15.29 0 01.06 4.07l-.06-.12 3.08 2.11.1.07-.05.11c-.72 1.82-1.48 3.72-2.29 5.75v.11h-.12l-3.7-.58.16-.07a15.42 15.42 0 01-2.85 2.92l.06-.16c.22 1.2.45 2.43.68 3.67v.14l-.12.06-5.69 2.43-.14.06-.08-.12c-.72-1-1.46-2-2.2-3l.18.08a15.54 15.54 0 01-4.09 0l.18-.08-2.12 3.08-.09.13-.14-.06-5.74-2.31-.14-.05v-.15l.3-1.84.14-.93.08-.46v-.44c.15.36 0 .1.08.18a15.8 15.8 0 01-2.91-2.86l.18.07-3.68.67h-.15l-.06-.14-2.42-5.7-.06-.13.12-.09 3-2.19-.07.18a15.19 15.19 0 010-4.09l.07.17-3.07-2.13-.12-.08.06-.13c.8-2 1.58-3.94 2.31-5.74v-.12h.14l3.69.6-.16.06a15.2 15.2 0 012.86-2.91l-.06.15c-.23-1.28-.46-2.54-.67-3.68v-.12h.11l5.7-2.42h.1l.06.09 2.19 3-.12-.05a15.37 15.37 0 014.06 0h-.1l2.14-3.07v-.06h.07l5.73 2.34h.05c-.2 1.19-.36 2.1-.47 2.74-.06.3-.1.53-.13.7s-.08.27-.08.28z" fill="#fafafa"/><path fill="#263238" d="M244.62 247.77h73.08v52.86h-73.08z"/><path fill="#455a64" d="M220.62 247.77h63.71v52.86h-63.71zM220.62 247.77l-11.31-11.31h28.66l10.64 11.31h-27.99zM284.32 247.77l13.01-11.31h35.69l-15.32 11.31h-33.38z"/><path d="M284.32 247.77c0 .14-14.26.26-31.85.26s-31.85-.12-31.85-.26 14.25-.26 31.85-.26 31.85.11 31.85.26z" fill="#263238"/><rect x="206.45" y="356.88" width="127.79" height="10.4" rx="5.08" fill="#e0e0e0"/><rect x="206.45" y="356.88" width="67.8" height="10.4" rx="5.08" fill="#ffc100"/><path d="M261.9 392.84c0 2.13-1.48 3.79-4.54 3.79a6.46 6.46 0 01-4.5-1.61l.63-1a5.43 5.43 0 003.85 1.45c2.13 0 3.25-1 3.25-2.56s-1-2.61-4.18-2.61h-2.67l.64-6.28h6.86v1.14h-5.73l-.43 4h1.61c3.78-.03 5.21 1.46 5.21 3.68zM271.94 392.84c0 2.13-1.48 3.79-4.54 3.79a6.46 6.46 0 01-4.5-1.61l.63-1a5.43 5.43 0 003.85 1.45c2.13 0 3.25-1 3.25-2.56s-1-2.61-4.18-2.61h-2.67l.64-6.28h6.86v1.14h-5.73l-.43 4h1.61c3.78-.03 5.21 1.46 5.21 3.68zM273.21 387.31c0-2 1.15-3.4 2.83-3.4s2.83 1.34 2.83 3.4-1.17 3.4-2.83 3.4-2.83-1.36-2.83-3.4zm4.76 0c0-1.63-.77-2.6-1.93-2.6s-1.93 1-1.93 2.6.75 2.59 1.93 2.59 1.96-.96 1.96-2.59zm5.66-3.31h1.05l-8.55 12.53h-1.06zm-2.74 9.22c0-2 1.16-3.41 2.83-3.41s2.82 1.37 2.82 3.41-1.14 3.4-2.82 3.4-2.83-1.36-2.83-3.4zm4.76 0c0-1.62-.75-2.6-1.93-2.6s-1.94 1-1.94 2.6.77 2.59 1.94 2.59 1.93-.98 1.93-2.59z" fill="#ffc100"/><g><path d="M485.2 445.58c0 .14-105.31.26-235.19.26s-235.21-.12-235.21-.26 105.29-.26 235.21-.26 235.19.11 235.19.26z" fill="#263238"/></g><g><path d="M198.36 434.16l2.88 11 32.19-.29s-4.41-3.33-20.58-3.09l-1.57-7.62z" fill="#ffbe9d"/><path d="M163.27 309.9l-24.15 2.28-9.81 2.82a26.6 26.6 0 00-11.17 6.41l-31.61 30.28-5.77-47.13L65 305.94l2.64 60.66a18.06 18.06 0 0017.21 12.58A18.66 18.66 0 0097.53 374L120 352.79l-2.23 27.92-7.74 17.35 55.25 31.2s6.49-32.12 10-54.34c2.82-18 4.25-57.13 4.25-57.13z" fill="#ffc100"/><path d="M178.11 317.23s12.21 4.53 15.17 14.1c2.62 8.48 11.36 56.2 11.36 56.2l8.67 50.47-18.16.69-20.91-86.06z" fill="#ffc100"/><path d="M117.35 379.47c-.15 0 .66-9.68 1.8-21.59s2.19-21.55 2.33-21.54-.67 9.68-1.81 21.59-2.18 21.56-2.32 21.54zM157.56 355.74a1.87 1.87 0 01-.16.47l-.55 1.31a20.88 20.88 0 01-1 2c-.42.78-.85 1.69-1.46 2.62-.29.47-.6 1-.91 1.48s-.71 1-1.08 1.55c-.73 1.08-1.63 2.15-2.56 3.29A49.05 49.05 0 01135 380.31c-1.32.65-2.56 1.29-3.78 1.75-.61.24-1.18.5-1.75.7l-1.66.55c-1 .38-2 .6-2.87.83a19.72 19.72 0 01-2.21.48l-1.4.24a1.72 1.72 0 01-.5.05 1.71 1.71 0 01.48-.15l1.38-.33c.6-.13 1.34-.31 2.17-.57s1.81-.49 2.84-.89l1.62-.59c.57-.2 1.13-.47 1.73-.72 1.21-.48 2.43-1.12 3.73-1.77a54.93 54.93 0 007.91-5.17 56.46 56.46 0 006.83-6.53c.92-1.12 1.83-2.17 2.57-3.24.37-.52.76-1 1.09-1.51l.94-1.46c.62-.91 1.07-1.8 1.51-2.56a22 22 0 001-2l.64-1.27c.19-.27.27-.42.29-.41z" fill="#263238"/><path d="M123.76 384.37a3.71 3.71 0 01-2.23-4.44 6.37 6.37 0 013.6-3.92 25.69 25.69 0 015.26-1.56 44.14 44.14 0 0020.54-11.53c.53-.52 1.27-1.09 1.92-.74.87.48.32 1.8-.32 2.56a66.37 66.37 0 01-29.33 19.67" opacity=".2"/><path d="M178.92 373a4.81 4.81 0 01-.37-1c-.2-.67-.48-1.65-.8-2.86-.66-2.41-1.5-5.77-2.33-9.49s-1.52-7.12-2-9.58c-.22-1.24-.39-2.23-.49-2.93a4 4 0 01-.1-1.08 4.53 4.53 0 01.3 1c.18.8.4 1.76.66 2.89.56 2.57 1.29 5.88 2.1 9.54s1.6 7 2.18 9.52c.26 1.14.47 2.1.65 2.9a4.18 4.18 0 01.2 1.09zM67.76 310.47a5.9 5.9 0 01-.46-2.38 5.7 5.7 0 01.06-2.43 5.9 5.9 0 01.46 2.38 5.7 5.7 0 01-.06 2.43zM72.38 310.61a6.67 6.67 0 01-.39-2.53 6.56 6.56 0 01.13-2.56 6.24 6.24 0 01.39 2.53 6.14 6.14 0 01-.13 2.56zM77 310.32a7.86 7.86 0 01-.42-2.82 8.09 8.09 0 01.1-2.86 8.22 8.22 0 01.42 2.83 8 8 0 01-.1 2.85zM85.86 358.93a16.32 16.32 0 01.17-4.17 16.87 16.87 0 01.68-4.12 16.32 16.32 0 01-.17 4.17 16.87 16.87 0 01-.68 4.12zM198.14 433.46a6.9 6.9 0 01.7 2.53 7 7 0 01.19 2.62 12.84 12.84 0 01-.89-5.15zM204.11 433.45a5.69 5.69 0 01.64 2.3 5.36 5.36 0 01.13 2.38 5.69 5.69 0 01-.64-2.3 5.54 5.54 0 01-.13-2.38zM209.77 432.88a8.74 8.74 0 01.6 2.59 8.29 8.29 0 01.28 2.65 6.15 6.15 0 01-.8-2.56 6 6 0 01-.08-2.68zM187.91 323.11c0 .1-1.27 0-3.24.43a15.09 15.09 0 00-11.25 9.83c-.67 1.89-.77 3.16-.87 3.14a2.65 2.65 0 010-.89 12.8 12.8 0 01.5-2.37 14.51 14.51 0 0111.54-10.07A12.91 12.91 0 01187 323a2.74 2.74 0 01.91.11z" fill="#263238"/><path d="M195.38 343.64a19.29 19.29 0 01-3 1.28c-1.88.71-4.52 1.64-7.46 2.55s-5.64 1.66-7.6 2.15a17.92 17.92 0 01-3.2.66 22.88 22.88 0 013.11-1l7.53-2.28 7.5-2.41a22.61 22.61 0 013.12-.95zM203.08 378.45a20.59 20.59 0 01-3.13.85c-1.95.46-4.65 1.06-7.63 1.69s-5.7 1.17-7.67 1.54a20.23 20.23 0 01-3.2.48 20.61 20.61 0 013.12-.84c2-.46 4.65-1.06 7.64-1.69s5.7-1.18 7.66-1.54a19.72 19.72 0 013.21-.49zM211.81 422a17.94 17.94 0 01-3 .15c-1.85.05-4.41.13-7.22.29s-5.37.38-7.21.55a21 21 0 01-3 .19 15.19 15.19 0 013-.56c1.83-.26 4.39-.53 7.22-.7s5.39-.18 7.25-.13a14.88 14.88 0 012.96.21zM131.66 381.06a10.76 10.76 0 01-2.07-.89l-4.9-2.34-4.91-2.31a12 12 0 01-2-1 8.88 8.88 0 012.15.71c1.29.51 3.06 1.27 5 2.18s3.62 1.8 4.84 2.49a9 9 0 011.89 1.16zM171.91 387.89a5.87 5.87 0 01-1.18-.45l-3.15-1.37c-2.65-1.16-6.33-2.74-10.43-4.38s-7.86-3-10.58-4l-3.22-1.18a6.22 6.22 0 01-1.17-.49 5.05 5.05 0 011.23.3c.78.22 1.9.57 3.28 1 2.76.9 6.54 2.24 10.65 3.88s7.78 3.28 10.39 4.53c1.31.63 2.37 1.15 3.08 1.52a5.75 5.75 0 011.1.64zM175 359.47a2.16 2.16 0 01-.56-.05l-1.6-.24-5.86-.95c-5-.8-11.79-1.9-19.36-3s-14.44-2-19.42-2.69l-5.88-.78-1.6-.23a2.19 2.19 0 01-.56-.12 3.52 3.52 0 01.57 0l1.61.14c1.4.12 3.42.33 5.91.61 5 .56 11.86 1.43 19.44 2.54s14.41 2.27 19.35 3.17c2.47.45 4.46.83 5.84 1.11l1.58.34a1.92 1.92 0 01.54.15zM172.78 329.46c0 .14-10.84-1.36-24.17-3.35s-24.11-3.72-24.09-3.86 10.84 1.36 24.17 3.35 24.11 3.72 24.09 3.86zM116.1 355.71a26.63 26.63 0 01-1.54-3.25l-3.51-7.92c-1.38-3-2.62-5.73-3.6-7.88a27.47 27.47 0 01-1.41-3.3 3.14 3.14 0 01.52.82c.3.54.72 1.33 1.23 2.32 1 2 2.34 4.74 3.73 7.83s2.57 5.92 3.38 8c.41 1 .72 1.87.93 2.46a3.8 3.8 0 01.27.92zM94.56 376.79c-.14 0-1.52-6-3.08-13.49s-2.71-13.56-2.57-13.59 1.52 6 3.08 13.48 2.71 13.57 2.57 13.6zM85.65 344a88.29 88.29 0 01-9.37 2.27A89.31 89.31 0 0166.8 348a89.67 89.67 0 019.37-2.28 90.67 90.67 0 019.48-1.72zM82.52 316.63a11.58 11.58 0 01-2.47.54c-1.53.26-3.66.57-6 .84s-4.5.44-6.06.53a11.84 11.84 0 01-2.52 0 13 13 0 012.49-.39l6-.69 6-.68a13 13 0 012.56-.15z" fill="#fafafa"/><path d="M90.65 269.13c.28.56 7.79 39.16 7.79 39.16l-17.7.83-6.86-33.19z" fill="#455a64"/><path fill="#263238" d="M98.44 308.29l2.03-.85-7.66-38.05-2.4-.16 8.03 39.06zM83.53 277.57a.92.92 0 11-1-.8.92.92 0 011 .8z"/><path d="M79.88 304.66l-.27-5.05 7.57-3.12-3-7a6.11 6.11 0 00-8.5-2.91l-3 1.65a8.66 8.66 0 00-4.31 5.59 110 110 0 00-1.75 12.35" fill="#ffbe9d"/><path d="M59.63 433.35s-31.12 8.61-32.37 9c-1.87.66-1.56 7.53 1.36 7.42 1.38-.05 23.9.84 26.75.66s11.43-3.56 11.43-3.56z" fill="#ffc100"/><path d="M46.67 445.22a31.24 31.24 0 00-1.37-3.34 29 29 0 00-2.2-2.88 6.9 6.9 0 013.57 6.2zM49.91 443.75c-.15 0-.47-1.44-1.3-3.07s-1.8-2.76-1.69-2.87a7.82 7.82 0 013 5.94zM53 442.94a19.7 19.7 0 00-.72-3.29 20.26 20.26 0 00-1.7-2.91 5.84 5.84 0 012.42 6.2z" fill="#263238"/><path d="M52.4 438.92a5.68 5.68 0 01-.33-2.32 10.75 10.75 0 01.31-2.54 11 11 0 01.47-1.44 1.7 1.7 0 01.49-.76.83.83 0 011.07.05 1.37 1.37 0 01.42.88 5.77 5.77 0 010 .82 7.45 7.45 0 01-.19 1.53 9.06 9.06 0 01-1 2.37 6.29 6.29 0 01-1.4 1.88c-.07-.05.45-.78 1.07-2.05a9.84 9.84 0 00.82-2.31 7.27 7.27 0 00.15-1.42c0-.48 0-1.08-.29-1.31a.3.3 0 00-.41 0 1.29 1.29 0 00-.34.54 11.85 11.85 0 00-.47 1.38 11.41 11.41 0 00-.41 2.43c-.01 1.35.13 2.25.04 2.27z" fill="#263238"/><path d="M52.44 438.6a4.4 4.4 0 012-.32 8.9 8.9 0 012.21.27 4.83 4.83 0 011.27.47 1.31 1.31 0 01.7 1.42 1.55 1.55 0 01-1.12 1.11 2.76 2.76 0 01-1.4 0 6.65 6.65 0 01-3.46-2.41 12.91 12.91 0 011.65 1.12 5.69 5.69 0 001.91.83 2.52 2.52 0 001.16 0 1 1 0 00.75-.74.8.8 0 00-.46-.87 4.82 4.82 0 00-1.13-.44 10.87 10.87 0 00-2.09-.37c-1.21-.11-1.98.01-1.99-.07zM41.89 445.56a18.12 18.12 0 00-.62-2.81 17.09 17.09 0 00-1.52-2.44 4.49 4.49 0 012.14 5.25zM63.6 447a6.64 6.64 0 01-1.21.57 27.5 27.5 0 01-3.46 1.07 49.31 49.31 0 01-11.88 1.13c-4.66-.05-8.86-.27-11.91-.39l-3.61-.19a6.51 6.51 0 01-1.32-.14 5.85 5.85 0 011.33-.06h3.61l11.9.24a55.51 55.51 0 0011.8-1c2.97-.57 4.71-1.33 4.75-1.23z" fill="#263238"/><path d="M64.52 447.7c0 .07-.9-.42-2.33-1.05a10.84 10.84 0 00-5.89-1 9.32 9.32 0 00-5.09 3 19 19 0 01-1.79 1.84 9.38 9.38 0 011.52-2.09 12.61 12.61 0 012.06-1.89 7.4 7.4 0 013.22-1.36 10.36 10.36 0 016.12 1.16 8.33 8.33 0 012.18 1.39z" fill="#263238"/><path d="M92.66 424.76s29.44 19.28 30.5 20.08c1.58 1.19-.23 6.9-3 5.91-1.3-.47-26-7.34-28.67-8.37s-9.8-6.87-9.8-6.87z" fill="#ffc100"/><path d="M101.4 440a6.93 6.93 0 015.29-4.83 29.21 29.21 0 00-3 2.06 28.47 28.47 0 00-2.29 2.77zM98.76 437.62a5.79 5.79 0 011.79-2.9 6 6 0 012.86-1.85c.08.14-1.21.91-2.48 2.22s-2.04 2.6-2.17 2.53zM96.11 435.92a5.82 5.82 0 014.19-5.17 20.8 20.8 0 00-2.5 2.25 20.87 20.87 0 00-1.69 2.92z" fill="#263238"/><path d="M97.85 432.26c-.07 0 .33-.84.67-2.21a12.31 12.31 0 00.35-2.44 11.92 11.92 0 000-1.45 1.23 1.23 0 00-.16-.62.3.3 0 00-.4-.09c-.34.13-.51.71-.67 1.16a7.12 7.12 0 00-.29 1.4 10.18 10.18 0 00.08 2.45c.2 1.4.48 2.25.4 2.27a6.11 6.11 0 01-.77-2.21 9.57 9.57 0 01-.19-2.56 7.81 7.81 0 01.28-1.51c.08-.25.18-.5.29-.77a1.41 1.41 0 01.66-.71.84.84 0 011 .28 1.69 1.69 0 01.24.87 9.64 9.64 0 010 1.52 10.4 10.4 0 01-.47 2.51 5.46 5.46 0 01-1.02 2.11z" fill="#263238"/><path d="M97.91 431.94c0 .08-.73-.27-1.91-.56a11 11 0 00-2.11-.29 4.87 4.87 0 00-1.21.08.8.8 0 00-.7.69 1.05 1.05 0 00.49.93 2.52 2.52 0 001.1.37 5.44 5.44 0 002.07-.21 13.6 13.6 0 011.92-.57 5.35 5.35 0 01-1.81.92 5.22 5.22 0 01-2.23.33 2.76 2.76 0 01-1.33-.42 1.54 1.54 0 01-.73-1.39 1.32 1.32 0 011.1-1.15 5.24 5.24 0 011.35-.06 9.06 9.06 0 012.19.42 4.44 4.44 0 011.81.91zM116.43 449.68s-.5-.3-.72-1.15a4.29 4.29 0 01.55-3.19 12.93 12.93 0 011-1.47 5.49 5.49 0 011-1.07 1.74 1.74 0 01.94-.4c.25 0 .38.05.37.08a2.75 2.75 0 00-1.07.6 7 7 0 00-.85 1.07c-.3.44-.63.92-.92 1.44a4.56 4.56 0 00-.64 2.87 12.62 12.62 0 00.34 1.22zM105.86 441.78a4.46 4.46 0 013.62-4.35c.06.15-1.18.63-2.19 1.86a16.43 16.43 0 00-1.43 2.49z" fill="#263238"/><path d="M84.73 436.55a9.8 9.8 0 011.3.89 35.65 35.65 0 003.63 2.22 47.35 47.35 0 005.76 2.57c2.23.83 4.73 1.62 7.38 2.38 5.3 1.53 10.09 2.92 13.55 4l4.09 1.26a8.3 8.3 0 011.48.53 10 10 0 01-1.53-.34l-4.14-1.09c-3.49-.95-8.29-2.29-13.6-3.82-2.65-.76-5.16-1.57-7.4-2.43a44.61 44.61 0 01-5.77-2.72 28.07 28.07 0 01-3.57-2.39 7.76 7.76 0 01-1.18-1.06z" fill="#263238"/><path d="M83.64 437a8.36 8.36 0 012.5-.67 10.33 10.33 0 016.19.76 7.39 7.39 0 012.67 2.22 12.11 12.11 0 011.38 2.47 9.4 9.4 0 01.82 2.45 20.77 20.77 0 01-1.2-2.29 9.24 9.24 0 00-3.93-4.43 10.79 10.79 0 00-5.91-.86c-1.54.16-2.5.35-2.52.35z" fill="#263238"/><path d="M161.66 272l1.92 38.89A11.58 11.58 0 01152 323.06a11.58 11.58 0 01-11.57-11c-.14-2.93-.26-5.37-.3-5.67 0 0-9.94-.45-11.14-10.21-.58-4.72-1-14.53-1.25-23.42A18.33 18.33 0 01144.07 254l.94-.1c10.24-.53 16.41 7.87 16.65 18.1z" fill="#ffbe9d"/><path d="M140.11 306.23a22.88 22.88 0 0012.35-5s-2.24 7.37-12.09 7.56z" fill="#eb996e"/><path d="M130.86 278.85a1.41 1.41 0 001.5 1.26 1.34 1.34 0 001.3-1.42 1.39 1.39 0 00-1.5-1.26 1.35 1.35 0 00-1.3 1.42zM130.38 277.31c.2.16 1.17-.74 2.67-.9s2.69.47 2.83.27-.14-.4-.66-.7a4 4 0 00-2.29-.44 3.71 3.71 0 00-2.1.95c-.42.4-.54.75-.45.82zM145.61 277.58a1.41 1.41 0 001.51 1.26 1.35 1.35 0 001.3-1.42 1.4 1.4 0 00-1.5-1.26 1.35 1.35 0 00-1.31 1.42zM145.18 276c.2.16 1.17-.74 2.67-.9s2.69.47 2.83.27-.14-.4-.66-.7a4 4 0 00-2.29-.44 3.71 3.71 0 00-2.1.95c-.42.36-.54.71-.45.82zM141 287.7a10.61 10.61 0 00-2.49-.17c-.39 0-.76 0-.85-.28a2 2 0 01.13-1.17c.26-1 .53-2 .81-3.05 1.12-4.33 1.88-7.88 1.71-7.92s-1.23 3.43-2.34 7.77c-.27 1.06-.52 2.08-.77 3.06a2.25 2.25 0 000 1.52 1 1 0 00.69.5 3 3 0 00.67 0 9.27 9.27 0 002.44-.26zM145.5 288.26c-.25 0-.07 1.64-1.34 2.95s-3 1.33-3 1.55.42.28 1.15.22a4.09 4.09 0 002.53-1.21 3.6 3.6 0 001-2.46c-.01-.69-.23-1.08-.34-1.05zM144.15 270.12c.19.39 1.67 0 3.45.05s3.27.34 3.46-.05c.09-.19-.2-.55-.82-.88a6 6 0 00-5.27 0c-.62.33-.91.69-.82.88zM130.46 272.9c.3.31 1.29-.16 2.54-.31s2.32 0 2.52-.41c.09-.18-.11-.51-.61-.78a3.56 3.56 0 00-2.13-.33 3.49 3.49 0 00-1.95.91c-.4.4-.51.77-.37.92z" fill="#263238"/><path d="M161.66 279.35c.16-.09 6.5-2.73 7 4s-6.32 5.85-6.34 5.65-.66-9.65-.66-9.65z" fill="#ffbe9d"/><path d="M164.19 286.28s.12.08.33.15a1.17 1.17 0 00.87-.05 2.9 2.9 0 001.14-2.7 4.12 4.12 0 00-.46-1.65 1.36 1.36 0 00-.95-.82.6.6 0 00-.67.37c-.07.2 0 .33 0 .34s-.16-.1-.12-.38a.68.68 0 01.23-.44.84.84 0 01.63-.22 1.63 1.63 0 011.3.94 3.9 3.9 0 01.55 1.84 3 3 0 01-1.47 3 1.24 1.24 0 01-1.09-.1c-.27-.12-.32-.26-.29-.28z" fill="#eb996e"/><path d="M165.35 278.71a3.54 3.54 0 00-3 2c-.33 1-.31 2.1-.64 3.1s-1.21 2-2.26 1.85a2.09 2.09 0 01-1.56-1.38 5.53 5.53 0 01-.25-2.15c0-3.16.36-6.33.14-9.49a16.12 16.12 0 00-3-8.87 8.81 8.81 0 00-8.3-3.53c-2.06.39-3.85 1.69-5.88 2.2a8.18 8.18 0 01-7-1.51 15.52 15.52 0 00-1.37-.77 3.88 3.88 0 01.47-2.15c3.68-4.24 10.94-6.11 16.5-5.34a19.62 19.62 0 0113.94 8.83c2.88 4.81 3 11.94 2.25 17.21M56.09 433s72.21-47.36 75.17-48.35 10.1-5.67 17.25-3.7 13.55 8.38 16.75 17.74 3.45 30.31 3.45 30.31S163 445.5 152 449a26.53 26.53 0 01-2.89.72c-13.54 2.69-27.3-3.53-34.87-15.07l-1.62-2.45s-47.23 17.35-48 17.11z" fill="#263238"/><path d="M31.47 377.74s-8.84 3.15-8.87 13.06c-.07 19 38.33 39.89 38.33 39.89L112 396.82v-3.56s-65.75-23.65-80.53-15.52z" fill="#263238"/><path d="M145.43 420s-.13.07-.4.18l-1.18.47-4.58 1.76-17 6.41c-7.23 2.69-15.89 5.9-25.6 9.43s-20.47 7.41-32 11.3l-.21.07-.1-.19c-1.81-3.45-3.71-7.08-5.64-10.78l-2.88-5.49-.11-.21.2-.13 55.08-35 16.55-10.44 4.49-2.8 1.17-.72.41-.23a4.53 4.53 0 01-.38.27l-1.14.76-4.45 2.88-16.46 10.58-55 35.1.09-.34c.92 1.74 1.89 3.61 2.88 5.49l5.64 10.78-.31-.13c11.49-3.88 22.25-7.74 32-11.24l25.63-9.33 17.07-6.26 4.6-1.67 1.2-.43z" fill="#455a64"/><path d="M86.15 413.93a11.72 11.72 0 01-1.33-.91c-.84-.6-2-1.51-3.5-2.64-2.92-2.26-6.9-5.46-11.19-9.14s-8-7.13-10.73-9.68c-1.34-1.28-2.41-2.32-3.14-3.06a9.74 9.74 0 01-1.09-1.18 11.51 11.51 0 011.23 1l3.25 2.93c2.74 2.48 6.55 5.88 10.82 9.55s8.22 6.92 11.08 9.25l3.39 2.77a9.43 9.43 0 011.21 1.11zM45.9 384.83a10 10 0 014.92.45 10.14 10.14 0 014.38 2.3c-.09.13-2-1.05-4.53-1.8s-4.78-.78-4.77-.95z" fill="#455a64"/><path d="M50.3 381.84a6.23 6.23 0 013 2.28 6.15 6.15 0 011.59 3.44c-.15.05-.71-1.54-2-3.11s-2.67-2.45-2.59-2.61z" fill="#455a64"/><path d="M28.66 441.92c0-.06.61-.19 1.31.4a4.72 4.72 0 011.48 3 5.9 5.9 0 01-.46 3.27c-.37.78-.76 1.14-.81 1.11s.21-.48.46-1.24a6.76 6.76 0 00.3-3.07 5.17 5.17 0 00-1.21-2.76 3.54 3.54 0 00-1.07-.71z" fill="#263238"/></g><g><path fill="#263238" d="M383.11 387.4h69.76v9.59h-69.76z"/><path d="M453 397.1h-70v-9.82h70zm-69.76-.24h69.52v-9.34h-69.53z" fill="#263238"/><path fill="#263238" d="M389.58 393.79l10.04 49.54h37.16l9.7-46.35-56.9-3.19z"/><path fill="#455a64" d="M389.58 438.64l5.36 7.37h45.16l6.38-7.37h-56.9z"/><path d="M415.37 395.24c-.13 0-.31-22.95-.39-51.25s0-51.26.11-51.26.31 22.94.39 51.25.03 51.26-.11 51.26zM430.91 337.81a2.24 2.24 0 01-.18.53c-.17.39-.37.88-.63 1.49-.14.32-.29.68-.45 1.07l-.47 1.3c-.16.47-.34 1-.53 1.49s-.34 1.11-.52 1.71a69 69 0 00-1.95 8.54 102.72 102.72 0 00-1.08 10.68 144 144 0 00.55 19.51c.23 2.49.45 4.5.62 5.89.07.66.13 1.19.17 1.61a2 2 0 010 .56 2.41 2.41 0 01-.13-.55c-.07-.42-.16-.94-.26-1.59-.23-1.38-.51-3.39-.78-5.88a128.65 128.65 0 01-.7-19.57 98.2 98.2 0 011.13-10.74 66.09 66.09 0 012.06-8.57c.2-.59.36-1.17.56-1.7l.57-1.49.51-1.29c.17-.39.35-.74.5-1.06l.71-1.45a2.41 2.41 0 01.3-.49z" fill="#263238"/><path d="M429.13 319.25a4.4 4.4 0 01-.22.75l-.73 2.14-.53 1.53c-.17.58-.36 1.2-.56 1.86-.41 1.33-.88 2.83-1.3 4.53-.23.85-.46 1.73-.7 2.66s-.43 1.9-.66 2.9c-.48 2-.84 4.17-1.29 6.43-.76 4.56-1.44 9.6-1.91 14.91s-.63 10.41-.7 15 .05 8.79.24 12.28c.06 1.75.17 3.33.26 4.72s.17 2.58.26 3.56.12 1.68.17 2.24a4.28 4.28 0 010 .79 4 4 0 01-.12-.78c-.07-.55-.16-1.3-.27-2.24s-.23-2.16-.34-3.55-.25-3-.34-4.72c-.23-3.49-.33-7.67-.34-12.3s.22-9.73.67-15.07 1.16-10.38 1.95-14.95c.47-2.27.83-4.44 1.34-6.44.24-1 .46-2 .68-2.91s.5-1.8.74-2.65c.44-1.7.94-3.2 1.37-4.53l.6-1.84c.21-.56.41-1.06.58-1.53.34-.88.61-1.58.82-2.1a4.12 4.12 0 01.33-.69zM411 399.3a1.14 1.14 0 010-.27c0-.21 0-.47-.06-.79-.05-.73-.12-1.75-.21-3-.17-2.68-.4-6.48-.7-11.18-.6-9.43-1.48-22.47-3.07-36.81-.81-7.17-1.75-14-2.73-20.15-.52-3.08-1-6-1.52-8.74s-1-5.27-1.51-7.58-1-4.4-1.38-6.23-.8-3.4-1.12-4.68-.55-2.25-.73-3c-.07-.32-.13-.57-.17-.77a1.14 1.14 0 01-.05-.27.9.9 0 01.09.25c.06.2.14.45.23.76.19.71.47 1.69.81 2.94s.78 2.84 1.21 4.67 1 3.9 1.45 6.22 1.06 4.84 1.57 7.57 1 5.67 1.57 8.75c1 6.17 2 13 2.78 20.17 1.59 14.35 2.41 27.4 2.92 36.84.26 4.73.44 8.55.54 11.19.05 1.3.09 2.31.12 3.05v.79a1.1 1.1 0 01-.04.27z" fill="#263238"/><path d="M414.81 303.76c-.31-3.25-3.59-5.7-6.86-5.74s-6.31 1.93-8.3 4.51a25.88 25.88 0 00-4 8.88c-2.2 7.66-3.4 15.7-2.46 23.62s4.15 15.7 9.83 21.29c.92.91 2.11 1.82 3.38 1.55a4.19 4.19 0 001.79-1.1 52.89 52.89 0 0017.15-40.2c-.08-3-.48-6.14-2.15-8.65s-5.55-5.17-8.38-4.16M390.42 277.72l-4.6 8.33c-.1.19-.24.41-.47.43s-.42-.21-.55-.41l-12.16-18.66 2.8-1.59z" fill="#ffc100"/><path d="M390.42 277.72l-4.6 8.33c-.1.19-.24.41-.47.43s-.42-.21-.55-.41l-12.16-18.66 2.8-1.59z" opacity=".2"/><path d="M415.09 292.73l-41.48-24.48a1.94 1.94 0 01-1-1c-.16-.61.3-1.2.74-1.66a28.62 28.62 0 0122.16-8.71 25.31 25.31 0 0120 12.47c4 7.15 4.14 16.61-.45 23.4" fill="#ffc100"/><path d="M379.59 260.44a2.07 2.07 0 01.54-.07c.36 0 .89-.08 1.57-.07a30.54 30.54 0 015.75.45 34.06 34.06 0 0117 8.2A34.26 34.26 0 01414.3 285a31.89 31.89 0 011 5.69c.07.67.06 1.2.08 1.56a1.8 1.8 0 010 .55s-.09-.75-.26-2.09a34 34 0 00-27.74-29.65 36 36 0 00-5.69-.61c-1.35.01-2.1.03-2.1-.01z" fill="#263238"/><path d="M409.47 275.83a9 9 0 01-2.09 1 90.022 90.022 0 01-10.58 3.35 10.54 10.54 0 01-2.26.44 10.91 10.91 0 012.17-.77l5.28-1.65 5.27-1.7a11.94 11.94 0 012.21-.67zM402.94 258.29a29.24 29.24 0 01.24 9.27 28.77 28.77 0 01-.25-4.63 29.1 29.1 0 01.01-4.64zM373.25 267.79a17.86 17.86 0 013-1.06c1.89-.58 4.51-1.32 7.44-2s5.59-1.25 7.54-1.59a19.62 19.62 0 013.16-.43 21.6 21.6 0 01-3.1.78c-1.92.42-4.57 1-7.49 1.72s-5.55 1.38-7.45 1.88a22.43 22.43 0 01-3.1.7z" fill="#263238"/><path d="M396 296.06c-3.56-2.7-7.34-3.23-11.81-3.06a36.1 36.1 0 00-12.93 3.34c-7 3.06-13.57 7.58-17.74 14s-5.64 14.85-2.51 21.81a3.09 3.09 0 001.42 1.72 3.35 3.35 0 002.34-.18c7.95-2.59 16-5.21 23.28-9.28s14-9.71 17.89-17.1a14.8 14.8 0 001.89-5.67 7.07 7.07 0 00-1.83-5.55" fill="#ffc100"/><path d="M396 295.22a2.38 2.38 0 01-.57.24l-1.67.57-1.2.4c-.44.16-.91.36-1.41.55-1 .41-2.18.82-3.41 1.41l-1.95.89c-.67.31-1.35.7-2.06 1.06-1.45.71-2.91 1.61-4.46 2.53a70.6 70.6 0 00-17.55 15.44c-1.1 1.42-2.19 2.76-3.07 4.1-.46.66-.92 1.28-1.32 1.91l-1.13 1.82c-.75 1.15-1.3 2.25-1.83 3.2-.26.48-.51.91-.73 1.33l-.55 1.14-.78 1.58a3.11 3.11 0 01-.3.54 2.22 2.22 0 01.21-.58l.7-1.62c.15-.36.33-.74.51-1.17s.44-.86.69-1.35c.51-1 1.05-2.09 1.78-3.25l1.11-1.85c.39-.64.85-1.27 1.3-1.94.87-1.36 2-2.71 3.06-4.15a74.76 74.76 0 018.15-8.54 75.58 75.58 0 019.51-7c1.57-.91 3.05-1.81 4.51-2.5.72-.36 1.4-.74 2.09-1.05l2-.86c1.25-.58 2.43-1 3.45-1.35.51-.18 1-.37 1.43-.51l1.22-.36 1.7-.49a5.18 5.18 0 01.57-.14zM368.16 310.31a79.68 79.68 0 01-8.67 2.8 85 85 0 01-8.82 2.32 86 86 0 018.68-2.8 85.93 85.93 0 018.81-2.32z" fill="#263238"/><path d="M367.81 329.46a13.11 13.11 0 01-.19-2.7c-.05-1.67-.06-4 0-6.53s.2-4.86.34-6.53a15.07 15.07 0 01.34-2.69 15.35 15.35 0 010 2.71c-.05 1.83-.12 4.06-.2 6.52s-.12 4.69-.16 6.52a16.19 16.19 0 01-.13 2.7zM384.21 321.11c-.14 0-.57-4.69-1-10.49s-.62-10.51-.48-10.52.57 4.68 1 10.49.62 10.51.48 10.52z" fill="#263238"/><path d="M363.79 299.64a17.18 17.18 0 012.78-.08c1.72 0 4.09.06 6.7.15s5 .19 6.69.29a15 15 0 012.77.27 14.57 14.57 0 01-2.78.08c-1.71 0-4.08-.06-6.7-.14s-5-.2-6.69-.3a15 15 0 01-2.77-.27zM404.79 358.56a4.45 4.45 0 01-.06-.57c0-.43 0-1-.07-1.63-.06-1.41-.08-3.47 0-6s.21-5.55.51-8.88.79-7 1.46-10.81 1.51-7.4 2.36-10.64 1.76-6.12 2.59-8.52 1.54-4.31 2.09-5.62l.63-1.5a2.87 2.87 0 01.25-.51 1.91 1.91 0 01-.15.54c-.15.41-.33.91-.55 1.54a158.578 158.578 0 00-4.42 14.18c-.85 3.23-1.63 6.83-2.31 10.62s-1.15 7.44-1.49 10.76-.53 6.33-.62 8.85-.14 4.57-.13 6V358a2.34 2.34 0 01-.09.56z" fill="#263238"/><path d="M407 330.26a11.23 11.23 0 01-1.65 1.81c-1.08 1.07-2.6 2.51-4.34 4s-3.36 2.85-4.56 3.78a11.68 11.68 0 01-2 1.4 12.8 12.8 0 011.8-1.68l4.45-3.87 4.43-3.91a13 13 0 011.87-1.53zM420.11 340.83a18.35 18.35 0 01-1.76-2.44c-1.14-1.65-2.54-3.71-4.1-6s-3-4.28-4.18-5.92a18.87 18.87 0 01-1.68-2.5 17.11 17.11 0 012 2.29c1.15 1.46 2.69 3.52 4.31 5.85s3 4.49 4 6.07a17.25 17.25 0 011.41 2.65zM413.23 307.58c.08.11-4.28 3.05-9.74 6.55s-9.93 6.26-10 6.14 4.29-3 9.74-6.56 9.93-6.25 10-6.13zM425.53 320.85a79.76 79.76 0 01-6.6-6.1 83.11 83.11 0 01-6.25-6.45 79.76 79.76 0 016.6 6.1 80.9 80.9 0 016.25 6.45z" fill="#263238"/><path d="M428.62 320.58l3.75-.31a18.61 18.61 0 007.55-2.31 29.84 29.84 0 013.53-1.77c4.63-1.86 9.79-1.53 14.77-1.78a61.09 61.09 0 0023.5-6 2.21 2.21 0 001-.93c.77-1.4-.66-2.65-1.89-3.4-6.31-3.89-12.73-7.82-19.88-9.75s-15.27-1.61-21.37 2.59c-7.17 4.93-9.78 15.06-11 23.67" fill="#ffc100"/><path d="M482.83 307a2.91 2.91 0 01-.63-.29l-1.78-.93c-1.54-.81-3.75-2-6.55-3.35a60.83 60.83 0 00-10.15-3.91 33.5 33.5 0 00-13.14-1.06 22.46 22.46 0 00-12 5.14 26.74 26.74 0 00-6.24 8.77 72.08 72.08 0 00-2.72 6.83c-.27.78-.5 1.41-.66 1.88a2.87 2.87 0 01-.27.65 6.42 6.42 0 01.17-.68c.15-.48.34-1.12.58-1.91a60.19 60.19 0 012.58-6.92 26.5 26.5 0 016.26-9 22.73 22.73 0 0112.22-5.3 33.48 33.48 0 0113.34 1.12 58.47 58.47 0 0110.17 4c2.79 1.38 5 2.63 6.5 3.49l1.73 1a4.5 4.5 0 01.59.47z" fill="#263238"/><path d="M473.84 311.84c-.08.12-5-3-10.93-7.07s-10.74-7.37-10.66-7.49 5 3.06 10.93 7.08 10.74 7.37 10.66 7.48zM469.14 296.82a11.61 11.61 0 01-3.82.76 11.86 11.86 0 01-3.9-.05 20.8 20.8 0 013.85-.44 21.64 21.64 0 013.87-.27zM447.19 292.88a13.77 13.77 0 01-1.61 3.21 13.53 13.53 0 01-2 3 25.48 25.48 0 013.64-6.17zM451.57 314.73a13.55 13.55 0 01-2.35-1.28c-1.42-.86-3.33-2.12-5.37-3.6s-3.84-2.89-5.14-3.91a15.46 15.46 0 01-2-1.74 13 13 0 012.24 1.46l5.22 3.79c2 1.48 3.91 2.77 5.27 3.7a16.18 16.18 0 012.13 1.58z" fill="#263238"/><path d="M434.13 336.49c-3.57-.95-7.82 2.53-8.56 6.15s.62 7.32 2.21 10.65a54.36 54.36 0 0014.77 19.32c6.39 5.09 14.4 8.35 22.57 8.31-1.51-7 .4-14.34-.44-21.46A27.92 27.92 0 00440 335c-2.28-.24-4.92-.6-5.83 1.51" fill="#ffc100"/><path d="M465.12 380.92a2.35 2.35 0 01-.5-.24 8.18 8.18 0 01-1.34-.89 14 14 0 01-3.53-4.72c-.56-1.1-1.2-2.3-1.82-3.63s-1.25-2.76-1.92-4.25a41.07 41.07 0 00-2.36-4.54 36.51 36.51 0 00-3.25-4.42c-2.45-2.87-5.07-5.35-7.34-7.72a50.93 50.93 0 01-5.6-6.72 25.44 25.44 0 01-2.74-5.22 15.1 15.1 0 01-.47-1.54 3.57 3.57 0 01-.12-.54c.05 0 .25.73.77 2a27.2 27.2 0 002.85 5.09 53.39 53.39 0 005.63 6.6c2.29 2.34 4.93 4.82 7.4 7.72a35.92 35.92 0 013.28 4.49 40.16 40.16 0 012.36 4.6l1.88 4.27c.6 1.32 1.22 2.53 1.77 3.64a14.36 14.36 0 003.33 4.73c1.05.91 1.75 1.24 1.72 1.29z" fill="#263238"/><path d="M446.66 375.09a11.19 11.19 0 01.33-2.4c.28-1.47.74-3.49 1.35-5.69s1.29-4.16 1.82-5.56a10.54 10.54 0 011-2.22 12.9 12.9 0 01-.64 2.34c-.44 1.42-1.05 3.39-1.67 5.58s-1.12 4.18-1.49 5.63a13.12 13.12 0 01-.7 2.32zM464.45 357.88a14.28 14.28 0 01-2.52-.57c-1.54-.41-3.66-1-6-1.49s-4.52-.95-6.09-1.24a15.13 15.13 0 01-2.52-.56 12.47 12.47 0 012.58.21c1.58.21 3.76.57 6.13 1.11s4.5 1.14 6 1.63a12.6 12.6 0 012.42.91zM433.41 362.88a13.78 13.78 0 01.39-2.78c.31-1.7.81-4.05 1.48-6.61s1.38-4.85 1.93-6.49a13.5 13.5 0 011-2.61 18.77 18.77 0 01-.69 2.72c-.47 1.66-1.13 4-1.79 6.51s-1.22 4.87-1.62 6.56a16.4 16.4 0 01-.7 2.7zM456.26 342.89c0 .13-4.48-.23-10-.81a98.49 98.49 0 01-9.9-1.3 97.07 97.07 0 0110 .81 99 99 0 019.9 1.3z" fill="#263238"/><path d="M453 396.94c0 .14-15.67.25-35 .25s-35-.11-35-.25 15.66-.25 35-.25 35 .12 35 .25zM442.09 417.11c0 .13-10.56.25-23.58.25s-23.58-.12-23.58-.25 10.56-.25 23.58-.25 23.58.14 23.58.25zM442.5 420c0 .14-10.56.25-23.58.25s-23.58-.11-23.58-.25 10.56-.25 23.58-.25 23.58.1 23.58.25zM442.5 414.73c0 .14-10.92.25-24.39.25s-24.39-.11-24.39-.25 10.92-.25 24.39-.25 24.39.11 24.39.25z" fill="#455a64"/></g></svg>