<svg xmlns="http://www.w3.org/2000/svg" viewBox="0 0 500 500"><path d="M35.34 423.9V449h5.79a34.81 34.81 0 010-7.95c.55-2.95 6.84-10.57 6.65-17.11z" fill="#ebebeb"/><path d="M81.66 423.9V449h5.79a34.81 34.81 0 010-7.95c.55-2.95 6.84-10.57 6.65-17.11z" fill="#e0e0e0"/><path d="M127 423.9V449h-5.8a35.44 35.44 0 000-7.95c-.56-2.95-6.84-10.57-6.66-17.11z" fill="#ebebeb"/><path d="M167.08 423.9V449h-5.79a35.44 35.44 0 000-7.95c-.55-2.95-6.84-10.57-6.65-17.11z" fill="#e0e0e0"/><path fill="#f5f5f5" d="M31.4 300.13h138.72V424.7H31.4z"/><path fill="#e0e0e0" d="M132.75 300.13l1.03 124.57h36.34V300.13h-37.37z"/><path fill="#ebebeb" d="M37.64 309.3h89.06V341H37.64zM37.64 347.31h89.06v31.7H37.64zM37.64 385.33h89.06v31.7H37.64z"/><path fill="#e0e0e0" d="M71.78 264.34l-3.84 35.65h49.22l4.08-35.65H71.78z"/><path fill="#fff" d="M73.81 266.9l-3.74 31.19h44.42l3.59-31.19H73.81z"/><path fill="#ebebeb" d="M81.28 272.15l-2.3 20.7h28.03l1.44-20.7H81.28zM119.48 279.69l10.17 20.44-12.49-.14 2.32-20.3"/><path d="M85.43 326.8a3.26 3.26 0 11-3.26-3.25 3.26 3.26 0 013.26 3.25zM85.43 365.2a3.26 3.26 0 11-3.26-3.26 3.25 3.25 0 013.26 3.26zM85.43 403.59a3.26 3.26 0 11-3.26-3.26 3.26 3.26 0 013.26 3.26zM126.56 97.63l-78.65-.76 2.19 102.5 78.65.29-2.19-102.03z" fill="#e0e0e0"/><path fill="#fafafa" d="M121.49 102.2l-68.85-1.78 1.99 92.96 68.83.85-1.97-92.03z"/><path fill="#ebebeb" d="M109.74 116.09l-45.69-.76 1.4 64.98 45.64-.98-1.35-63.24z"/><path fill="#f5f5f5" d="M65.45 180.31l44.93-34.36-46.33-30.62 1.4 64.98z"/><path fill="#e0e0e0" d="M465.01 44.2L396 43.53l1.93 89.93 68.99.25-1.91-89.51z"/><path fill="#fafafa" d="M460.55 48.22l-60.4-1.57 1.75 81.55 60.38.74-1.73-80.72z"/><path fill="#ebebeb" d="M450.24 60.4l-40.07-.67 1.22 57 40.04-.85-1.19-55.48z"/><path fill="#f5f5f5" d="M411.39 116.73l39.42-30.14-40.64-26.86 1.22 57z"/><path d="M387.71 382.3c-.29.88 10 40 10 40l7.06-1.47-9.71-38.53z" fill="#ebebeb"/><path fill="#f5f5f5" d="M442.42 376.71L428.3 422.3h8.24l13.53-42.35-7.65-3.24z"/><path fill="#ebebeb" d="M455.36 369.65l-16.18 52.65h8.24l15.59-49.41-7.65-3.24z"/><path fill="#e0e0e0" d="M392.71 419.07l8.24 28.53h41.47l7.65-28.53h-57.36zM414.1 419.07a2.59 2.59 0 01-.09-.3l-.22-.87c-.19-.8-.45-1.93-.79-3.37l-2.85-12.46-9.31-41.55.25.21h-7.26l.25-.32c3.69 16.35 7 31 9.37 41.58 1.16 5.27 2.1 9.52 2.76 12.5.3 1.45.55 2.58.72 3.39.07.37.13.66.17.88a1 1 0 010 .31 2.59 2.59 0 01-.09-.3c-.06-.22-.13-.51-.22-.87-.2-.8-.47-1.93-.82-3.37-.69-3-1.68-7.21-2.91-12.46-2.43-10.58-5.78-25.21-9.52-41.55l-.08-.31h7.8l.05.2c3.59 16.35 6.82 31 9.15 41.58 1.13 5.27 2.05 9.52 2.69 12.5.3 1.45.53 2.58.7 3.39l.17.88a1 1 0 01.08.31z"/><g><path d="M454.63 448.79c0 .14-94.94.26-212 .26s-212-.12-212-.26 94.92-.26 212.05-.26 211.95.12 211.95.26z" fill="#263238"/></g><g><path d="M427.33 175.85a3.77 3.77 0 00-.71-.22 4.94 4.94 0 00-2.17 0 8 8 0 00-3.15 1.62 16.65 16.65 0 00-3.2 3.73c-2.05 3.14-3.66 7.48-5.54 12.54a183.49 183.49 0 00-5.64 17.63 5.08 5.08 0 01-1.16 1.45 2.29 2.29 0 01-1.82.58 3.4 3.4 0 01-1.67-1c-.47-.43-.91-.89-1.35-1.36a32.17 32.17 0 00-2.77-2.7 5.12 5.12 0 00-3.51-1.43 4.74 4.74 0 00-3.21 2.14 8.13 8.13 0 00-1.11 4c-.17 2.86.66 5.75 1.16 8.74s1.13 6.06 1.71 9.19c.3 1.57.59 3.15.89 4.75l.45 2.42a3.11 3.11 0 01-.29 2.56 1.24 1.24 0 01-1.33.45 3.53 3.53 0 01-1.19-.61l-2-1.52a47.64 47.64 0 00-4.24-2.86 16.41 16.41 0 00-4.74-2 5.5 5.5 0 00-2.52 0 3.69 3.69 0 00-2.06 1.38 8.45 8.45 0 00-1.35 5 28.44 28.44 0 00.53 5.42 68.67 68.67 0 003.05 10.78 14.8 14.8 0 01.87 2.78 2 2 0 01-.37 1.55 2.65 2.65 0 01-.29.29 1.14 1.14 0 01-.39.23 1.22 1.22 0 01-.87-.2 14.47 14.47 0 01-2.31-1.84l-2.14-2a31.85 31.85 0 00-4.55-3.66 9.46 9.46 0 00-2.63-1.2 3.27 3.27 0 00-2.67.33 3.87 3.87 0 00-1.51 2.32 11.86 11.86 0 00-.36 2.92 25.31 25.31 0 00.75 6 51.68 51.68 0 004.35 11.49 86.32 86.32 0 006.47 10.75 58.35 58.35 0 003.9 5c1.34 1.66 2.7 3.31 4.06 5v.06l-.24-.1 6.36-.92a61.22 61.22 0 006.27-1.08 88.37 88.37 0 0012-3.61 52.29 52.29 0 0010.95-5.59 24.53 24.53 0 004.57-3.91 11.74 11.74 0 001.71-2.41 3.88 3.88 0 00.44-2.73 3.26 3.26 0 00-1.75-2.05 10 10 0 00-2.75-.88 32.44 32.44 0 00-5.83-.35h-2.92a14.73 14.73 0 01-3-.19 1.19 1.19 0 01-.78-.44 1.12 1.12 0 01-.13-.44 1.85 1.85 0 010-.41 2.07 2.07 0 01.77-1.39 15.05 15.05 0 012.51-1.47 67.88 67.88 0 009.51-5.93 27.07 27.07 0 004-3.66 8.44 8.44 0 002.36-4.6 3.7 3.7 0 00-.6-2.41 5.43 5.43 0 00-1.86-1.7 16.22 16.22 0 00-4.83-1.73 46 46 0 00-5.06-.73l-2.52-.24a3.24 3.24 0 01-1.29-.35 1.25 1.25 0 01-.67-1.24 3.16 3.16 0 011.51-2.08l2-1.48 3.85-2.93 7.44-5.65c2.39-1.87 4.94-3.45 6.74-5.69a8.07 8.07 0 001.84-3.68 4.73 4.73 0 00-.94-3.75 3.4 3.4 0 00-1.63-1 7.87 7.87 0 00-1.93-.32 30.92 30.92 0 00-3.86.14c-.64 0-1.28.09-1.91.1a3.4 3.4 0 01-1.89-.41 2.31 2.31 0 01-1-1.65 5.28 5.28 0 01.11-1.86 182.14 182.14 0 007.75-16.67c2-5 3.73-9.3 4.35-13a17 17 0 00.2-4.9 7.82 7.82 0 00-1.17-3.34 4.63 4.63 0 00-1.54-1.51 4.09 4.09 0 00-.67-.33 2.78 2.78 0 01.69.29 4.73 4.73 0 011.6 1.5 8 8 0 011.21 3.37 16.81 16.81 0 01-.15 4.95c-.6 3.71-2.3 8-4.29 13a182.36 182.36 0 01-7.62 16.87 4.73 4.73 0 00-.1 1.72 2 2 0 00.82 1.43 3.1 3.1 0 001.7.35c.62 0 1.25-.06 1.89-.11a31.49 31.49 0 013.91-.15 8.2 8.2 0 012 .33 3.84 3.84 0 011.8 1.07 5.1 5.1 0 011 4 8.34 8.34 0 01-1.92 3.86c-1.85 2.3-4.42 3.9-6.79 5.78l-7.43 5.66-3.84 2.92-1.95 1.49a4.56 4.56 0 00-.89.78 2.07 2.07 0 00-.46 1 .82.82 0 00.45.82 2.94 2.94 0 001.13.29l2.52.24a45 45 0 015.1.73 16.86 16.86 0 015 1.77 6.12 6.12 0 012 1.85 4.25 4.25 0 01.68 2.69 9 9 0 01-2.47 4.88 28.47 28.47 0 01-4.1 3.73 69.1 69.1 0 01-9.57 6 14.19 14.19 0 00-2.42 1.4 1.56 1.56 0 00-.6 1.06 1.51 1.51 0 000 .3c0 .08 0 .27.07.26a.85.85 0 00.46.21 14.7 14.7 0 002.84.18h2.92a31.12 31.12 0 015.92.35 9.82 9.82 0 012.9.93 3.77 3.77 0 012 2.37 4.34 4.34 0 01-.48 3.08 12 12 0 01-1.78 2.51 25.07 25.07 0 01-4.66 4 51.94 51.94 0 01-11.06 5.65 87.6 87.6 0 01-12.1 3.64 60.31 60.31 0 01-6.29 1.08l-6.37.93h-.15l-.09-.12h-.05l-4.06-5a61.16 61.16 0 01-3.91-5 86.89 86.89 0 01-6.52-10.83 52.43 52.43 0 01-4.37-11.61 25 25 0 01-.77-6.09 12.63 12.63 0 01.38-3.06 4.39 4.39 0 011.72-2.6 3.77 3.77 0 013.08-.4 10 10 0 012.76 1.26 31.74 31.74 0 014.62 3.72l2.14 2a14.6 14.6 0 002.22 1.77.85.85 0 00.49.16s.15-.09.22-.14l.22-.22a1.53 1.53 0 00.26-1.18 13.94 13.94 0 00-.84-2.67 69 69 0 01-3.06-10.86 28.49 28.49 0 01-.53-5.51 8.92 8.92 0 011.46-5.28 4.19 4.19 0 012.3-1.54 6 6 0 012.73 0 16.79 16.79 0 014.87 2 44.49 44.49 0 014.28 2.89l2 1.52a3.23 3.23 0 001 .55.82.82 0 00.89-.3 2 2 0 00.33-1 4.4 4.4 0 00-.13-1.18c-.15-.81-.29-1.61-.44-2.41-.3-1.6-.59-3.19-.88-4.75-.57-3.14-1.14-6.2-1.69-9.19s-1.32-5.89-1.15-8.84a8.49 8.49 0 011.18-4.15 5.08 5.08 0 013.49-2.3 3.79 3.79 0 012.05.41 8.23 8.23 0 011.71 1.11 31.59 31.59 0 012.8 2.74q.64.7 1.32 1.35a3.17 3.17 0 001.5.89 2 2 0 001.57-.51 4.79 4.79 0 001.08-1.34 180 180 0 015.72-17.65c1.9-5.05 3.54-9.4 5.63-12.54a16.63 16.63 0 013.26-3.74 7.88 7.88 0 013.21-1.6 4.79 4.79 0 012.2 0 2.59 2.59 0 01.84.25z" fill="#263238"/><path d="M422.08 189.45a1.2 1.2 0 01-.1.33l-.34.94c-.33.85-.79 2.06-1.37 3.59-1.22 3.15-2.95 7.66-5.09 13.21l-16.61 43.64c-6.46 17-12.38 32.47-16.76 43.59-2.18 5.56-4 10.05-5.24 13.15a538.4 538.4 0 01-1.46 3.55c-.17.39-.29.69-.39.93l-.15.3a1.2 1.2 0 01.1-.32c.08-.24.2-.55.34-.94.33-.86.79-2.06 1.37-3.6 1.22-3.15 2.95-7.65 5.09-13.2L398.08 251c6.46-17.05 12.37-32.46 16.76-43.58 2.18-5.56 4-10.06 5.24-13.15.62-1.52 1.11-2.72 1.46-3.56.17-.38.29-.69.39-.92z" fill="#263238"/><path d="M422.62 224a17.3 17.3 0 01-2.5 1.49l-6.12 3.4c-2.4 1.33-4.58 2.52-6.19 3.33a13.71 13.71 0 01-2.67 1.16 20.33 20.33 0 012.5-1.49l6.1-3.45c2.4-1.33 4.59-2.49 6.21-3.28a15.24 15.24 0 012.67-1.16zM404.33 232.74c-.13.06-2.51-4.48-5.31-10.14s-5-10.3-4.85-10.37 2.51 4.48 5.32 10.14 4.97 10.3 4.84 10.37zM395.59 259.37a14.7 14.7 0 01-2.2-2c-1.3-1.3-3-3.15-4.85-5.29s-3.35-4.16-4.41-5.66a14.11 14.11 0 01-1.61-2.5 20.81 20.81 0 011.9 2.28c1.14 1.44 2.71 3.41 4.52 5.54s3.49 4 4.71 5.37a19.79 19.79 0 011.94 2.26zM413.88 255.07a14.81 14.81 0 01-2.64.78c-1.64.41-3.92.94-6.44 1.5s-4.82 1-6.48 1.36a14.16 14.16 0 01-2.72.41 14.73 14.73 0 012.64-.77c1.64-.41 3.92-1 6.45-1.51s4.81-1 6.47-1.35a14.92 14.92 0 012.72-.42zM409.15 279.57a24.56 24.56 0 01-3.4.91c-2.12.49-5 1.14-8.28 1.82s-6.19 1.28-8.32 1.68a22.77 22.77 0 01-3.47.55 23.53 23.53 0 013.4-.91c2.11-.49 5-1.14 8.28-1.82s6.18-1.28 8.31-1.68a22.78 22.78 0 013.48-.55zM386.2 284.25a3.89 3.89 0 01-.75-.68c-.46-.46-1.1-1.14-1.89-2-1.57-1.72-3.68-4.15-5.9-6.92s-4.13-5.37-5.46-7.28c-.67-.95-1.19-1.73-1.54-2.28a3.56 3.56 0 01-.5-.89 4.16 4.16 0 01.66.77l1.68 2.19c1.4 1.85 3.35 4.4 5.57 7.16s4.27 5.23 5.77 7a28.59 28.59 0 012.36 2.93z" fill="#263238"/><path d="M376.2 351.24c-17.36-14-19.88-37.93-17.7-59.14.37-3.54.23-7.31 2.13-10.31s6-4.85 9.07-3.14c2.55 1.42 3.48 4.57 4.78 7.2a20.84 20.84 0 007.78 8.52c2.18 1.33 4.93 2.24 7.24 1.16 3.18-1.48 3.83-5.68 4.05-9.21l1.23-19.74c.22-3.54.46-7.14 1.79-10.41s4-6.22 7.39-6.94 7.44 1.52 7.91 5a32.48 32.48 0 01-.2 4.4c0 1.47.57 3.14 1.93 3.64s2.86-.39 4-1.35c3.89-3.31 6.67-7.73 9.3-12.14s5.18-8.93 8.76-12.59 8.35-6.43 13.43-6.37 10.24 3.55 11.18 8.6-2.31 9.92-5.75 13.73A78.93 78.93 0 01437 266.68a6.48 6.48 0 00-3 2.76c-.93 2.3 1.14 4.79 3.41 5.73 2.57 1.05 5.45 1 8.18 1.49s5.63 1.93 6.49 4.6c1.2 3.71-2.08 7.28-5.22 9.56A67.75 67.75 0 01426.19 301c-2.67.77-5.46 1.41-7.68 3.09s-3.7 4.77-2.6 7.34 4.29 3.6 7 3.28 5.29-1.63 7.95-2.43c5-1.5 11.22-.73 14 3.67 1.85 2.9 1.77 6.75.51 10a25.88 25.88 0 01-5.95 8.36 68 68 0 01-30.38 18.38c-11.52 3.13-22 3.47-32.92-1.39" fill="#346dfb"/><path d="M376.2 351.24c-17.36-14-19.88-37.93-17.7-59.14.37-3.54.23-7.31 2.13-10.31s6-4.85 9.07-3.14c2.55 1.42 3.48 4.57 4.78 7.2a20.84 20.84 0 007.78 8.52c2.18 1.33 4.93 2.24 7.24 1.16 3.18-1.48 3.83-5.68 4.05-9.21l1.23-19.74c.22-3.54.46-7.14 1.79-10.41s4-6.22 7.39-6.94 7.44 1.52 7.91 5a32.48 32.48 0 01-.2 4.4c0 1.47.57 3.14 1.93 3.64s2.86-.39 4-1.35c3.89-3.31 6.67-7.73 9.3-12.14s5.18-8.93 8.76-12.59 8.35-6.43 13.43-6.37 10.24 3.55 11.18 8.6-2.31 9.92-5.75 13.73A78.93 78.93 0 01437 266.68a6.48 6.48 0 00-3 2.76c-.93 2.3 1.14 4.79 3.41 5.73 2.57 1.05 5.45 1 8.18 1.49s5.63 1.93 6.49 4.6c1.2 3.71-2.08 7.28-5.22 9.56A67.75 67.75 0 01426.19 301c-2.67.77-5.46 1.41-7.68 3.09s-3.7 4.77-2.6 7.34 4.29 3.6 7 3.28 5.29-1.63 7.95-2.43c5-1.5 11.22-.73 14 3.67 1.85 2.9 1.77 6.75.51 10a25.88 25.88 0 01-5.95 8.36 68 68 0 01-30.38 18.38c-11.52 3.13-22 3.47-32.92-1.39" opacity=".1"/><path d="M374.84 367a155.74 155.74 0 017.76-28.69 317.86 317.86 0 0114.89-33.19l4.35-8.5c1.44-2.79 2.86-5.55 4.42-8.17a160.42 160.42 0 019.81-14.52c3.35-4.47 6.68-8.59 9.83-12.42s6.17-7.33 9.05-10.41a126.36 126.36 0 0114.66-13.51c1.85-1.45 3.32-2.53 4.33-3.25l1.15-.81a3.21 3.21 0 01.4-.26 1.71 1.71 0 01-.36.31l-1.11.87c-1 .75-2.43 1.86-4.25 3.35a132.45 132.45 0 00-14.48 13.62c-2.85 3.09-5.84 6.61-9 10.44s-6.45 8-9.77 12.44a156.66 156.66 0 00-9.74 14.48c-1.55 2.61-3 5.35-4.39 8.14l-4.35 8.5a327.48 327.48 0 00-14.91 33.1 159 159 0 00-7.87 28.56" fill="#263238"/><path d="M406.45 288.42a6.85 6.85 0 01-.25-1.53c-.11-1-.24-2.42-.37-4.2-.25-3.54-.44-8.46-.63-13.87s-.45-10.32-.76-13.86c-.15-1.76-.28-3.19-.39-4.18a6.71 6.71 0 01-.09-1.55 7.85 7.85 0 01.34 1.51c.18 1 .39 2.41.6 4.18.43 3.53.76 8.44 1 13.87s.33 10.18.44 13.88c.07 1.67.12 3.07.17 4.2a8.1 8.1 0 01-.06 1.55zM452.41 283.05a9.14 9.14 0 01-1.83.1c-1.17 0-2.86 0-5 .14-4.18.17-10 .59-16.31 1.35s-12.07 1.69-16.19 2.49c-2.06.38-3.72.74-4.87 1a10.39 10.39 0 01-1.8.31 10.38 10.38 0 011.74-.56c1.13-.32 2.78-.74 4.84-1.19 4.1-.91 9.83-1.92 16.2-2.69a160 160 0 0116.38-1.15c2.1 0 3.8 0 5 .06a10.41 10.41 0 011.84.14zM383.22 337.49a2.06 2.06 0 01-.27-.57l-.67-1.7c-.57-1.47-1.34-3.63-2.25-6.3-1.83-5.35-4.13-12.82-6.56-21.09s-4.65-15.76-6.37-21.14c-.84-2.62-1.54-4.77-2.05-6.37l-.55-1.73a2.35 2.35 0 01-.15-.62 2.5 2.5 0 01.27.57c.18.46.4 1 .66 1.7.57 1.47 1.34 3.63 2.26 6.3 1.83 5.35 4.13 12.82 6.55 21.1s4.66 15.75 6.38 21.13c.84 2.62 1.53 4.77 2 6.37l.55 1.73a2.35 2.35 0 01.2.62z" fill="#263238"/><path d="M444.86 322.19a2 2 0 01-.62.21l-1.79.47-6.6 1.65c-5.58 1.39-13.25 3.4-21.73 5.64s-16.18 4.18-21.79 5.46c-2.8.64-5.07 1.14-6.65 1.45l-1.82.35a2.36 2.36 0 01-.64.07 2.49 2.49 0 01.61-.2l1.8-.47 6.6-1.65c5.57-1.39 13.25-3.41 21.73-5.65s16.18-4.18 21.78-5.46c2.8-.64 5.08-1.13 6.65-1.44l1.82-.35a2.82 2.82 0 01.65-.08z" fill="#263238"/></g><g><path fill="#455a64" d="M137.73 75.19h242.51v332.3H137.73z"/><path fill="#e0e0e0" d="M370.65 387.73H157.93V88.62h212.72V387.73z"/><path fill="#ebebeb" d="M367.29 382.18H156.48V84.67h210.81v297.51z"/><path fill="#fafafa" d="M344.64 359.03l-24.28 19.77H152.55V85.42h212.72V342.3l-20.63 16.73z"/><path d="M344.64 359s.43-.37 1.3-1.08l3.89-3.18 15.39-12.53v.06c0-42.2-.08-136-.15-256.88l.23.24H152.58l.26-.26c0 110.3 0 212.05-.06 293.38l-.2-.21 167.81.12h-.06l18.24-14.79 4.57-3.69c1-.82 1.53-1.22 1.53-1.22l-1.5 1.25-4.57 3.79-18.18 14.86-167.87.14h-.21v-.21c0-81.33 0-183.08-.05-293.38v-.26H365.51v.23c-.07 120.92-.13 214.68-.15 256.88l-15.45 12.47L346 358z" fill="#263238"/><path d="M230.21 64.92h58.15a14.15 14.15 0 0114.15 14.15v15.69h-87.06V79.67a14.76 14.76 0 0114.76-14.75zM236.78 64.92l-3.18-16.1h50.13l-2.79 16.1h-44.16zM210.63 168H174.8v-35.84h35.83zm-34.83-1h33.83v-33.84H175.8z" fill="#346dfb"/><path d="M337.28 140.82c0 .14-24.95.26-55.71.26s-55.72-.12-55.72-.26 24.94-.26 55.72-.26 55.71.11 55.71.26zM337.28 148.26c0 .15-24.95.26-55.71.26s-55.72-.11-55.72-.26 24.94-.26 55.72-.26 55.71.12 55.71.26zM337.28 155.71c0 .14-24.95.26-55.71.26s-55.72-.12-55.72-.26 24.94-.26 55.72-.26 55.71.12 55.71.26zM337.28 163.16c0 .14-24.95.26-55.71.26s-55.72-.12-55.72-.26 24.94-.26 55.72-.26 55.71.1 55.71.26z" fill="#263238"/><path d="M210.63 223.23H174.8v-35.84h35.83zm-34.83-1h33.83v-33.84H175.8z" fill="#346dfb"/><path fill="#346dfb" d="M181.92 206.05l4.76-5.11 7.93 6.34 18.15-17.62 4.35 5.13-22.85 22.54-12.34-11.28z"/><path d="M337.28 196.05c0 .14-24.95.26-55.71.26s-55.72-.12-55.72-.26 24.94-.26 55.72-.26 55.71.12 55.71.26zM337.28 203.5c0 .14-24.95.26-55.71.26s-55.72-.12-55.72-.26 24.94-.26 55.72-.26 55.71.11 55.71.26zM337.28 210.94c0 .15-24.95.26-55.71.26s-55.72-.11-55.72-.26 24.94-.26 55.72-.26 55.71.12 55.71.26zM337.28 218.39c0 .14-24.95.26-55.71.26s-55.72-.12-55.72-.26 24.94-.26 55.72-.26 55.71.12 55.71.26z" fill="#263238"/><path d="M210.63 276.68H174.8v-35.84h35.83zm-34.83-1h33.83v-33.84H175.8z" fill="#346dfb"/><path fill="#346dfb" d="M181.92 259.5l4.76-5.11 7.93 6.34 18.15-17.62 4.35 5.13-22.85 22.54-12.34-11.28z"/><path d="M337.28 249.5c0 .14-24.95.26-55.71.26s-55.72-.12-55.72-.26 24.94-.26 55.72-.26 55.71.11 55.71.26zM337.28 256.94c0 .15-24.95.26-55.71.26s-55.72-.11-55.72-.26 24.94-.26 55.72-.26 55.71.12 55.71.26zM337.28 264.39c0 .15-24.95.26-55.71.26s-55.72-.11-55.72-.26 24.94-.26 55.72-.26 55.71.12 55.71.26zM337.28 271.84c0 .14-24.95.26-55.71.26s-55.72-.12-55.72-.26 24.94-.26 55.72-.26 55.71.12 55.71.26z" fill="#263238"/><path d="M210.63 328.29H174.8v-35.84h35.83zm-34.83-1h33.83v-33.84H175.8z" fill="#346dfb"/><path fill="#346dfb" d="M181.92 311.11l4.76-5.11 7.93 6.34 18.15-17.62 4.35 5.12-22.85 22.54-12.34-11.27z"/><path d="M337.28 301.1c0 .15-24.95.26-55.71.26s-55.72-.11-55.72-.26 24.94-.26 55.72-.26 55.71.16 55.71.26zM337.28 308.55c0 .14-24.95.26-55.71.26s-55.72-.12-55.72-.26 24.94-.26 55.72-.26 55.71.12 55.71.26zM337.28 316c0 .14-24.95.26-55.71.26s-55.72-.12-55.72-.26 24.94-.26 55.72-.26 55.71.11 55.71.26zM337.28 323.44c0 .15-24.95.26-55.71.26s-55.72-.11-55.72-.26 24.94-.26 55.72-.26 55.71.12 55.71.26z" fill="#263238"/><path fill="#e0e0e0" d="M327.03 330.23l-23.32 48.3h16.65l6.67-48.3z"/><path fill="#fafafa" d="M320.36 378.8l6.67-48.3 38.24 11.8-44.91 36.5z"/><path d="M320.36 378.8l12.86-10.59 31.89-26.11.09.44-14.77-4.54-23.43-7.27.31-.2c-2 14-3.71 26.05-4.92 34.59-1.21 8.31-1.83 12.6-2 13.68a2.1 2.1 0 010-.22l.09-.66c.08-.63.19-1.51.34-2.63.31-2.35.75-5.72 1.31-10 1.16-8.61 2.78-20.72 4.67-34.87v-.28l.27.08 23.49 7.24 14.76 4.56.46.14-.37.3c-12.91 10.41-24.2 19.51-32.28 26l-9.43 7.57-2.52 2-.64.51z" fill="#263238"/><path d="M280.26 48.82l-2.76 16.1h3.44l2.79-16.1h-4.39" opacity=".3"/></g><g><path d="M133.43 218.62a9 9 0 009.67-8.62c.19-4.9.36-9.85.36-9.85s7.42-.69 8-8 .29-24.29.29-24.29a25.57 25.57 0 00-25.86 1.66l.45 25.84v13.91c.01 4.62 2.44 9 7.09 9.35z" fill="#ffbe9d"/><path d="M144.1 183.15a3.77 3.77 0 00-5-1.1 4.27 4.27 0 00-1.42 5.34 5.6 5.6 0 003.6 2.72 2.82 2.82 0 012.21 3 9.4 9.4 0 01-2.58 5.11 13.54 13.54 0 01-8.5 4c-3.13.37-6.71-.28-8.53-2.85-1.33-1.87-1.42-4.32-1.47-6.61l-.34-16.24a23.68 23.68 0 01.37-5.83 7.84 7.84 0 013.08-4.82c1.79-1.18 4.05-1.28 6.08-1.93 2.55-.83 4.71-2.51 7.09-3.73s5.29-1.95 7.68-.75c1.72.86 2.87 2.57 4.53 3.52 2.38 1.35 5.61 1 6.76 4.54a5.88 5.88 0 010 3.73c-1.61 4.75-7.49 6.67-11.73 4.62-.08.8.71 2.59-.14 5.13-.27.82-.36 2.05-1.63 2.08" fill="#263238"/><path d="M123.83 168a25 25 0 002.36-7.38 8.46 8.46 0 00-2.31-7.13 7 7 0 00-4.84-1.71 8.18 8.18 0 00-7.38 5.85 8.8 8.8 0 003 9 9.57 9.57 0 009.52 1.24" fill="#263238"/><path d="M125.27 165.35a3.62 3.62 0 01-3.48 3.4c0-.15 1.08-.44 2-1.4s1.34-2.04 1.48-2z" fill="#346dfb"/><path d="M122.86 167.15a6.84 6.84 0 01-2 1.45 5.75 5.75 0 01-2.62.75 3.67 3.67 0 01-3.07-1.38 4.05 4.05 0 01-.54-3.32 6.44 6.44 0 011.23-2.43 7.46 7.46 0 011.74-1.75 23.73 23.73 0 01-1.44 2 6.55 6.55 0 00-1.06 2.32 3.66 3.66 0 00.49 2.91 3.28 3.28 0 002.65 1.2 5.72 5.72 0 002.46-.6c1.3-.67 2.11-1.23 2.16-1.15z" fill="#263238"/><path d="M110.38 175.44a3.46 3.46 0 01.35.81 8.15 8.15 0 001.09 2.1 3 3 0 002.87 1.32 4 4 0 002.77-2.79 28.06 28.06 0 00.75-4.26 6.61 6.61 0 011.4-3.37 3.72 3.72 0 012.14-1.22 1.4 1.4 0 01.9.08s-.33 0-.86.12a3.67 3.67 0 00-1.9 1.26 6.51 6.51 0 00-1.21 3.2 25.25 25.25 0 01-.73 4.36 4.38 4.38 0 01-3.17 3.09 3 3 0 01-2-.38 4.13 4.13 0 01-1.26-1.19 7.29 7.29 0 01-1-2.25 2.34 2.34 0 01-.14-.88z" fill="#263238"/><path d="M106.77 237.13s-3.75 27.42 0 30.9 7.34 2.32 7.34 2.32l7.13-6 1.4-27.26z" fill="#ffbe9d"/><path fill="#346dfb" d="M184.22 160.16l4.76-5.11 7.93 6.34 18.15-17.62 4.35 5.13-22.85 22.54-12.34-11.28z"/><path d="M206.58 161.55l-6.9 4.43c-.31-2.73-2.39-5.43-2.29-4.06s0 8.48 0 8.48l-12.29 25.89c-1.67 4.1-5.06 6.68-7.59 7.29L166 207l4.49 15.19 16-5.3a13.77 13.77 0 008.75-8.77l11-33.52A52.09 52.09 0 00208 168c.48-2.81-1.42-6.45-1.42-6.45z" fill="#ffbe9d"/><path d="M150.05 444.72l-.18-7.67-14.38.23.13 11.23.9.05c4 .15 20.21.51 22.85-.33 2.94-.95-9.32-3.51-9.32-3.51z" fill="#346dfb"/><path d="M140.84 448.32a5 5 0 00-1.89-3 4.83 4.83 0 00-3.38-1l.06 4z" fill="#fff" opacity=".5"/><path d="M156 446.19s4.3 1.16 3.78 1.88-16.94 1-24.2.44v-.32l19.16-.13s.47-1.82 1.26-1.87z" fill="#fff" opacity=".4"/><path d="M135.41 448.18h.96l2.62.07c2.21.05 5.26.07 8.63 0s6.43-.16 8.63-.27l2.62-.15.71-.05h.24-.96l-2.61.1c-2.21.07-5.26.17-8.63.22s-6.42 0-8.63 0h-3.61z" fill="#263238"/><path d="M154.8 448.28a5.37 5.37 0 01.47-1.25 5.94 5.94 0 01.87-1 2.34 2.34 0 00-1.34 2.27zM150.52 446.19s.24-.22.45-.55.33-.63.29-.65-.24.22-.44.55-.34.63-.3.65zM149.35 445.6s.25-.12.5-.35.41-.44.38-.47-.26.12-.5.34-.42.44-.38.48zM148.59 444.25a1.57 1.57 0 00.75.08 1.62 1.62 0 00.75-.09 1.89 1.89 0 00-.75-.08 1.65 1.65 0 00-.75.09zM148.32 443.3a1.56 1.56 0 00.84.23 1.53 1.53 0 00.87-.13 4.47 4.47 0 00-.86 0 4.66 4.66 0 00-.85-.1z" fill="#263238"/><path d="M151 444.93a2.55 2.55 0 00.92 0 5.45 5.45 0 001-.23 3 3 0 00.56-.24.46.46 0 00.23-.29.38.38 0 00-.15-.37 1.71 1.71 0 00-2.09.53 1.84 1.84 0 00-.29.62.6.6 0 000 .25 2.93 2.93 0 01.41-.79 1.74 1.74 0 01.78-.53 1.47 1.47 0 011.11.06c.14.11.09.28-.07.38a3 3 0 01-.52.23 6.58 6.58 0 01-1 .26c-.55.09-.89.09-.89.12z" fill="#263238"/><path d="M151.23 445a.89.89 0 00.1-.64 1.6 1.6 0 00-.27-.67.93.93 0 00-.77-.46.36.36 0 00-.28.43 1 1 0 00.16.41 2.37 2.37 0 00.45.55 1.3 1.3 0 00.53.37s-.18-.16-.44-.45a3.74 3.74 0 01-.4-.55c-.13-.19-.22-.54 0-.59s.47.2.61.38a1.61 1.61 0 01.28.6 3.65 3.65 0 01.03.62zM135.65 444.24h1.06a4.51 4.51 0 013.81 2.94c.23.61.26 1 .29 1a.72.72 0 000-.29 4.24 4.24 0 00-.17-.77 4.39 4.39 0 00-3.92-3 3.57 3.57 0 00-.79 0 .77.77 0 00-.28.12z" fill="#263238"/><path d="M137.05 438.24a23.13 23.13 0 00-.08 2.95 24.27 24.27 0 00.09 3 23.35 23.35 0 00.08-3 26.86 26.86 0 00-.09-2.95zM142.62 446.89a8.66 8.66 0 002.11.17 7.7 7.7 0 002.1-.2c0-.05-1 0-2.1 0s-2.1-.02-2.11.03zM139.81 446.92l.17.42c.09.22.16.4.21.4s.07-.23-.05-.48-.3-.37-.33-.34zM138.72 445.62s.06.18.22.33.3.24.33.21-.06-.19-.21-.33-.3-.25-.34-.21zM137.19 445s.21 0 .42.11.36.18.4.15-.08-.23-.35-.31-.48.05-.47.05zM136.11 444.77s.06.12.18.16.23.05.25 0-.07-.12-.19-.16-.23-.05-.24 0z" fill="#263238"/><path d="M99.29 442.27l4.88-5.93-11.06-9.21-7.22 8.6.64.62c2.91 2.71 15 13.57 17.54 14.65 2.85 1.21-4.78-8.73-4.78-8.73z" fill="#346dfb"/><path d="M90 439a5 5 0 00.55-3.53 4.82 4.82 0 00-1.92-2.95L86 435.59z" fill="#fff" opacity=".5"/><path d="M102.88 447.29s2.5 3.69 1.64 3.89S91 440.86 85.89 435.73l.22-.23 14.61 12.4s1.49-1.12 2.16-.61z" fill="#fff" opacity=".4"/><path d="M85.94 435.35l.17.18.52.49 1.94 1.76c1.64 1.47 3.94 3.48 6.53 5.64s5 4.07 6.72 5.43l2.08 1.59.57.42.21.14-.19-.17-.55-.45-2-1.63c-1.73-1.38-4.1-3.3-6.69-5.46s-4.9-4.15-6.56-5.6l-2-1.72-.54-.47z" fill="#263238"/><path d="M100.57 448.07a5.36 5.36 0 011.18-.65 6.82 6.82 0 011.32-.2 2 2 0 00-1.38 0 2 2 0 00-1.12.85zM98.69 443.69c0 .05.33 0 .7-.13s.67-.25.65-.3-.33 0-.7.13a1.68 1.68 0 00-.65.3zM98.19 442.47s.27.08.61.07.6-.06.6-.11-.28-.08-.61-.07a1.34 1.34 0 00-.6.11zM98.49 441s.2.28.52.55a2 2 0 00.63.43s-.2-.29-.52-.56-.59-.5-.63-.42zM98.91 440.06a2.08 2.08 0 001.23 1.19 6.6 6.6 0 00-.62-.59c-.33-.32-.52-.66-.61-.6z" fill="#263238"/><path d="M99.87 443a2.52 2.52 0 00.71.59 5 5 0 00.9.46 2.82 2.82 0 00.58.19.49.49 0 00.36-.08.36.36 0 00.13-.37 1.7 1.7 0 00-1.93-1 1.55 1.55 0 00-.63.28.67.67 0 00-.18.17 2.67 2.67 0 01.83-.33 1.67 1.67 0 01.94.11 1.45 1.45 0 01.8.76c0 .18-.11.28-.3.25a3.38 3.38 0 01-.54-.17 5.75 5.75 0 01-.89-.42c-.49-.19-.76-.44-.78-.44z" fill="#263238"/><path d="M100 443.23s.26-.08.5-.42a1.66 1.66 0 00.24-.68 1 1 0 00-.29-.86.37.37 0 00-.5.15 1 1 0 00-.14.41 2.89 2.89 0 000 .71 1.32 1.32 0 00.16.63v-.63a3.42 3.42 0 01.06-.68c0-.23.18-.55.39-.44s.22.46.22.69a1.56 1.56 0 01-.19.63 3 3 0 01-.45.49zM88.69 432.52s.34.23.79.7a4.66 4.66 0 011.17 2.22 4.61 4.61 0 01-.2 2.5c-.23.62-.48.95-.45 1a.94.94 0 00.19-.23 3.46 3.46 0 00.37-.69 4.37 4.37 0 00.26-2.58 4.42 4.42 0 00-1.25-2.27 3.78 3.78 0 00-.62-.49.8.8 0 00-.26-.16zM93.67 428.87a24.46 24.46 0 00-2 2.19 28 28 0 00-1.86 2.3 22 22 0 002-2.18 29 29 0 001.86-2.31zM92.25 439.07a8.27 8.27 0 001.48 1.5 7.88 7.88 0 001.73 1.22s-.73-.6-1.61-1.35-1.56-1.44-1.6-1.37z" fill="#263238"/><path d="M90.09 437.26s-.07.2-.13.43-.15.4-.11.43.2-.12.28-.39.01-.48-.04-.47zM90.12 435.56c-.05 0-.07.18-.05.39s.07.38.12.38.07-.18 0-.39-.02-.38-.07-.38zM89.34 434.12c0 .05.13.17.24.36s.16.38.21.38.08-.23-.06-.47-.37-.31-.39-.27zM88.69 433.21v.25c0 .11.15.18.19.16s0-.14 0-.25-.15-.18-.19-.16zM129.22 281.59s-4.79 20.26-3.43 24.27 10.13 6.32 10.13 6.32l-.3 55.49-48.52 60 17.9 14.64s52.54-60.09 57.17-71-3-90.65-3-90.65z" fill="#263238"/><path d="M154 273.33l2.37 168.52-24.67.15-12.39-137.28c-2.62-2.5-6.31-6.78-5.8-16.33l.6-11.09z" fill="#263238"/><path d="M128 377.05a1.15 1.15 0 01.14-.25c.13-.18.28-.41.47-.69l1.83-2.59 6.7-9.28v.13c-.54-5.85-1.19-12.94-1.89-20.59-.9-10-1.62-19.1-2.05-25.69-.22-3.29-.36-5.95-.44-7.79 0-.88-.06-1.59-.07-2.13a3 3 0 010-.74 5 5 0 01.09.74c0 .53.1 1.24.17 2.12.15 1.89.35 4.53.61 7.78.52 6.57 1.3 15.64 2.2 25.66.67 7.68 1.35 14.76 1.8 20.64v.13l-6.85 9.16-1.93 2.53-.52.65c-.21.16-.26.22-.26.21zM135.56 307.43a33.6 33.6 0 01-6.54-1 33.55 33.55 0 01-6.38-1.74 55.23 55.23 0 016.49 1.23 57.82 57.82 0 016.43 1.51zM152.46 365a25.07 25.07 0 00-6.66-1.74 25.14 25.14 0 00-6.86.67 5.44 5.44 0 011.92-.75 15.06 15.06 0 015-.44 15.21 15.21 0 014.84 1.21 5.75 5.75 0 011.76 1.05zM161.17 372.78c.11.09-6.83 9.41-15.51 20.81s-15.81 20.59-15.92 20.51 6.83-9.41 15.51-20.82 15.81-20.59 15.92-20.5zM157.83 285.84a4.24 4.24 0 01-1.39 1.84 6.89 6.89 0 01-10.06-1.06 4.06 4.06 0 01-1-2.09 19.87 19.87 0 001.26 1.85 6.85 6.85 0 009.55 1 21.49 21.49 0 001.64-1.54z" fill="#455a64"/><path d="M124.1 199.13a21.52 21.52 0 01-1.17-30" fill="#263238"/><path d="M110.23 214.85s-5.36 6.06-6.47 29.23c0 0 15.27 2.9 15.55 2.07s-9.08-31.3-9.08-31.3z" fill="#346dfb"/><path d="M110.23 214.85s-5.36 6.06-6.47 29.23c0 0 15.27 2.9 15.55 2.07s-9.08-31.3-9.08-31.3z" opacity=".3"/><path d="M112.71 282.34h46.89l-.76-7.33s-5.36-27.86-5.32-28.23l.84-1.77a17.67 17.67 0 00.21-14.75l23-7.85-5.62-18.94c-10.42 1.75-26.17 3.72-26.17 3.72l-2.34.19s-16.26.85-16.61.89c-6.8.83-14.71 1.35-17.6 8.63-1.55 3.89-.08 9.73 2.45 15.75l6 18.5c2.4 10.17-1.43 9.68-3.54 19.92-.34 1.54-1.46 9.85-1.43 11.27z" fill="#346dfb"/><path d="M112.71 282.34h46.89l-.76-7.33s-5.36-27.86-5.32-28.23l.84-1.77a17.67 17.67 0 00.21-14.75l23-7.85-5.62-18.94c-10.42 1.75-26.17 3.72-26.17 3.72l-2.34.19s-16.26.85-16.61.89c-6.8.83-14.71 1.35-17.6 8.63-1.55 3.89-.08 9.73 2.45 15.75l6 18.5c2.4 10.17-1.43 9.68-3.54 19.92-.34 1.54-1.46 9.85-1.43 11.27z" opacity=".3"/><path d="M177.31 222.72a5.12 5.12 0 01-1 .43c-.66.24-1.63.57-2.83 1-2.4.81-5.74 1.88-9.42 3.06s-7 2.35-9.3 3.31c-1.18.48-2.11.9-2.76 1.18a4.31 4.31 0 01-1 .4 5 5 0 01.94-.59c.63-.33 1.54-.81 2.7-1.33a91.07 91.07 0 019.29-3.46c3.69-1.18 7-2.2 9.47-2.92 1.21-.36 2.2-.64 2.88-.83a4.26 4.26 0 011.03-.25z" fill="#263238"/><path d="M174.59 212.63c0 .14-13.87.26-31 .26s-31-.12-31-.26 13.86-.26 31-.26 31 .12 31 .26zM176 221.84c0 .14-15.43.26-34.46.26s-34.45-.12-34.45-.26 15.42-.26 34.45-.26 34.46.12 34.46.26zM111 232.32a8.31 8.31 0 01-2.88.26 8.27 8.27 0 01-2.87-.26 8.27 8.27 0 012.87-.26 8.31 8.31 0 012.88.26zM156 232.64c0 .14-10.09.26-22.53.26s-22.53-.12-22.53-.26 10.08-.26 22.53-.26 22.53.11 22.53.26zM155 243.43c0 .15-9.06.26-20.22.26s-20.23-.11-20.23-.26 9.05-.26 20.23-.26 20.22.12 20.22.26zM154.72 253.44c0 .14-8.2.26-18.32.26s-18.34-.12-18.34-.26 8.21-.26 18.34-.26 18.32.11 18.32.26zM156.33 261.53c0 .15-8.78.26-19.61.26s-19.61-.11-19.61-.26 8.78-.26 19.61-.26 19.61.12 19.61.26zM158.87 271.85c0 .15-10 .26-22.31.26s-22.31-.11-22.31-.26 10-.26 22.31-.26 22.31.12 22.31.26z" fill="#fafafa"/><path d="M117.37 250.28a3.14 3.14 0 01-.42-.92l-1-2.56c-.83-2.16-2-5.14-3.2-8.47s-2.21-6.37-2.84-8.6c-.31-1.12-.55-2-.68-2.66a4.27 4.27 0 01-.17-1 35.23 35.23 0 011.2 3.55c.72 2.2 1.77 5.22 3 8.54s2.31 6.32 3 8.52c.37 1.1.65 2 .83 2.62a4 4 0 01.28.98z" fill="#263238"/></g></svg>