<svg xmlns="http://www.w3.org/2000/svg" viewBox="0 0 500 500"><path fill="#ebebeb" d="M0 382.4h500v.25H0zM416.78 398.49h33.12v.25h-33.12zM292.75 398.62h8.69v.25h-8.69zM354.33 389.21h61.44v.25h-61.44zM212.45 395.11h12.69v.25h-12.69zM166.72 395.11h36.83v.25h-36.83zM52.46 390.89h25.43v.25H52.46zM83.89 390.89h74.89v.25H83.89zM237 337.8H43.91a5.71 5.71 0 01-5.7-5.71V60.66a5.71 5.71 0 015.7-5.66H237a5.71 5.71 0 015.71 5.71v271.38a5.71 5.71 0 01-5.71 5.71zM43.91 55.2a5.46 5.46 0 00-5.45 5.46v271.43a5.46 5.46 0 005.45 5.46H237a5.47 5.47 0 005.46-5.46V60.66A5.47 5.47 0 00237 55.2zM453.31 337.8h-193.1a5.72 5.72 0 01-5.71-5.71V60.66a5.72 5.72 0 015.71-5.66h193.1a5.71 5.71 0 015.69 5.66v271.43a5.71 5.71 0 01-5.69 5.71zM260.21 55.2a5.47 5.47 0 00-5.46 5.46v271.43a5.47 5.47 0 005.46 5.46h193.1a5.47 5.47 0 005.46-5.46V60.66a5.47 5.47 0 00-5.46-5.46z"/><path fill="#f0f0f0" d="M116.98 122h1.49v260.4h-1.49z"/><path fill="#f5f5f5" d="M118.47 122h264.56v260.4H118.47z"/><path fill="#fafafa" d="M244.9 127.91V382.4H130.23V127.91z"/><path fill="#fff" d="M146.23 382.4l36.78-254.49h9.77L156 382.4h-9.77zM161.96 382.4l36.79-254.49h21.89L183.86 382.4h-21.9z"/><path fill="#fafafa" d="M371.26 127.91V382.4H256.59V127.91z"/><path fill="#fff" d="M275.28 382.4l36.79-254.49h22.12L297.41 382.4h-22.13zM303.37 382.4l36.79-254.49h21.89L325.27 382.4h-21.9z"/><path fill="#e6e6e6" d="M51.63 130h49.36v85.66H51.63z"/><path fill="#f5f5f5" d="M54.65 130h49.36v85.66H54.65z"/><path fill="#fafafa" d="M98.6 136.07v73.5H60.07v-73.5z"/><path fill="#fff" d="M70.14 209.58l11.61-73.5h6.76l-11.61 73.5h-6.76z"/><path fill="#e6e6e6" d="M98.59 136.08v73.5h-2.28v-73.5z"/><path fill="#f5f5f5" d="M56.88 187.58h44.88v8.16H56.88z"/><path fill="#e6e6e6" d="M395.99 130h49.36v85.66h-49.36z"/><path fill="#f5f5f5" d="M399.01 130h49.36v85.66h-49.36z"/><path fill="#fafafa" d="M442.96 136.08v73.5h-38.53v-73.5z"/><path fill="#fff" d="M414.51 209.58l11.6-73.5h6.76l-11.6 73.5h-6.76z"/><path fill="#e6e6e6" d="M442.96 136.08v73.5h-2.28v-73.5z"/><path fill="#f5f5f5" d="M401.25 187.58h44.88v8.16h-44.88z"/><path fill="#ebebeb" d="M272.78 105.74l-.92 1.41h-44.64V80.33l45.56 25.41z"/><path fill="#fafafa" d="M228.94 105.74h43.84l-1.72-25.41h-43.84l1.72 25.41z"/><path fill="#ebebeb" d="M197.96 105.74l-.91 1.41h-44.64V80.33l45.55 25.41z"/><path fill="#fafafa" d="M154.13 105.74h43.83l-1.72-25.41h-43.83l1.72 25.41z"/><path fill="#ebebeb" d="M347.59 105.74l-.91 1.41h-44.64V80.33l45.55 25.41z"/><path fill="#fafafa" d="M303.76 105.74h43.83l-1.72-25.41h-43.83l1.72 25.41z"/><g><ellipse cx="250" cy="416.24" rx="193.89" ry="11.32" fill="#f5f5f5"/></g><g><path d="M90 229.32a2.79 2.79 0 00-2.78 2.78v184.14h5.56V232.1a2.79 2.79 0 00-2.78-2.78zM410 229.32a2.79 2.79 0 00-2.78 2.78v184.14h5.56V232.1a2.79 2.79 0 00-2.78-2.78z" fill="#263238"/><path d="M345.58 262.59c3.33 4.23-4.64 6.88-9.22 8.76-5.56 1.5-10.86-20.15-48.14-26.68 5.55-7.94 10.79-9.85 10.79-9.85 6.99-1.31 32.22 9.59 46.57 27.77z" fill="#5846f9"/><path d="M316.6 237c-2.11 3.82 33.51 24.86 19.76 34.33 0 0 15-3.06 16.45-12.55-.52-10.52-30.43-27.66-22.46-32.84" fill="#5846f9"/><path d="M316.6 237c-2.11 3.82 33.51 24.86 19.76 34.33 0 0 15-3.06 16.45-12.55-.52-10.52-30.43-27.66-22.46-32.84" opacity=".2"/><path d="M407.22 239.19c-10.86-6.76-51.66-15.82-76.87-13.23-8 1.69-13.75 11.06-13.75 11.06 33.17-.69 79.06 9.11 90.62 20.8zM155.93 240.52c-3.33-4.23 2.69-5.6 7.28-7.47 5.56-1.51 18.23 18.59 52.29 18.75-5.55 7.94-10.78 9.85-10.78 9.85-6.97 1.35-34.44-2.95-48.79-21.13z" fill="#5846f9"/><path d="M184.91 266.08c2.11-3.81-35.45-23.57-21.7-33 0 0-13.09 1.77-14.52 11.26.53 10.52 30.44 27.66 22.47 32.84" fill="#5846f9"/><path d="M184.91 266.08c2.11-3.81-35.45-23.57-21.7-33 0 0-13.09 1.77-14.52 11.26.53 10.52 30.44 27.66 22.47 32.84" opacity=".2"/><path d="M92.78 260.09c10.86 6.76 53.17 19.65 78.38 17.06 8-1.69 13.75-11.07 13.75-11.07-33.17.7-80.57-15.21-92.13-26.89z" fill="#5846f9"/></g><g><path fill="#ffc3bd" d="M277.59 402.69l7.58-2.09-2.82-18.11-7.58 2.09 2.82 18.11zM221.64 407.73h7.87l1.95-18.21h-7.86l-1.96 18.21z"/><path d="M230.15 406.82h-9.58a.69.69 0 00-.67.54l-1.56 7a1.16 1.16 0 001.15 1.4c3.09-.05 5.34-.24 9.22-.24 2.39 0 9.6.25 12.9.25s3.73-3.26 2.38-3.56c-6.06-1.32-10.62-3.15-12.56-4.89a1.9 1.9 0 00-1.28-.5zM284.87 399.74L276.6 402a.71.71 0 00-.51.7l.36 7.15a1.15 1.15 0 001.47 1.05c3-.88 7.23-2.24 11-3.28 4.39-1.2 8.24-2 13.39-3.43 3.11-.86 3.11-4.24 1.73-4.17-6.29.34-11.17 1.54-17.17-.21a3.64 3.64 0 00-2-.07z" fill="#263238"/><path d="M263.24 162c.38.36.93.85 1.42 1.28l1.54 1.33c1 .88 2.09 1.74 3.17 2.57a77.45 77.45 0 006.59 4.61 44.46 44.46 0 006.79 3.53 20.12 20.12 0 006.52 1.55h1.4c-.69.17-.66.33-.49.21a9.22 9.22 0 001.94-2 53.23 53.23 0 004.19-6.76c2.63-4.91 5.1-10.19 7.47-15.39l5.65 1.72a108.52 108.52 0 01-4.81 17.35 52.86 52.86 0 01-4.08 8.68 18.84 18.84 0 01-3.76 4.6 9.45 9.45 0 01-4.38 2.14 22.92 22.92 0 01-3 .31 29 29 0 01-10.6-1.69 49.78 49.78 0 01-8.95-4.12 70.46 70.46 0 01-7.86-5.28 93.4 93.4 0 01-3.63-2.95c-.59-.51-1.19-1-1.76-1.56s-1.12-1.05-1.78-1.71z" fill="#ffc3bd"/><path d="M250.19 168c1.11 7.43 23.66 18.07 23.66 18.07l9-15.48s-9-6-17.35-11c-5.65-3.3-16.5.31-15.31 8.41z" fill="#5846f9"/><path d="M250.19 168c1.11 7.43 23.66 18.07 23.66 18.07l9-15.48s-9-6-17.35-11c-5.65-3.3-16.5.31-15.31 8.41z" fill="#fff" opacity=".5"/><path d="M303.6 154.17l1.55-8.35 7.21 4.79a8.45 8.45 0 01-3.92 5.67z" fill="#ffc3bd"/><path fill="#ffc3bd" d="M306.66 140.31l6.33 4.45-.63 5.85-7.21-4.79 1.51-5.51z"/><path d="M304 125.18l1 12.82v.36l.54 7.08a1.7 1.7 0 00-1.31-.53c-1.18.09-2 1.63-1.89 3.43s1.21 3.21 2.39 3.12 2-1.63 1.88-3.44a3.55 3.55 0 00-.06-.47c-.14-1.28-.39-4.89.78-7.07a1.18 1.18 0 01.11-.19 3.15 3.15 0 011-1.07c-.33-4.31-1.44-11.83-4.44-14.04zm1.34 21a2.56 2.56 0 01.28.46 4 4 0 01.39 1.49 3.81 3.81 0 01-.37 2 1.09 1.09 0 01-2 .15 3.73 3.73 0 01-.68-1.95 3.69 3.69 0 01.38-2 1.34 1.34 0 011-.77 1.37 1.37 0 011.02.59z" fill="#5846f9"/><path d="M310.77 141.64a1.73 1.73 0 00-.34 1.37L295 129.75c0 3.71 5.42 9.06 8.72 11.89 2.7-1 6.64 2.36 7.82 3.44l.34.32c1.38 1.18 3.12 1.41 3.89.52s.27-2.59-1.1-3.77-3.13-1.41-3.9-.51zm4.67 2.67a1.36 1.36 0 01-.14 1.22 1.31 1.31 0 01-1.18.31 3.72 3.72 0 01-1.86-.89 4 4 0 01-1-1.2 2.75 2.75 0 01-.21-.51 1.34 1.34 0 01.14-1.21 1.31 1.31 0 011.18-.32 4 4 0 013 2.6z" fill="#5846f9"/><path d="M306.64 140.21a.65.65 0 01.07.92.66.66 0 01-.92.07.65.65 0 01-.07-.92.64.64 0 01.92-.07z" opacity=".3"/><path opacity=".2" d="M282.35 382.5l1.45 9.33-7.58 2.09-1.46-9.33 7.59-2.09zM223.6 389.53h7.86l-1.01 9.39h-7.86l1.01-9.39z"/><path d="M219 161.3a177.3 177.3 0 015 25.87c.75 6.09 1.19 11.9 1.47 17.18.65 12.36.38 21.78.75 25 6.15-.42 29.32-2 42-2.92 5.71-44.73-5.2-67.77-5.2-67.77a82.41 82.41 0 00-10-1.25c-.71 0-1.44-.07-2.17-.08a155.11 155.11 0 00-17.84 1.24c-1.12.13-2.26.3-3.36.48-5.75.88-10.65 2.25-10.65 2.25z" fill="#5846f9"/><path d="M219 161.3a177.3 177.3 0 015 25.87c.75 6.09 1.19 11.9 1.47 17.18.65 12.36.38 21.78.75 25 6.15-.42 29.32-2 42-2.92 5.71-44.73-5.2-67.77-5.2-67.77a82.41 82.41 0 00-10-1.25c-.71 0-1.44-.07-2.17-.08a155.11 155.11 0 00-17.84 1.24c-1.12.13-2.26.3-3.36.48-5.75.88-10.65 2.25-10.65 2.25z" fill="#fff" opacity=".5"/><path d="M229.55 172.62a33.18 33.18 0 01-5.19 18.18c-.12-1.2-.26-2.41-.41-3.63-.56-4.58-1.28-9.32-2.24-14.11z" opacity=".2"/><path d="M233.25 138.33c1.52 5.66 3.38 16.1-.37 20.21a17.88 17.88 0 0014.12 4.51c4.93-.45 4.93-3.92 3.7-5.75-6.51-1.08-6.67-5.84-5.87-10.38z" fill="#ffc3bd"/><path d="M238 141.84l6.86 5.07a18.67 18.67 0 00-.32 3.21c-2.47-.18-6-2.63-6.46-5.18a8.45 8.45 0 01-.08-3.1z" opacity=".2"/><path d="M254.39 119.51c1.66 4.37 1.27 17.29-4.41 14.64s-4.37-12.38-4.37-12.38 4.88-12.49 8.78-2.26z" fill="#263238"/><path d="M232 129.75c1 7.73 1.23 12.31 5.43 16 6.32 5.59 15.66 1.36 17-6.53 1.18-7.1-.69-18.56-8.51-21.12A10.65 10.65 0 00232 129.75z" fill="#ffc3bd"/><path d="M237.62 133.25c1.77-6.38 1.22-12.91-4.5-14.91s-9.74.68-10.5 4.71 12.38 19.5 15 10.2z" fill="#263238"/><path d="M234.2 122.53c10.75 1 24.07 1.85 23.37-7.19s-13.2-8.89-15.49-6.29c0 0 4.07 2.76-.17 2.33-8.19-.84-20.95.18-17.14 8.87 2.81 6.39 9.43 2.28 9.43 2.28z" fill="#263238"/><path d="M229.05 138.56a7.41 7.41 0 004.84 2.94c2.57.38 3.54-2 2.55-4.26-.89-2-3.3-4.68-5.75-4s-3.04 3.36-1.64 5.32z" fill="#ffc3bd"/><path d="M286.16 389.3l-12.84 3.53s-9.17-49.27-11.48-73.66c-.7-7.42-2.66-17.76-5.13-28.82-3.11-13.93-7-29-10.22-40.8-3.37-12.43-5.94-21.22-5.94-21.22l27.58-1.93s16.72 65.21 17.53 89.2c.85 24.94.5 73.7.5 73.7z" fill="#263238"/><path d="M256.71 290.35c-3.11-13.93-7-29-10.22-40.8l2.87-6.17c6.84 8.13 8.64 33.3 7.35 46.97z" opacity=".2"/><path d="M253.25 227.44s-3 67.32-6.3 90.12c-3.63 25-12.86 79.54-12.86 79.54h-14.41s-.24-51.74 4.27-75.93c5.14-27.54 2.23-91.84 2.23-91.84z" fill="#263238"/><path fill="#5846f9" d="M235.81 397.41h-16.96v-5.07l18.96-.33-2 5.4zM287.86 389.15l-15.3 4.22-1.36-4.94 17.03-4.98-.37 5.7z"/><path d="M243.9 131.1c0 .63.42 1.12.83 1.09s.71-.57.67-1.2-.42-1.12-.83-1.09-.71.56-.67 1.2zM251.05 130.6c0 .63.42 1.12.83 1.09s.71-.57.67-1.2-.41-1.12-.83-1.09-.72.6-.67 1.2z" fill="#263238"/><path d="M248.8 131.07a22.57 22.57 0 003.4 5.2 3.67 3.67 0 01-3 .78z" fill="#ed847e"/><path d="M241.52 128.94a.39.39 0 00.35-.17 3 3 0 012.3-1.41.37.37 0 000-.74 3.69 3.69 0 00-2.92 1.74.37.37 0 00.11.52.44.44 0 00.16.06zM246.45 140.14a5.74 5.74 0 01-4.64-2.52.2.2 0 01.07-.27.2.2 0 01.28.07 5.41 5.41 0 004.3 2.32.19.19 0 01.19.21.19.19 0 01-.2.19zM254 127.92a.36.36 0 00.22 0 .37.37 0 00.14-.51 3.69 3.69 0 00-2.82-1.9.37.37 0 00-.39.35.38.38 0 00.35.39 3 3 0 012.21 1.54.4.4 0 00.29.13z" fill="#263238"/><path d="M232.75 408.2a2.4 2.4 0 001.52-.4 1.12 1.12 0 00.38-1 .56.56 0 00-.32-.52c-.87-.45-3.4 1.11-3.69 1.29a.19.19 0 00-.09.18.21.21 0 00.14.16 9.5 9.5 0 002.06.29zm1.17-1.63a.43.43 0 01.24.05c.05 0 .11.07.12.22a.75.75 0 01-.25.67 3.79 3.79 0 01-2.79.14 7.52 7.52 0 012.68-1.08z" fill="#5846f9"/><path d="M230.74 407.92h.09c.81-.44 2.39-2.17 2.22-3a.61.61 0 00-.59-.49 1 1 0 00-.8.24c-.91.74-1.1 3-1.11 3.11a.2.2 0 00.09.17.17.17 0 00.1-.03zm1.59-3.19h.08c.24 0 .26.14.27.19.1.51-.9 1.82-1.71 2.43a4.41 4.41 0 01.93-2.46.65.65 0 01.43-.16zM285.9 400.58c1.29-.09 3.55-.39 4.18-1.36a1 1 0 00.09-1 .58.58 0 00-.43-.4c-1-.24-3.68 2.13-4 2.4a.18.18 0 00.1.32zm3.73-2.36h.06a.22.22 0 01.16.16.66.66 0 01-.06.64c-.35.54-1.58 1-3.33 1.14 1.06-.91 2.54-2.01 3.17-1.94z" fill="#5846f9"/><path d="M285.9 400.58a.18.18 0 00.14 0c.8-.66 2.16-2.8 1.79-3.62-.09-.19-.3-.4-.81-.32a1.39 1.39 0 00-.91.58c-.75 1.06-.39 3.16-.37 3.25a.19.19 0 00.12.14zm1.4-3.62a.19.19 0 01.19.12c.22.49-.65 2.11-1.43 2.93a4.33 4.33 0 01.35-2.61 1 1 0 01.67-.43.56.56 0 01.22.03z" fill="#5846f9"/><path d="M226.58 173.54l-2.85 3c-1 1-1.91 2-2.85 3.09-1.88 2.07-3.7 4.19-5.47 6.33s-3.46 4.32-5 6.54c-.79 1.11-1.49 2.24-2.22 3.36l-1 1.7-.12.21v-.08a1 1 0 000-.22v-.08a5.72 5.72 0 00.38 2.27 24.42 24.42 0 001.4 3.39 70.53 70.53 0 004 7.13c3 4.73 6.34 9.49 9.72 14.09l-4.3 4a114.65 114.65 0 01-12.58-12.92 69.22 69.22 0 01-5.5-7.56 35.93 35.93 0 01-2.35-4.51 15.46 15.46 0 01-1.42-6.25 10.42 10.42 0 01.27-2.25 7.86 7.86 0 01.4-1.25l.25-.58.13-.28 1.05-2.17c.74-1.4 1.48-2.82 2.32-4.14a82.9 82.9 0 015.21-7.69c1.83-2.46 3.77-4.81 5.79-7.09 1-1.13 2-2.25 3.1-3.35s2.09-2.15 3.3-3.29z" fill="#ffc3bd"/><path d="M219.89 223.14l8-.24-3.89 9.25s-6.84-1.31-6.55-5z" fill="#ffc3bd"/><path fill="#ffc3bd" d="M233.19 226.75l-3.59 7.5-5.64-2.1 3.91-9.25 5.32 3.85z"/><path d="M221.14 160.89c-7.51.31-19.15 15.93-19.15 15.93l12.25 16.62s8.7-9 14.06-17.08c5.84-8.83 1.94-15.86-7.16-15.47z" fill="#5846f9"/><path d="M221.14 160.89c-7.51.31-19.15 15.93-19.15 15.93l12.25 16.62s8.7-9 14.06-17.08c5.84-8.83 1.94-15.86-7.16-15.47z" fill="#fff" opacity=".5"/></g></svg>