<svg xmlns="http://www.w3.org/2000/svg" viewBox="0 0 500 500"><ellipse cx="250" cy="316.14" rx="234.39" ry="150.34" fill="#f0f0f0"/><g fill="#e0e0e0"><path d="M106.87 357.05l122.77 70.88a9.57 9.57 0 008.66 0l202.34-116.47c2.39-1.38 2.39-3.61 0-5l-122.77-70.87a9.54 9.54 0 00-8.66 0L106.87 352.05c-2.39 1.38-2.39 3.62 0 5z"/><ellipse cx="392.82" cy="244.53" rx="36.88" ry="21.29"/><ellipse cx="355.09" cy="398.08" rx="51.19" ry="29.56"/></g><path d="M231.67 69.57c.32 1.05 5.31 4.88 5.53 6a1.32 1.32 0 001.67 1.08l4.88-1.33a1.21 1.21 0 01.89.07c-.25-.13-10.41-6-10.74-6.21a1.16 1.16 0 00-.89-.08l-1.36.37z" fill="#5846f9"/><path d="M231.67 69.57c.32 1.05 5.31 4.88 5.53 6a1.32 1.32 0 001.67 1.08l4.88-1.33a1.21 1.21 0 01.89.07c-.25-.13-10.41-6-10.74-6.21a1.16 1.16 0 00-.89-.08l-1.36.37z" opacity=".2"/><path d="M223.09 57.08c.68.48 6.06 3.76 6.68 4.34a1.61 1.61 0 002.15 0l4.76-4.34a1.19 1.19 0 011.46-.16l-10.8-6.22a1.18 1.18 0 00-1.4.2l-3.24 3-.35 1a2.06 2.06 0 00.74 2.18z" fill="#5846f9"/><path d="M223.09 57.08c.68.48 6.06 3.76 6.68 4.34a1.61 1.61 0 002.15 0l4.76-4.34a1.19 1.19 0 011.46-.16l-10.8-6.22a1.18 1.18 0 00-1.4.2l-3.24 3-.35 1a2.06 2.06 0 00.74 2.18z" opacity=".2"/><path d="M183.94 137.76l2.21-6.32a2 2 0 00-.74-2.21 18.52 18.52 0 01-2-1.59 1.62 1.62 0 00-2.16 0l-5.36-2.93-2.72 6.86a1.38 1.38 0 00.62 1.68l10.74 6.22a1.39 1.39 0 01-.59-1.71z" fill="#5846f9"/><path d="M183.94 137.76l2.21-6.32a2 2 0 00-.74-2.21 18.52 18.52 0 01-2-1.59 1.62 1.62 0 00-2.16 0l-5.36-2.93-2.72 6.86a1.38 1.38 0 00.62 1.68l10.74 6.22a1.39 1.39 0 01-.59-1.71z" opacity=".3"/><path d="M202 139.25l-.4-5A1.4 1.4 0 00200 133a23.51 23.51 0 01-2.37.12h-1.13a1.65 1.65 0 00-1 .36 1.67 1.67 0 01.28-.18l-4.53-.19a1.14 1.14 0 00.49.89c.27.18 10.49 6.08 10.79 6.25h.1a1.08 1.08 0 01-.63-1z" fill="#5846f9"/><path d="M202 139.25l-.4-5A1.4 1.4 0 00200 133a23.51 23.51 0 01-2.37.12h-1.13a1.65 1.65 0 00-1 .36 1.67 1.67 0 01.28-.18l-4.53-.19a1.14 1.14 0 00.49.89c.27.18 10.49 6.08 10.79 6.25h.1a1.08 1.08 0 01-.63-1z" opacity=".3"/><path d="M221.1 128.75l-2.31-2.94a1.45 1.45 0 00-2.06-.22l-.65.5.09-.07 5.33 3.08a1.28 1.28 0 01-.4-.35z" fill="#5846f9"/><path d="M221.1 128.75l-2.31-2.94a1.45 1.45 0 00-2.06-.22l-.65.5.09-.07 5.33 3.08a1.28 1.28 0 01-.4-.35z" opacity=".3"/><path d="M240.9 98.39l-4.68-2.71a1.74 1.74 0 00.94 1.08l3.74 1.63" fill="#5846f9"/><path d="M240.9 98.39l-4.68-2.71a1.74 1.74 0 00.94 1.08l3.74 1.63" opacity=".3"/><path d="M213.19 56c.74-.07 1.49-.11 2.23-.11h1.22a2.18 2.18 0 001.87-1.23l2.85-5.75a1.82 1.82 0 012.08-.91l4.92 1.44a1.31 1.31 0 01.47.24l-.12-.09-10.77-6.24a1.79 1.79 0 00-.32-.13l-4.93-1.44a1.81 1.81 0 00-2.07.91l-2.85 5.75a2.43 2.43 0 01-1.09 1.06l4.92 5.17a1.43 1.43 0 001.59 1.33z" fill="#5846f9"/><path d="M216.64 55.92a1.85 1.85 0 001.1-.36L207 49.34a3.37 3.37 0 01-.32.19l4.92 5.17a1.43 1.43 0 001.59 1.3 23.78 23.78 0 013.45-.08z" opacity=".1"/><path d="M228.83 49.71l-.12-.09-10.77-6.24a1.79 1.79 0 00-.32-.13l-4.93-1.44a1.79 1.79 0 00-1.47.24L222 48.27a1.8 1.8 0 011.48-.24l4.92 1.44a1.31 1.31 0 01.43.24z" fill="#fafafa" opacity=".5"/><path d="M211.22 42.05a1.68 1.68 0 00-.6.67l-2.85 5.75a2.39 2.39 0 01-.77.87l10.74 6.22a2.3 2.3 0 00.77-.87l2.85-5.75a1.64 1.64 0 01.59-.66z" opacity=".2"/><path d="M174.68 131.65l-2.93-4.77a2.17 2.17 0 01.18-2.39l4.35-5.14a3 3 0 00.48-2.53 29.31 29.31 0 01-.84-3.32 1.33 1.33 0 00-1.68-1.07l-8.22-1.8a2.93 2.93 0 01-.49 2.5l-4.34 5.14a2.17 2.17 0 00-.18 2.39l2.93 4.77a1.27 1.27 0 00.48.47l10.73 6.21.14.07a1.29 1.29 0 01-.61-.53z" fill="#5846f9"/><path d="M176.76 116.82a29.31 29.31 0 01-.84-3.32 1.33 1.33 0 00-1.68-1.07l-8.22-1.8a3 3 0 01-.11 1.83l10.74 6.22a3 3 0 00.11-1.86z" opacity=".2"/><path d="M160.77 119.22l10.75 6.22a2 2 0 01.41-1l4.35-5.14a2.18 2.18 0 00.37-.67l-10.74-6.22a2.2 2.2 0 01-.38.67l-4.34 5.14a2 2 0 00-.42 1z" opacity=".3"/><path d="M175.15 132.11l.14.07a1.29 1.29 0 01-.61-.53l-2.93-4.77a2.08 2.08 0 01-.23-1.44l-10.75-6.22a2.08 2.08 0 00.24 1.44l2.93 4.77a1.27 1.27 0 00.48.47z" opacity=".2"/><path d="M168.05 112.63v-7.39a2.56 2.56 0 011.34-2.12l5-2.38a3.17 3.17 0 001.57-2.1c.24-1.46.56-2.93.94-4.4a1.77 1.77 0 00-1-2l-3.6-1.57a1.5 1.5 0 01-.78-2l3.33-7.91a2 2 0 012-1.13l4 .65a2.28 2.28 0 002.18-1c.84-1.47 1.73-2.9 2.67-4.27a2.84 2.84 0 00.22-2.55l-1.85-3.89a2.31 2.31 0 01.39-2.41l5.71-5.94a1.25 1.25 0 011.94.1l2.22 2.82a1.45 1.45 0 002.06.23c1.09-.86 2.2-1.66 3.32-2.38.3-.2.59-.38.89-.56a2.79 2.79 0 001-2l.39-5.25a2.52 2.52 0 011.5-2l6.19-2.31a1.13 1.13 0 011 .05c-.26-.15-10.45-6.06-10.75-6.22a1.13 1.13 0 00-1 0l-6.19 2.31a2.52 2.52 0 00-1.5 2l-.39 5.25a2.83 2.83 0 01-1 2c-.3.18-.6.36-.89.56-1 .61-1.89 1.27-2.81 2l-5.22-3a1.24 1.24 0 00-1.51.27l-5.72 5.94a2.33 2.33 0 00-.39 2.41l1.85 3.89a2.81 2.81 0 01-.22 2.55 65.39 65.39 0 00-2.67 4.27 2.26 2.26 0 01-2.18 1l-3.94-.65a2 2 0 00-2 1.13l-3.33 7.91a1.52 1.52 0 00.6 1.87l4.71 2.72a1.74 1.74 0 010 1c-.38 1.47-.7 2.94-.95 4.4a3.19 3.19 0 01-1.56 2.1l-5 2.38a2.57 2.57 0 00-1.31 1.99v7.39a1.12 1.12 0 00.51 1c.25.14 10.43 6 10.74 6.22h.07a1.1 1.1 0 01-.58-.98z" fill="#5846f9"/><path d="M191.72 59.93L181 53.7a1.24 1.24 0 00-1.51.27l-5.72 5.94a2.19 2.19 0 00-.54 1.17l10.75 6.22a2.12 2.12 0 01.54-1.17l5.48-5.7a1.79 1.79 0 011.72-.5zM210.7 48.88c-.26-.15-10.45-6.06-10.75-6.22a1.13 1.13 0 00-1 0l-6.19 2.31a2.38 2.38 0 00-.84.59l10.75 6.22a2.35 2.35 0 01.83-.59l6.19-2.31a1.13 1.13 0 011.01 0z" fill="#fafafa" opacity=".5"/><path d="M191.94 45.51a2.52 2.52 0 00-.66 1.41l-.39 5.25a3.08 3.08 0 01-.23.94l10.75 6.22a3.07 3.07 0 00.22-.94l.39-5.25a2.47 2.47 0 01.67-1.41z" opacity=".2"/><path d="M190.66 53.11a2.23 2.23 0 01-.78 1.07c-.3.18-.6.36-.89.56-1 .61-1.89 1.27-2.81 2l5.54 3.2a1.24 1.24 0 01.39.34l2.24 2.84a1.45 1.45 0 002.06.23c1.09-.86 2.2-1.66 3.32-2.38.3-.2.59-.38.89-.56a2.31 2.31 0 00.79-1.07z" opacity=".1"/><path d="M184.09 68.54a2.07 2.07 0 01-.15-1.24l-10.75-6.22a2.24 2.24 0 00.15 1.24l1.85 3.89a2.53 2.53 0 01.21 1l10.74 6.22a2.53 2.53 0 00-.2-1z" opacity=".2"/><path d="M175 68.76a65.39 65.39 0 00-2.67 4.27 2.2 2.2 0 01-1 .86l10.74 6.22a2.17 2.17 0 001-.86c.84-1.47 1.73-2.9 2.67-4.27a2.8 2.8 0 00.42-1.54l-10.76-6.22a2.8 2.8 0 01-.4 1.54z" opacity=".1"/><path d="M170.12 74.08l-3.94-.65a2 2 0 00-1.24.26l10.74 6.22a2 2 0 011.24-.26l4 .65a2.05 2.05 0 001.18-.19l-10.74-6.22a2.07 2.07 0 01-1.24.19z" opacity=".2"/><path d="M164.94 73.69a1.87 1.87 0 00-.8.87l-3.33 7.91a1.52 1.52 0 00.6 1.87l4.71 2.72 5.89 3.4a1.48 1.48 0 01-.47-1.76l3.33-7.91a1.92 1.92 0 01.8-.87z" fill="#fafafa" opacity=".5"/><path d="M166.12 87.06a1.74 1.74 0 010 1c-.38 1.47-.7 2.94-.95 4.4a3 3 0 01-.57 1.24l10.74 6.22a3 3 0 00.58-1.24c.24-1.46.56-2.93.94-4.4a1.77 1.77 0 00-1-2l-3.6-1.57a2 2 0 01-.31-.19z" opacity=".2"/><path d="M164.64 93.66a2.85 2.85 0 01-1 .86l-5 2.38a2.52 2.52 0 00-1 1l10.75 6.22a2.41 2.41 0 011-1l5-2.38a2.85 2.85 0 001-.86z" opacity=".1"/><path d="M168.63 113.66a1.1 1.1 0 01-.58-1v-7.39a2.3 2.3 0 01.31-1.08l-10.75-6.22a2.26 2.26 0 00-.3 1.08v7.39a1.12 1.12 0 00.51 1c.25.14 10.43 6 10.74 6.22z" fill="#fafafa" opacity=".5"/><path d="M245.16 76.15a1.55 1.55 0 00-.07-.23.62.62 0 00-.12-.19 1.06 1.06 0 00-.15-.15 1.15 1.15 0 00-1-.15l-4.88 1.33a1.32 1.32 0 01-1.67-1.08 33 33 0 00-.8-3.26 2.77 2.77 0 01-.09-1 2.91 2.91 0 010-.31v-.06l.06-.26a1.85 1.85 0 00.12-.31l.08-.16.06-.12a2.7 2.7 0 01.18-.25l4.42-5.23a1.81 1.81 0 00.31-.54 2.22 2.22 0 00.14-1 1.93 1.93 0 00-.27-.89L240 59.77l-1.47-2.38a1.77 1.77 0 00-.16-.22 1.19 1.19 0 00-.18-.15 1.19 1.19 0 00-1.46.16l-4.76 4.34a1.61 1.61 0 01-2.15 0 19.72 19.72 0 00-2-1.6 2.06 2.06 0 01-.74-2.22l.35-1 .71-2 1.15-3.29a2.68 2.68 0 00.07-.27v-.08a1.21 1.21 0 000-.19.28.28 0 000-.09.51.51 0 000-.17.29.29 0 000-.09l-.06-.16a.3.3 0 010-.08.94.94 0 00-.12-.18l-.18-.19h-.06a1.31 1.31 0 00-.47-.24L223.44 48a1.82 1.82 0 00-2.08.91l-2.85 5.75a2.18 2.18 0 01-1.87 1.23h-1.22c-.74 0-1.49 0-2.23.11a1.43 1.43 0 01-1.59-1.3l-.19-2.43v-.12l-.18-2.36a1.36 1.36 0 00-.06-.29v-.08c0-.06 0-.12-.08-.17s0-.05-.06-.08l-.13-.17-.08-.07-.12-.09a1.13 1.13 0 00-1-.05l-6.19 2.31a2.52 2.52 0 00-1.5 2l-.39 5.25a2.79 2.79 0 01-1 2c-.3.18-.59.36-.89.56-1.12.72-2.23 1.52-3.32 2.38a1.45 1.45 0 01-2.06-.23l-2.22-2.82a1.25 1.25 0 00-1.94-.1l-5.71 5.94a2.31 2.31 0 00-.39 2.41l1.85 3.89a2.84 2.84 0 01-.22 2.55 61.37 61.37 0 00-2.67 4.27 2.28 2.28 0 01-2.18 1l-4-.65a2 2 0 00-2 1.13l-3.33 7.91a1.5 1.5 0 00.78 2l3.6 1.57a1.77 1.77 0 011 2c-.38 1.47-.7 2.94-.94 4.4a3.17 3.17 0 01-1.57 2.1l-5 2.38a2.56 2.56 0 00-1.34 2.12v7.39a1.1 1.1 0 00.58 1H169.23a1.28 1.28 0 00.27 0l1.27-.34 3.49-.95a1.33 1.33 0 011.68 1.07 29.31 29.31 0 00.84 3.32 3 3 0 01-.48 2.53l-4.35 5.14a2.17 2.17 0 00-.18 2.39l2.93 4.77a1.29 1.29 0 00.61.53 1.41 1.41 0 00.22.06h.52l.18-.08h.06a.8.8 0 00.21-.15l4.73-4.31a1.62 1.62 0 012.16 0 18.52 18.52 0 002 1.59 2 2 0 01.74 2.21l-2.21 6.32a1.39 1.39 0 00.64 1.69 1.09 1.09 0 00.25.1l2.46.72 2.47.72a1.33 1.33 0 00.3.06 1.5 1.5 0 00.3 0 2 2 0 00.59-.15 2 2 0 00.52-.33 1.6 1.6 0 00.36-.49l1.44-2.91 1.44-2.91a2.38 2.38 0 01.18-.3l.07-.09.16-.18.08-.09.19-.16.08-.06a1.65 1.65 0 011-.36h1.13a23.51 23.51 0 002.42.09 1.4 1.4 0 011.58 1.29l.4 5a1.08 1.08 0 00.63 1h.39a1.08 1.08 0 00.18 0h.09a1.34 1.34 0 00.27-.07l6.19-2.31a2.54 2.54 0 00.55-.32 3.05 3.05 0 00.47-.48 2.82 2.82 0 00.18-.29 2.08 2.08 0 00.3-.91l.4-5.42a4.1 4.1 0 01.11-.61 3.29 3.29 0 01.35-.83 1.57 1.57 0 01.48-.53l.82-.51.78-.51.3-.21.46-.32.38-.28.36-.27c.15-.1.29-.21.43-.32l.65-.5a1.45 1.45 0 012.06.22l2.31 2.94a1.28 1.28 0 00.42.36h.06l.17.07h.32a.87.87 0 00.23 0 .7.7 0 00.19-.06h.07l.16-.08h.07a1.06 1.06 0 00.2-.17l5.72-5.94a2 2 0 00.46-.83 2.39 2.39 0 00.11-.65 2.06 2.06 0 00-.18-.93l-1.93-4.06a2 2 0 01-.18-.61 3.17 3.17 0 010-.69 3.07 3.07 0 01.14-.67 2.23 2.23 0 01.28-.58c.45-.66.89-1.34 1.32-2s.85-1.38 1.26-2.09a2.27 2.27 0 011.87-1.08 1.56 1.56 0 01.31 0l4.11.68h.31a1.88 1.88 0 00.89-.26 1.74 1.74 0 00.38-.27 1.69 1.69 0 00.31-.35 1.82 1.82 0 00.15-.27l3.33-7.91a1.5 1.5 0 000-1.14 1.48 1.48 0 00-.79-.82l-3.74-1.63a1.74 1.74 0 01-.94-1.08v-.07a1.55 1.55 0 010-.21.28.28 0 010-.09 1.21 1.21 0 010-.19.28.28 0 010-.09 1.26 1.26 0 010-.27c.09-.36.18-.72.26-1.07.17-.71.33-1.43.47-2.14.07-.35.13-.7.19-1.06 0-.1 0-.2.08-.31a3.28 3.28 0 011.49-1.79l2.58-1.22 2.59-1.23a2.46 2.46 0 00.94-.88 2.44 2.44 0 00.39-1.24v-7.43a2.11 2.11 0 00-.03-.26zM221.82 101c-.29.59-.78 1.54-1.09 2.12a37 37 0 01-11.86 13.34 17.45 17.45 0 01-9.39 3.13 10.76 10.76 0 01-7.8-3.17c-.16-.16-.31-.31-.45-.48a13.55 13.55 0 01-2.48-4.15.36.36 0 010-.09l-.21-.58-.06-.17-.16-.52-.06-.22-.14-.5-.06-.26c0-.16-.07-.32-.11-.49l-.06-.27-.09-.5v-.29c0-.1-.05-.34-.08-.51s0-.19 0-.29 0-.37-.05-.56v-.26-.84A37.51 37.51 0 01192 87a37.5 37.5 0 0112.41-14.39 17.5 17.5 0 019.39-3.13H214.71l.53.05h.19l.55.08h.13q.33.06.66.15c5.25 1.38 8.71 6.48 9.06 13.77a37.05 37.05 0 01-4.01 17.47z" fill="#5846f9"/><path d="M225.78 83.6a17.92 17.92 0 00-2.7-9.1 10.85 10.85 0 00-6.36-4.67q-.33-.09-.66-.15h-.13l-.55-.08h-.19l-.53-.05H213.04a19 19 0 012 7.91 36.93 36.93 0 01-4 17.4c-.28.59-.77 1.54-1.09 2.12a37 37 0 01-11.85 13.34 18 18 0 01-8.68 3.11 13 13 0 001.77 2.59l.45.48a10.78 10.78 0 007.81 3.17 17.5 17.5 0 009.39-3.13 37 37 0 0011.86-13.34c.31-.58.8-1.53 1.09-2.12a37.05 37.05 0 003.99-17.48z" fill="#5846f9"/><path d="M225.78 83.6a17.92 17.92 0 00-2.7-9.1 10.85 10.85 0 00-6.36-4.67q-.33-.09-.66-.15h-.13l-.55-.08h-.19l-.53-.05H213.04a19 19 0 012 7.91 36.93 36.93 0 01-4 17.4c-.28.59-.77 1.54-1.09 2.12a37 37 0 01-11.85 13.34 18 18 0 01-8.68 3.11 13 13 0 001.77 2.59l.45.48a10.78 10.78 0 007.81 3.17 17.5 17.5 0 009.39-3.13 37 37 0 0011.86-13.34c.31-.58.8-1.53 1.09-2.12a37.05 37.05 0 003.99-17.48z" opacity=".35"/><g><path d="M118.16 116.79c5.36 5.37 8.67 13.62 9.17 23.87.57 11.75-2.48 25.1-8.61 37.83-.62 1.29-1.68 3.35-2.37 4.61-6.79 12.39-15.87 22.63-25.77 29-7 4.51-13.87 6.79-20.42 6.79a25.58 25.58 0 01-6.46-.81 23.41 23.41 0 0017 6.88c6.55 0 13.42-2.28 20.42-6.79 9.9-6.38 19-16.62 25.78-29 .68-1.26 1.74-3.32 2.36-4.61 6.14-12.73 9.19-26.08 8.61-37.83-.79-15.85-8.31-26.94-19.71-29.94z" fill="#5846f9"/><path d="M118.16 116.79c5.36 5.37 8.67 13.62 9.17 23.87.57 11.75-2.48 25.1-8.61 37.83-.62 1.29-1.68 3.35-2.37 4.61-6.79 12.39-15.87 22.63-25.77 29-7 4.51-13.87 6.79-20.42 6.79a25.58 25.58 0 01-6.46-.81 23.41 23.41 0 0017 6.88c6.55 0 13.42-2.28 20.42-6.79 9.9-6.38 19-16.62 25.78-29 .68-1.26 1.74-3.32 2.36-4.61 6.14-12.73 9.19-26.08 8.61-37.83-.79-15.85-8.31-26.94-19.71-29.94z" opacity=".35"/><path d="M120.56 123.24h-.06l-11.07-6.41h-.09c-7-3.54-16.29-2.5-26.32 4-20.15 13-35.55 42.91-34.39 66.85.58 11.93 5.17 20.12 12.12 23.73h.06l11.08 6.42h.08c7 3.55 16.3 2.51 26.34-3.95 20.15-13 35.55-42.91 34.38-66.85-.6-12.03-5.18-20.18-12.13-23.79z" fill="#37474f"/><path d="M71.36 217.47l-10.56-6.15h-.07c-6.94-3.62-11.53-11.81-12.11-23.73-.52-10.71 2.26-22.59 7.27-33.59L67 160.42c-5 11-7.8 22.87-7.28 33.55.54 11.68 4.94 19.77 11.64 23.5z" fill="#263238"/><ellipse cx="96.18" cy="170.48" rx="53.16" ry="30.69" transform="rotate(-62.78 96.182 170.477)" fill="#455a64"/><path d="M81.4 212.16c-11.88.57-13.81-12.79-14.09-18.56-1-21.11 13.12-48.62 30.89-60.07 4.53-2.91 8.94-4.55 12.77-4.74 11.88-.57 13.81 12.79 14.09 18.56 1 21.11-13.12 48.62-30.9 60.07-4.52 2.91-8.93 4.55-12.76 4.74z" fill="#fafafa"/><path d="M98.52 174.43a1.2 1.2 0 01-.42-.07 1.28 1.28 0 01-.88-1.22v-30.55a1.3 1.3 0 112.59 0v26.78l14.25-18.3a1.29 1.29 0 012 1.59l-16.52 21.28a1.29 1.29 0 01-1.02.49z" fill="#37474f"/><path d="M91.22 197a.57.57 0 01-.18 0 .54.54 0 01-.37-.67l7.17-24.17a.55.55 0 01.68-.36.54.54 0 01.36.67l-7.16 24.17a.58.58 0 01-.5.36z" fill="#5846f9"/><path d="M98.11 167c2.37-1.53 4.4-.48 4.54 2.34a9.81 9.81 0 01-4.05 7.86c-2.37 1.53-4.4.48-4.54-2.34a9.78 9.78 0 014.05-7.86z" fill="#5846f9"/><path d="M163.53 138.36a.13.13 0 000-.06 1.63 1.63 0 00-.13-.39v-.07a1.38 1.38 0 00-.2-.33 2.23 2.23 0 00-.27-.26 2 2 0 00-1.76-.27l-8.53 2.32a2.31 2.31 0 01-2.92-1.87 55.84 55.84 0 00-1.41-5.7 5 5 0 01-.14-1.84 3.2 3.2 0 01.08-.54.36.36 0 010-.11c0-.15.07-.31.12-.45s.05-.13.07-.2.08-.23.13-.34a2.44 2.44 0 01.14-.28c0-.07.07-.15.11-.22a4.73 4.73 0 01.31-.43l7.73-9.14a3.24 3.24 0 00.54-.94 4 4 0 00.24-1.67 3.32 3.32 0 00-.47-1.57l-2.56-4.17-2.61-4.25a2.63 2.63 0 00-.29-.37 2.69 2.69 0 00-.32-.27h-.07a2 2 0 00-2.55.28l-8.32 7.58a2.78 2.78 0 01-3.75-.07 37.42 37.42 0 00-3.41-2.79 3.58 3.58 0 01-1.3-3.88l.62-1.76 1.24-3.53 2-5.75a2.08 2.08 0 00.11-.48v-.15-.31-.17a2.5 2.5 0 00-.05-.29v-.16a2.33 2.33 0 00-.11-.28l-.06-.14a2.11 2.11 0 00-.21-.31.25.25 0 000-.07 3.22 3.22 0 00-.32-.32l-.11-.08a2.38 2.38 0 00-.81-.41l-8.6-2.52a3.18 3.18 0 00-3.69 1.49l-5 10.06a3.86 3.86 0 01-3.3 2.12c-.7 0-1.41-.06-2.12-.06-1.3 0-2.61.06-3.91.18a2.46 2.46 0 01-2.77-2.26l-.34-4.24v-.21l-.33-4.13a2.71 2.71 0 00-.09-.51l-.07-.15a1.48 1.48 0 00-.12-.29.76.76 0 00-.11-.14 1.16 1.16 0 00-.16-.21 1.58 1.58 0 00-.15-.12.9.9 0 00-.19-.15 2 2 0 00-1.73-.1l-10.84 4.07a4.39 4.39 0 00-2.61 3.48l-.68 9.18a4.91 4.91 0 01-1.78 3.51l-1.55 1q-3 1.91-5.8 4.16a2.54 2.54 0 01-3.6-.39l-3.88-4.94a2.19 2.19 0 00-3.39-.17l-10 10.39a4 4 0 00-.69 4.2l3.21 6.78a4.9 4.9 0 01-.38 4.45q-2.46 3.6-4.66 7.45a4 4 0 01-3.82 1.85l-6.89-1.13a3.46 3.46 0 00-3.56 2l-5.82 13.83a2.62 2.62 0 001.36 3.42l6.3 2.74a3.1 3.1 0 011.73 3.51q-1 3.87-1.66 7.7a5.53 5.53 0 01-2.73 3.67l-8.74 4.15a4.49 4.49 0 00-2.34 3.7v12.92a1.93 1.93 0 001 1.8l.21.06.24.07h.16a1.51 1.51 0 00.3 0h.15a2.09 2.09 0 00.48-.08l2.21-.6 6.1-1.66a2.32 2.32 0 012.94 1.87 55.24 55.24 0 001.46 5.8 5.16 5.16 0 01-.83 4.42l-7.6 9a3.81 3.81 0 00-.31 4.18l5.12 8.34a2.2 2.2 0 001.06.91 1.86 1.86 0 00.39.1h.11a1.61 1.61 0 00.31 0h.1a3.14 3.14 0 00.4-.08h.08a2.2 2.2 0 00.31-.15l.11-.06a3.18 3.18 0 00.37-.27l8.26-7.53a2.82 2.82 0 013.77.06 36.25 36.25 0 003.44 2.77 3.57 3.57 0 011.3 3.91l-3.87 11a2.42 2.42 0 001.12 3h.06a1.77 1.77 0 00.45.18l4.3 1.26 4.3 1.26a2.39 2.39 0 00.52.1 2.44 2.44 0 00.54 0 3.39 3.39 0 001-.26 3.16 3.16 0 00.9-.58 3 3 0 00.64-.85l2.52-5.08 2.55-5.03a3.55 3.55 0 01.32-.53l.11-.15.29-.33a.93.93 0 01.14-.14l.33-.29.13-.1a3 3 0 011.8-.63c.65 0 1.31.05 2 .05a41 41 0 004.14-.21 2.47 2.47 0 012.77 2.25l.69 8.76a1.88 1.88 0 001.1 1.68l.16.07.26.05h.62a2.85 2.85 0 00.48-.13l10.83-4a3.4 3.4 0 001-.55 5 5 0 00.82-.84c.11-.16.22-.33.32-.5a3.87 3.87 0 00.52-1.59l.7-9.48a6.67 6.67 0 01.19-1.07 6.06 6.06 0 01.61-1.44 2.71 2.71 0 01.84-.92L108 229l1.36-.91.53-.36.8-.56.67-.49.63-.46.75-.57 1.14-.88a2.54 2.54 0 013.6.39l4 5.15a2.33 2.33 0 00.74.63h.1l.29.11h.14l.3.05h.11a2 2 0 00.42 0h.08l.33-.1.13-.05.28-.15.11-.08a2 2 0 00.36-.3l10-10.39a3.6 3.6 0 00.82-1.44 4.38 4.38 0 00.18-1.14 3.5 3.5 0 00-.31-1.62l-3.37-7.09a3.75 3.75 0 01-.31-1.08 4.72 4.72 0 010-1.19 5 5 0 01.23-1.18 3.64 3.64 0 01.49-1c.79-1.16 1.56-2.34 2.31-3.55s1.49-2.42 2.2-3.66a4 4 0 013.27-1.88 2.37 2.37 0 01.54 0l7.19 1.17a3.08 3.08 0 00.53 0 3.5 3.5 0 001.57-.44 3.14 3.14 0 00.66-.49 3.06 3.06 0 00.54-.6 3.1 3.1 0 00.26-.47l5.82-13.83a2.62 2.62 0 00-1.37-3.42l-6.54-2.85a3.06 3.06 0 01-1.63-1.89v-.12a2.17 2.17 0 01-.07-.35 1 1 0 010-.16v-.35a.66.66 0 010-.14 2.65 2.65 0 01.07-.48c.16-.63.32-1.25.47-1.87.29-1.25.56-2.49.81-3.73.12-.62.23-1.24.34-1.86a3.53 3.53 0 01.13-.54 5.69 5.69 0 012.61-3.13l4.51-2.14 4.51-2.14a4.52 4.52 0 002.34-3.7v-12.84a2.34 2.34 0 00-.14-.47zm-34.3 46.2c-.62 1.29-1.68 3.35-2.36 4.61-6.8 12.39-15.88 22.63-25.78 29-7 4.51-13.87 6.79-20.42 6.79a23.41 23.41 0 01-17-6.88c-.33-.34-.66-.69-1-1a29.61 29.61 0 01-5.41-9c0-.06-.05-.13-.08-.2q-.24-.62-.45-1.26c-.05-.12-.09-.25-.13-.37l-.36-1.14c0-.16-.09-.32-.13-.48-.1-.36-.2-.72-.29-1.09 0-.18-.09-.36-.14-.55l-.24-1.06-.12-.61c-.07-.35-.13-.71-.19-1.07 0-.21-.08-.42-.11-.63-.06-.37-.11-.73-.16-1.11 0-.21-.06-.42-.08-.63 0-.4-.09-.81-.13-1.22 0-.19 0-.37-.05-.56 0-.6-.1-1.21-.13-1.82-.6-12.48 2.87-26.74 9.77-40.16s16.49-24.54 27-31.3c7-4.5 13.87-6.79 20.42-6.79h1.97c.39 0 .78.06 1.16.11h.4l1.2.19.28.06c.49.09 1 .2 1.45.32 11.4 3 18.92 14.09 19.68 29.94.62 11.83-2.43 25.18-8.57 37.91z" fill="#5846f9"/><path d="M148.22 131.67a55.84 55.84 0 011.41 5.7 2.31 2.31 0 002.92 1.87l8.53-2.32a2 2 0 011.54.13c-.42-.23-9.92-5.74-10.5-6.06a2 2 0 00-1.55-.14l-2.38.65.03.17z" fill="#5846f9"/><path d="M148.22 131.67a55.84 55.84 0 011.41 5.7 2.31 2.31 0 002.92 1.87l8.53-2.32a2 2 0 011.54.13c-.42-.23-9.92-5.74-10.5-6.06a2 2 0 00-1.55-.14l-2.38.65.03.17z" opacity=".2"/><path d="M133.24 109.84a37.42 37.42 0 013.41 2.79 2.78 2.78 0 003.75.07l8.32-7.58a2 2 0 012.55-.28h-.08l-10.53-6.08a2.07 2.07 0 00-2.45.34l-5.65 5.15-.62 1.76a3.58 3.58 0 001.3 3.83z" fill="#5846f9"/><path d="M133.24 109.84a37.42 37.42 0 013.41 2.79 2.78 2.78 0 003.75.07l8.32-7.58a2 2 0 012.55-.28h-.08l-10.53-6.08a2.07 2.07 0 00-2.45.34l-5.65 5.15-.62 1.76a3.58 3.58 0 001.3 3.83z" opacity=".2"/><path d="M56.56 246l3.87-11a3.57 3.57 0 00-1.31-3.87 36.25 36.25 0 01-3.44-2.77 2.82 2.82 0 00-3.77-.06l-2.61 2.38-3.25 9.32a2.43 2.43 0 001.08 2.95c.17.09 9.5 5.49 10.51 6.06a2.42 2.42 0 01-1.08-3.01z" fill="#5846f9"/><path d="M56.56 246l3.87-11a3.57 3.57 0 00-1.31-3.87 36.25 36.25 0 01-3.44-2.77 2.82 2.82 0 00-3.77-.06l-2.61 2.38-3.25 9.32a2.43 2.43 0 001.08 2.95c.17.09 9.5 5.49 10.51 6.06a2.42 2.42 0 01-1.08-3.01z" opacity=".3"/><path d="M88.15 248.64l-.69-8.76a2.47 2.47 0 00-2.77-2.25 41 41 0 01-4.14.21c-.66 0-1.32 0-2-.05a3 3 0 00-1.8.63 4.53 4.53 0 01.5-.31l.35 4.46a2 2 0 00.86 1.56c.47.31 10.07 5.82 10.58 6.12l.18.07a1.88 1.88 0 01-1.07-1.68z" fill="#5846f9"/><path d="M88.15 248.64l-.69-8.76a2.47 2.47 0 00-2.77-2.25 41 41 0 01-4.14.21c-.66 0-1.32 0-2-.05a3 3 0 00-1.8.63 4.53 4.53 0 01.5-.31l.35 4.46a2 2 0 00.86 1.56c.47.31 10.07 5.82 10.58 6.12l.18.07a1.88 1.88 0 01-1.07-1.68z" opacity=".3"/><path d="M121.5 230.3l-4-5.15a2.54 2.54 0 00-3.6-.39l-1.14.88.16-.11 9.32 5.38a2.33 2.33 0 01-.74-.61z" fill="#5846f9"/><path d="M121.5 230.3l-4-5.15a2.54 2.54 0 00-3.6-.39l-1.14.88.16-.11 9.32 5.38a2.33 2.33 0 01-.74-.61z" opacity=".3"/><path d="M156.09 177.24l-8.17-4.74a3.06 3.06 0 001.63 1.89l6.54 2.85" fill="#5846f9"/><path d="M156.09 177.24l-8.17-4.74a3.06 3.06 0 001.63 1.89l6.54 2.85" opacity=".3"/><path d="M107.67 103.15c1.3-.12 2.61-.18 3.91-.18.71 0 1.42 0 2.12.06a3.86 3.86 0 003.27-2.15l5-10.06a3.18 3.18 0 013.63-1.59l8.6 2.52a2.38 2.38 0 01.81.41l-.2-.15-10.56-6.1a2.53 2.53 0 00-.56-.23l-8.6-2.52a3.18 3.18 0 00-3.63 1.59l-5 10.06a4.18 4.18 0 01-1.9 1.84l.34 4.24a2.46 2.46 0 002.77 2.26z" fill="#5846f9"/><path d="M113.7 103a3.25 3.25 0 001.92-.64l-10.51-6.06a3.76 3.76 0 01-.55.32l.34 4.24a2.46 2.46 0 002.77 2.26c1.3-.12 2.61-.18 3.91-.18.71.06 1.42.06 2.12.06z" opacity=".1"/><path d="M135 92.16l-.2-.15-10.56-6.1a2.53 2.53 0 00-.56-.23l-8.6-2.52a3.11 3.11 0 00-2.58.43l10.5 6.07a3.11 3.11 0 012.58-.43l8.6 2.52a2.38 2.38 0 01.82.41z" fill="#fafafa" opacity=".5"/><path d="M112.48 83.59a2.91 2.91 0 00-1 1.16l-5 10.06a4 4 0 01-1.35 1.52l10.51 6.06a4 4 0 001.35-1.51l5-10.06a3 3 0 011-1.15z" opacity=".2"/><path d="M28.79 202.12V189.2a4.49 4.49 0 012.34-3.7l8.74-4.15a5.53 5.53 0 002.73-3.67q.66-3.83 1.66-7.7a3.1 3.1 0 00-1.69-3.53l-6.3-2.74a2.62 2.62 0 01-1.36-3.42l5.82-13.83a3.46 3.46 0 013.56-2l6.89 1.13a4 4 0 003.82-1.81q2.19-3.85 4.66-7.45a4.9 4.9 0 00.38-4.45l-3.23-6.81a4 4 0 01.69-4.2l10-10.39a2.19 2.19 0 013.39.17l3.88 4.94a2.54 2.54 0 003.6.39q2.85-2.25 5.8-4.16l1.55-1a4.91 4.91 0 001.78-3.51l.68-9.18a4.39 4.39 0 012.61-3.48l10.83-4.05a2 2 0 011.73.1c-.47-.26-10-5.79-10.52-6.08a2 2 0 00-1.69-.06l-10.82 4a4.37 4.37 0 00-2.61 3.48l-.71 9.23a4.87 4.87 0 01-1.77 3.51c-.52.31-1 .64-1.55 1q-2.49 1.6-4.91 3.46s-8.84-5.12-9.12-5.26a2.17 2.17 0 00-2.64.46L47 114.8a4 4 0 00-.68 4.2l3.23 6.81a4.94 4.94 0 01-.38 4.45q-2.46 3.6-4.67 7.45a4 4 0 01-3.81 1.85l-6.89-1.13a3.45 3.45 0 00-3.56 2l-5.83 13.83a2.64 2.64 0 001.06 3.26l8.23 4.75a3 3 0 01.07 1.68q-1 3.87-1.66 7.7a5.54 5.54 0 01-2.74 3.67l-8.74 4.16a4.45 4.45 0 00-2.33 3.69v12.92a2 2 0 00.9 1.75l10.5 6.06.12.06a1.93 1.93 0 01-1.03-1.84z" fill="#5846f9"/><path d="M103.33 90.73c-.47-.26-10-5.79-10.52-6.08a2 2 0 00-1.69-.06l-10.82 4a4.08 4.08 0 00-1.46 1l10.48 6.11a4 4 0 011.45-1l10.83-4.05a2 2 0 011.73.08z" fill="#fafafa" opacity=".5"/><path d="M78.8 89.63a4.25 4.25 0 00-1.15 2.46l-.65 9.18a5.53 5.53 0 01-.39 1.64L87.08 109a5.55 5.55 0 00.4-1.64l.68-9.18a4.27 4.27 0 011.16-2.46z" opacity=".2"/><path d="M76.57 102.91a4 4 0 01-1.38 1.87c-.52.31-1 .64-1.55 1q-2.49 1.6-4.9 3.46l1.44.84a2.26 2.26 0 01.69.59l3.88 4.94a2.54 2.54 0 003.6.39q2.85-2.25 5.8-4.16l1.55-1a3.94 3.94 0 001.38-1.84z" opacity=".1"/><path d="M70.07 110l-10.45-6a2.17 2.17 0 00-2.64.46L47 114.8a3.75 3.75 0 00-.94 2l10.51 6.07a3.76 3.76 0 011-2l10-10.39a2.18 2.18 0 012.5-.48z" fill="#fafafa" opacity=".5"/><path d="M56.81 125.07a3.71 3.71 0 01-.26-2.15L46 116.85a3.71 3.71 0 00.3 2.15l3.23 6.81a4.2 4.2 0 01.36 1.76l10.51 6.07a4 4 0 00-.36-1.76z" opacity=".2"/><path d="M49.15 130.26q-2.46 3.6-4.67 7.45a3.9 3.9 0 01-1.73 1.52l10.51 6.07a3.92 3.92 0 001.74-1.52q2.19-3.85 4.66-7.45a4.81 4.81 0 00.74-2.69l-10.51-6.07a4.81 4.81 0 01-.74 2.69z" opacity=".1"/><path d="M40.67 139.56l-6.89-1.13a3.3 3.3 0 00-2.16.44l10.51 6.07a3.31 3.31 0 012.16-.44l6.89 1.13a3.71 3.71 0 002.08-.33l-10.51-6.07a3.71 3.71 0 01-2.08.33z" opacity=".2"/><path d="M31.62 138.87a3.31 3.31 0 00-1.4 1.52l-5.83 13.83a2.64 2.64 0 001.06 3.26l8.23 4.75 2 1.15a2.62 2.62 0 01-.81-3.08l5.82-13.83a3.31 3.31 0 011.4-1.52z" fill="#fafafa" opacity=".5"/><path d="M33.68 162.23a3 3 0 01.07 1.68q-1 3.87-1.66 7.7a5.1 5.1 0 01-1 2.16l10.51 6.07a5.1 5.1 0 001-2.16q.66-3.83 1.66-7.7a3.1 3.1 0 00-1.69-3.53l-6.3-2.74a2.69 2.69 0 01-.54-.33z" opacity=".2"/><path d="M31.09 173.77a4.94 4.94 0 01-1.74 1.51l-8.74 4.16a4.25 4.25 0 00-1.8 1.81l10.51 6.07a4.35 4.35 0 011.81-1.82l8.74-4.15a5 5 0 001.73-1.51z" opacity=".1"/><path d="M29.8 203.92a1.93 1.93 0 01-1-1.8V189.2a4.11 4.11 0 01.53-1.88l-10.51-6.07a4 4 0 00-.53 1.88v12.92a2 2 0 00.9 1.75l10.5 6.06z" fill="#fafafa" opacity=".5"/><path d="M40.38 235.37L35.26 227a3.81 3.81 0 01.31-4.18l7.6-9a5.16 5.16 0 00.83-4.42 55.24 55.24 0 01-1.46-5.8 2.32 2.32 0 00-2.94-1.87l-6.1 1.66a5.16 5.16 0 01-.85 4.36l-7.59 9a3.83 3.83 0 00-.32 4.18l5.13 8.34a2.29 2.29 0 00.83.81c.76.42 10.18 5.88 10.49 6.06l.25.11a2.2 2.2 0 01-1.06-.88z" fill="#5846f9"/><path d="M44 209.44a55.24 55.24 0 01-1.46-5.8 2.32 2.32 0 00-2.94-1.87l-6.1 1.66a5.32 5.32 0 01-.19 3.19l10.51 6.07a5.21 5.21 0 00.18-3.25z" opacity=".2"/><path d="M24.33 218.43l10.52 6.07a3.43 3.43 0 01.72-1.65l7.6-9a3.89 3.89 0 00.65-1.17l-10.51-6.07a3.71 3.71 0 01-.66 1.17l-7.59 9a3.54 3.54 0 00-.73 1.65z" opacity=".3"/><path d="M41.19 236.17l.25.11a2.2 2.2 0 01-1.06-.91L35.26 227a3.65 3.65 0 01-.41-2.53l-10.52-6.07a3.76 3.76 0 00.41 2.53l5.13 8.34a2.29 2.29 0 00.83.81c.76.45 10.18 5.92 10.49 6.09z" opacity=".2"/></g><g><path d="M117.28 345.85a10.5 10.5 0 004.9 8.14l106.73 61.64a10.87 10.87 0 009.81 0l187.94-108.51a9.2 9.2 0 000-16.28L319.93 229.2a10.85 10.85 0 00-9.8 0L122.18 337.71a10.5 10.5 0 00-4.9 8.14z" fill="#5846f9"/><path d="M431.57 299a10.54 10.54 0 01-4.9 8.14l-188 108.51a10.17 10.17 0 01-4.9 1.17v-10.64a10.06 10.06 0 004.9-1.17l188-108.51c2.37-1.37 2.66-3.48.88-5a10.51 10.51 0 014.02 7.5z" opacity=".5"/><path d="M122.18 343.37L228.91 405a10.87 10.87 0 009.81 0l187.94-108.5c2.71-1.57 2.71-4.1 0-5.66L319.93 229.2a10.85 10.85 0 00-9.8 0L122.18 337.71c-2.71 1.56-2.71 4.1 0 5.66z" opacity=".3"/><path d="M233.82 406.19v10.61a10 10 0 01-4.9-1.17L122.18 354a9.17 9.17 0 01-.5-16c-2.2 1.57-2 3.88.5 5.34L228.92 405a10 10 0 004.9 1.19z" opacity=".7"/><path d="M112.68 337.89c-2.54-1.47-2.4-3.95-2.4-7.07V183.39a10.84 10.84 0 014.91-8.49L303.12 66.39a10.54 10.54 0 019.5-.18c2.55 1.47 2.41 4 2.41 7.07v147.43a10.84 10.84 0 01-4.9 8.49L122.18 337.71a10.54 10.54 0 01-9.5.18z" fill="#5846f9"/><path d="M315 73.28c0-3.12-2.2-4.39-4.9-2.83L122.18 179a9.89 9.89 0 00-3.47 3.66l-7-4.07a10 10 0 013.47-3.66L303.12 66.39a10.51 10.51 0 019.5-.18c2.54 1.47 2.38 3.95 2.38 7.07z" opacity=".3"/><path d="M117.28 187.45v147.43c0 3.13 2.19 4.39 4.9 2.83l188-108.51a10.84 10.84 0 004.9-8.49V73.28c0-3.12-2.2-4.39-4.9-2.83L122.18 179a10.85 10.85 0 00-4.9 8.45z" opacity=".5"/><path d="M121.6 338a10.56 10.56 0 01-8.92-.13c-2.54-1.46-2.4-3.94-2.4-7.06V183.39a9.84 9.84 0 011.44-4.83l7 4.06a10.08 10.08 0 00-1.44 4.82v147.44c-.01 2.9 1.89 4.2 4.32 3.12z" opacity=".7"/><path d="M124.82 184.62L306 80c1.62-.94 2.94-.18 2.94 1.7v128.72a6.48 6.48 0 01-2.94 5.09L124.82 320.1c-1.63.94-2.95.18-2.95-1.69v-128.7a6.5 6.5 0 012.95-5.09z" fill="#fafafa"/><path d="M135.74 338L310.2 237.28a5.42 5.42 0 014.9 0l2.91 1.6c1.35.78 1.35 2 0 2.83l-174.48 100.7a5.44 5.44 0 01-4.91 0l-2.88-1.58c-1.35-.78-1.35-2.05 0-2.83zM149.43 346.14l174.45-100.72a5 5 0 014.48-.25l45.41 26.22c1.12.65.93 1.8-.43 2.58L199.09 374.56a5 5 0 01-4.48.25L149 348.72c-1.11-.65-.93-1.8.43-2.58z" fill="#263238" opacity=".3"/><path d="M300.59 287.72l5.47-3.15c.23-.14.25-.34 0-.46l-5.22-3a.87.87 0 00-.8 0l-5.46 3.15c-.23.14-.25.34 0 .46l5.22 3a.88.88 0 00.79 0zm-8-10.91l-5.43 3.19c-.24.14-.26.34-.05.46l5.23 3a.88.88 0 00.79 0l5.46-3.15c.23-.14.25-.34.05-.46l-5.23-3a.85.85 0 00-.79-.04zM275 287l-9.24 5.33c-.23.14-.25.34-.05.46l5.23 3a.85.85 0 00.79 0l9.24-5.33c.24-.14.26-.34.05-.46l-5.22-3a.87.87 0 00-.8 0zm9.67-5.58l-5.47 3.15c-.23.14-.25.34 0 .46l5.22 3a.9.9 0 00.8 0l5.46-3.15c.23-.14.25-.34 0-.46l-5.22-3a.85.85 0 00-.82 0zm-21.43 12.37l-5.46 3.15c-.24.14-.26.34-.05.46l5.22 3a.9.9 0 00.8 0l5.46-3.15c.23-.14.25-.34.05-.46l-5.23-3a.88.88 0 00-.82 0zm-8 4.61l-5.46 3.15c-.23.14-.25.34 0 .46l5.22 3a.88.88 0 00.79 0l5.47-3.15c.23-.14.25-.34 0-.46l-5.22-3a.87.87 0 00-.82 0zm20.49 12.31l5.46-3.15c.23-.14.25-.34.05-.46l-5.23-3a.85.85 0 00-.79 0l-5.47 3.15c-.23.14-.25.34 0 .46l5.22 3a.9.9 0 00.74 0zm-8 4.61l5.47-3.16c.23-.13.25-.33 0-.45l-5.22-3a.87.87 0 00-.8 0l-5.46 3.15c-.23.13-.25.34-.05.46l5.23 3a.92.92 0 00.82 0zm-8 4.61l5.46-3.16c.23-.13.26-.34.05-.45l-5.23-3a.85.85 0 00-.79 0l-5.46 3.15c-.23.13-.25.34-.05.46l5.23 3a.88.88 0 00.8 0zm-8 4.61l5.46-3.16c.23-.13.25-.34 0-.46l-5.23-3a.88.88 0 00-.79 0l-5.47 3.16c-.23.13-.25.34 0 .46l5.22 3a.9.9 0 00.84 0zm40.85-32.21l5.46-3.15c.23-.14.26-.34.05-.46l-5.23-3a.85.85 0 00-.79 0l-5.46 3.15c-.23.14-.25.34-.05.46l5.23 3a.88.88 0 00.82 0zm-8.92 13.77l12.18-7c.24-.14.26-.34.05-.46l-12.69-7.33a.85.85 0 00-.79 0l-6.28 3.69c-.23.13-.25.33 0 .45l6.72 3.88c.2.12.18.33-.05.46l-5 2.91c-.23.14-.26.34-.05.46l5.23 3a.88.88 0 00.71-.06zm-36.42-3.1l-5.46 3.15c-.23.14-.25.34-.05.46l5.23 3a.88.88 0 00.79 0l5.46-3.15c.24-.14.26-.34 0-.46l-5.21-3a.85.85 0 00-.76 0zm-8 4.61l-5.46 3.15c-.24.13-.26.34-.05.46l5.22 3a.94.94 0 00.8 0l5.46-3.16c.23-.13.25-.33.05-.45l-5.23-3a.85.85 0 00-.77.01zm-44.18 49.21a.88.88 0 00.79 0l5.47-3.15c.23-.14.25-.34 0-.46l-5.22-3a.87.87 0 00-.8 0l-5.46 3.15c-.23.14-.25.34 0 .46zm-19.69-12.34l-5.46 3.15c-.23.14-.25.34-.05.46l5.23 3a.85.85 0 00.79 0l5.46-3.15c.24-.14.26-.34 0-.46l-5.22-3a.9.9 0 00-.73.01zm10.13 9.24a.85.85 0 00.79 0l5.46-3.15c.23-.13.25-.34 0-.46l-5.23-3a.92.92 0 00-.79 0l-5.46 3.15c-.24.14-.26.34-.05.46zm22 4.95l5.46-3.15c.24-.13.26-.34.05-.46l-5.22-3a.9.9 0 00-.8 0l-5.46 3.16c-.23.13-.25.34 0 .45l5.23 3a.85.85 0 00.78.01zm-8.77 4.64a.85.85 0 00.79 0l5.46-3.15c.23-.13.25-.34 0-.46l-5.23-3a.92.92 0 00-.79 0l-5.46 3.16c-.24.13-.26.33-.05.45zm-15.39-23.44l-5.43 3.13c-.23.14-.25.34 0 .46l5.22 3a.87.87 0 00.8 0l5.46-3.15c.23-.14.25-.34 0-.46l-5.22-3a.88.88 0 00-.79.03zm39.91-23.05l-5.42 3.18c-.23.13-.25.34-.05.46l5.23 3a.88.88 0 00.79 0l5.46-3.16c.24-.13.26-.34.05-.46l-5.23-3a.88.88 0 00-.79-.01zm-31.93 18.44l-5.46 3.15c-.24.14-.26.34-.05.46l5.23 3a.85.85 0 00.79 0l5.46-3.15c.23-.13.25-.34 0-.46l-5.23-3a.92.92 0 00-.7.01zm39.91-23l-5.46 3.15c-.23.13-.25.34 0 .46l5.22 3a.88.88 0 00.79 0l5.47-3.16c.23-.13.25-.34 0-.45l-5.22-3a.87.87 0 00-.76-.03zm-16 9.21l-5.46 3.16c-.24.13-.26.34 0 .46l5.22 3a.9.9 0 00.8 0l5.46-3.16c.23-.13.25-.34.05-.46l-5.23-3a.88.88 0 00-.76-.03zm-8 4.61l-5.47 3.16c-.23.13-.25.34 0 .45l5.22 3a.87.87 0 00.8 0l5.46-3.15c.23-.13.25-.34 0-.46l-5.22-3a.88.88 0 00-.69-.03zm-8 4.61l-5.46 3.16c-.23.13-.25.33 0 .45l5.23 3a.85.85 0 00.79 0l5.46-3.15c.24-.13.26-.34.05-.46l-5.22-3a.9.9 0 00-.74-.03zm36.45 3.09l5.46-3.15c.23-.13.26-.34.05-.46l-5.23-3a.88.88 0 00-.79 0l-5.46 3.16c-.23.13-.25.34 0 .45l5.23 3a.85.85 0 00.85-.03zm74.48-67.13l-5.47 3.15c-.23.14-.25.34 0 .46l5.22 3a.87.87 0 00.8 0l5.46-3.15c.23-.14.25-.34 0-.46l-5.22-3a.88.88 0 00-.68-.03zm-9.67 5.58l-5.46 3.15c-.23.14-.25.34-.05.46l5.23 3a.88.88 0 00.79 0l5.46-3.15c.24-.14.26-.34.05-.46l-5.22-3a.9.9 0 00-.69-.03zM318.25 262l-5.46 3.15c-.23.14-.26.34-.05.46l5.23 3a.85.85 0 00.79 0l5.46-3.15c.23-.14.25-.34 0-.46l-5.22-3a.92.92 0 00-.75 0zm-44.13 41l5.47-3.15c.23-.13.25-.34 0-.46l-5.22-3a.94.94 0 00-.8 0l-5.46 3.16c-.23.13-.25.33 0 .45l5.23 3a.85.85 0 00.78 0zM327 257.37a.94.94 0 00-.8 0l-5.46 3.16c-.23.13-.25.33 0 .45l5.23 3a.85.85 0 00.79 0l5.46-3.15c.24-.13.26-.34.05-.46zm-83.26 71.78l5.47-3.16c.23-.13.25-.34 0-.46l-5.22-3a.9.9 0 00-.8 0l-5.46 3.16c-.23.13-.25.34-.05.46l5.23 3a.88.88 0 00.86 0zm97.9-56.53l5.46-3.15c.24-.13.26-.34.05-.46L342 266a.94.94 0 00-.8 0l-5.46 3.16c-.23.13-.25.33-.05.45l5.23 3a.85.85 0 00.75.01zm-15.45.3l5.47-3.15c.23-.13.25-.34 0-.46l-5.22-3a.94.94 0 00-.8 0l-5.46 3.15c-.23.14-.25.34-.05.46l5.23 3a.85.85 0 00.86 0zm8.27-11.24a.92.92 0 00-.79 0l-5.47 3.16c-.23.13-.25.33 0 .45l5.22 3a.87.87 0 00.8 0l5.46-3.15c.23-.13.25-.34.05-.46zm1.68-1l12.72 7.32a.87.87 0 00.8 0l5.46-3.15c.23-.13.25-.34.05-.46l-12.7-7.32a.88.88 0 00-.79 0l-5.46 3.16c-.22.16-.22.37-.05.48zM317.7 270.9l-5.46 3.15c-.23.14-.25.34 0 .46l5.23 3a.85.85 0 00.79 0l5.46-3.15c.24-.14.26-.34.05-.46l-5.23-3a.88.88 0 00-.81.03zm-60.08 34.69l-5.46 3.15c-.24.14-.26.34-.05.46l5.22 3a.9.9 0 00.8 0l5.46-3.15c.23-.14.25-.34.05-.46l-5.23-3a.88.88 0 00-.76.03zm75.25-28.36a.85.85 0 00.79 0l5.46-3.15c.23-.14.25-.34.05-.46l-5.23-3a.88.88 0 00-.79 0l-5.46 3.15c-.23.14-.26.34-.05.46zM265.63 301l-5.46 3.15c-.23.14-.25.34-.05.46l5.23 3a.85.85 0 00.79 0l5.46-3.15c.23-.14.26-.34 0-.46l-5.23-3a.88.88 0 00-.74 0zm-62.57 51.21a.9.9 0 00.8 0l5.46-3.15c.23-.14.25-.34.05-.46l-5.23-3a.88.88 0 00-.79 0l-5.46 3.15c-.24.14-.26.34 0 .46zm-9.28-9.73l-5.46 3.16c-.23.13-.25.34 0 .45l5.23 3a.85.85 0 00.79 0l5.46-3.15c.24-.13.26-.34.05-.46l-5.22-3a.94.94 0 00-.85.01zm18.06 5.09l5.46-3.15c.24-.14.26-.34 0-.46l-5.23-3a.88.88 0 00-.79 0l-5.46 3.15c-.23.14-.25.34-.05.46l5.23 3a.85.85 0 00.84.01zm8-4.61l5.47-3.15c.23-.13.25-.34 0-.46l-5.22-3a.9.9 0 00-.8 0l-5.46 3.15c-.23.14-.25.34 0 .46l5.22 3a.85.85 0 00.77.04zm8-4.61l5.46-3.15c.23-.13.25-.34 0-.46l-5.23-3a.92.92 0 00-.79 0l-5.46 3.16c-.24.13-.26.34-.05.45l5.22 3a.87.87 0 00.82.01zm-26-.48L196.3 341c-.23.13-.25.34 0 .45l5.22 3a.87.87 0 00.8 0l5.46-3.15c.23-.13.25-.34 0-.46l-5.22-3a.88.88 0 00-.79.04zm8-4.61l-5.46 3.16c-.24.13-.26.34 0 .46l5.23 3a.88.88 0 00.79 0l5.46-3.16c.23-.13.25-.34.05-.46l-5.23-3a.88.88 0 00-.93.01zm31.93-18.43l-5.55 3.17c-.23.14-.25.34-.05.46l5.23 3a.88.88 0 00.79 0l5.46-3.15c.24-.14.26-.34 0-.46l-5.23-3a.85.85 0 00-.74-.01zm-8 4.61l-5.46 3.15c-.24.13-.26.34-.05.46l5.22 3a.94.94 0 00.8 0l5.46-3.15c.23-.14.25-.34.05-.46l-5.23-3a.85.85 0 00-.86.01zm16-9.22l-5.46 3.15c-.23.14-.25.34 0 .46l5.22 3a.88.88 0 00.79 0l5.47-3.15c.23-.14.25-.34 0-.46l-5.22-3a.87.87 0 00-.91.01zm-31.93 18.43l-5.46 3.16c-.23.13-.25.34-.05.46l5.23 3a.88.88 0 00.79 0l5.46-3.16c.24-.13.26-.34.05-.46l-5.23-3a.88.88 0 00-.9.01zm8-4.6l-5.46 3.15c-.23.13-.25.34 0 .46l5.22 3a.88.88 0 00.79 0l5.47-3.16c.23-.13.25-.34 0-.45l-5.22-3a.87.87 0 00-.93.01zm-10.19 30l5.47-3.16c.23-.13.25-.34 0-.46l-5.22-3a.9.9 0 00-.8 0l-5.46 3.16c-.23.13-.25.34 0 .46l5.22 3a.88.88 0 00.66.03zm-42.09-2l-5.23-3a.85.85 0 00-.79 0l-5.54 3.2c-.24.14-.26.34 0 .46l5.23 3a.88.88 0 00.79 0l5.46-3.15c.13-.15.15-.35-.05-.47zm10.4 2.61l-5.22-3a.88.88 0 00-.79 0l-8.41 4.85c-.23.14-.25.34 0 .46l5.22 3a.88.88 0 00.79 0l8.41-4.85c.04-.12.04-.3-.13-.42zm-18.2-8.57l-5.23-3a.88.88 0 00-.79 0l-6.85 3.91c-.23.13-.26.34 0 .46l5.23 3a.88.88 0 00.79 0l6.72-3.88c.18-.13.2-.33 0-.45zm5.15-3a.9.9 0 00.8 0L177 340c.23-.13.25-.34.05-.45l-5.23-3a.85.85 0 00-.79 0l-5.47 3.15c-.23.13-.25.34 0 .46zm22.49 14.71l-5.22-3a.87.87 0 00-.8 0l-10.5 6.06c-.23.14-.26.34 0 .46l5.23 3a.88.88 0 00.79 0l10.5-6.06c.19-.14.21-.34 0-.46zm3.68 6.49l-5.22-3a.88.88 0 00-.79 0l-6.73 3.88c-.23.14-.25.34 0 .46l5.22 3a.88.88 0 00.79 0l6.73-3.88c.19-.14.21-.34 0-.46zm33.06-55.4a.92.92 0 00.79 0l5.46-3.16c.24-.13.26-.33.05-.45l-5.22-3a.87.87 0 00-.8 0l-5.42 3.13c-.23.13-.25.34-.05.46zm-16 9.21a.9.9 0 00.8 0l5.46-3.16c.23-.13.25-.34 0-.46l-5.22-3a.88.88 0 00-.79 0l-5.39 3.15c-.23.13-.25.34 0 .46zm-35.4 20.44a.88.88 0 00.79 0l5.46-3.16c.23-.13.25-.33 0-.45l-5.23-3a.85.85 0 00-.79 0l-5.46 3.15c-.23.13-.26.34-.05.46zm43.39-25.05a.88.88 0 00.79 0l5.46-3.16c.23-.13.25-.34.05-.45l-5.23-3a.85.85 0 00-.79 0L217 310c-.24.13-.26.34 0 .46zm-16 9.22a.88.88 0 00.79 0l5.46-3.16c.24-.13.26-.34.05-.46l-5.22-3a.9.9 0 00-.8 0l-5.41 3.15c-.23.13-.25.34 0 .46zm-5.13 41.9a.88.88 0 00-.79 0l-8.4 4.85c-.23.14-.25.34-.05.46l5.23 3a.88.88 0 00.79 0l8.4-4.85c.24-.14.26-.34 0-.46zm-6.27-35.28a.9.9 0 00.8 0l5.46-3.15c.23-.14.25-.34 0-.46l-5.22-3a.85.85 0 00-.79 0l-5.47 3.15c-.23.14-.25.34 0 .46zm-8 4.61a.92.92 0 00.79 0l5.46-3.15c.24-.14.26-.34.05-.46l-5.22-3a.87.87 0 00-.8 0l-5.46 3.15c-.23.14-.25.34 0 .46zm162.17-54.72a.92.92 0 00-.79 0L334.66 287c-.23.14-.25.34 0 .46l5.22 3a.87.87 0 00.8 0l13.44-7.76c.23-.13.26-.34.05-.46zm-17.64 10.19a.9.9 0 00-.8 0l-5.46 3.18c-.23.14-.25.34-.05.46l5.23 3a.85.85 0 00.79 0l5.46-3.15c.24-.14.26-.34.05-.46zm-107.75 60.06l5.46-3.16c.23-.13.25-.34.05-.46l-5.23-3a.88.88 0 00-.79 0l-5.46 3.15c-.24.13-.26.34 0 .46l5.22 3a.9.9 0 00.75.01zm91.78-50.84a.85.85 0 00-.79 0l-5.5 3.18c-.23.14-.25.34 0 .46l5.22 3a.9.9 0 00.8 0l5.46-3.15c.23-.14.25-.34 0-.46zm41.6-24a.94.94 0 00-.8 0l-5.46 3.16c-.23.13-.25.34-.05.45l5.23 3a.85.85 0 00.79 0l5.46-3.15c.24-.13.26-.34.05-.46zM370.1 273l-12.7-7.32a.88.88 0 00-.79 0l-5.46 3.16c-.23.13-.25.34 0 .45l12.69 7.33a.87.87 0 00.8 0l5.46-3.15c.18-.12.2-.33 0-.47zm-84.64 42.83a.9.9 0 00-.8 0l-6.72 3.88c-.23.14-.25.34 0 .46l5.22 3a.88.88 0 00.79 0l6.73-3.88c.23-.13.25-.34 0-.46zm20.17-11.64a.87.87 0 00-.8 0l-8.4 4.85c-.23.13-.25.34-.05.46l5.23 3a.88.88 0 00.79 0l8.41-4.85c.23-.14.25-.34 0-.46zM267 326.53a.88.88 0 00-.79 0l-45 26c-.23.14-.25.34-.05.46l5.23 3a.88.88 0 00.79 0l45-26c.23-.13.25-.34.05-.46zm-47.48 27.41a.85.85 0 00-.79 0l-6.73 3.91c-.24.13-.26.34 0 .46l5.22 3a.9.9 0 00.8 0l6.72-3.89c.23-.13.25-.33.05-.45zm56.72-32.75a.85.85 0 00-.79 0l-6.72 3.88c-.23.13-.26.34-.05.46l5.23 3a.88.88 0 00.79 0l6.72-3.88c.24-.14.26-.34.05-.46zm-66 38.09a.9.9 0 00-.8 0l-6.72 3.88c-.23.14-.25.34 0 .46l5.22 3a.85.85 0 00.79 0l6.73-3.88c.23-.13.25-.34 0-.46zm84.45-48.76a.88.88 0 00-.79 0l-6.72 3.89c-.24.13-.26.33-.05.45l5.22 3a.87.87 0 00.8 0l6.72-3.88c.23-.13.25-.34.05-.46zM323.27 294a.85.85 0 00-.79 0l-5.48 3.2c-.23.14-.26.34 0 .46l5.23 3a.88.88 0 00.79 0l5.46-3.15c.23-.14.25-.34.05-.46zm17.88-12.48l5.47-3.15c.23-.14.25-.34 0-.46l-5.22-3a.94.94 0 00-.8 0l-5.46 3.15c-.23.14-.25.34 0 .46l5.22 3a.85.85 0 00.79.02zm-32.57 1.57L314 280c.23-.14.25-.34 0-.46l-5.23-3a.88.88 0 00-.79 0l-5.46 3.15c-.24.14-.26.34-.05.46l5.22 3a.87.87 0 00.89-.04zm-21.21 29.48l16-9.21c.23-.14.25-.34.05-.46l-5.23-3a.85.85 0 00-.79 0l-16 9.22c-.23.13-.25.33 0 .45l5.23 3a.85.85 0 00.74.02zm45-26.41a.85.85 0 00.79 0l5.46-3.15c.24-.14.26-.34.05-.46l-5.23-3a.88.88 0 00-.79 0l-5.46 3.15c-.23.14-.25.34-.05.46zm-6.67-4.34l5.46-3.15c.23-.14.25-.34.05-.46l-5.23-3a.88.88 0 00-.79 0l-5.47 3.15c-.23.14-.25.34 0 .46l5.22 3a.87.87 0 00.77.02zm-46.31 35.38l5.46-3.15c.23-.14.26-.34 0-.46l-5.23-3a.88.88 0 00-.79 0l-5.46 3.15c-.23.14-.25.34-.05.46l5.23 3a.85.85 0 00.84 0zm35.34-20.83a.88.88 0 00.79 0l5.47-3.15c.23-.14.25-.34 0-.46l-5.22-3a.87.87 0 00-.8 0l-5.46 3.15c-.23.14-.25.34 0 .46zm-75.26 43.88l5.47-3.16c.23-.13.25-.33 0-.45l-5.22-3a.87.87 0 00-.8 0l-5.46 3.15c-.23.13-.25.34-.05.46l5.23 3a.88.88 0 00.83 0zm8-4.61l5.46-3.15c.23-.14.25-.34.05-.46l-5.23-3a.85.85 0 00-.79 0l-5.46 3.15c-.24.13-.26.34-.05.46l5.22 3a.94.94 0 00.79 0zm-16 9.22l5.53-3.16c.24-.13.26-.34.05-.45l-5.23-3a.85.85 0 00-.79 0l-5.46 3.15c-.23.13-.25.34-.05.46l5.23 3a.88.88 0 00.74 0zm31.93-18.44l5.47-3.15c.23-.14.25-.34 0-.46l-5.22-3a.9.9 0 00-.8 0l-5.4 3.19c-.23.14-.25.34-.05.46l5.23 3a.88.88 0 00.79-.04zm-8 4.61l5.46-3.15c.23-.14.26-.34.05-.46l-5.23-3a.85.85 0 00-.79 0l-5.46 3.15c-.23.14-.25.34-.05.46l5.23 3a.88.88 0 00.83-.03zm16-9.22l5.46-3.15c.23-.14.25-.34.05-.46l-5.23-3a.88.88 0 00-.79 0l-5.47 3.15c-.23.14-.25.34 0 .46l5.22 3a.87.87 0 00.77 0zm43.6-64.12a.88.88 0 00.79 0l5.47-3.16c.23-.13.25-.34 0-.46l-1.39-.8a.85.85 0 00-.79 0l-5.46 3.15c-.23.14-.26.34-.05.46zm-39.68 25.13a.94.94 0 00.8 0l5.46-3.16c.23-.13.25-.33 0-.45l-5.22-3a.85.85 0 00-.79 0l-5.47 3.15c-.23.13-.25.34 0 .46zm16-9.22a.88.88 0 00.79 0l5.46-3.15c.24-.14.26-.34.05-.46l-5.22-3a.87.87 0 00-.8 0l-5.46 3.15c-.23.14-.25.34-.05.46zm-25.72 14.84a.9.9 0 00.8 0l5.46-3.16c.23-.13.25-.34.05-.46l-5.23-3a.85.85 0 00-.79 0l-5.52 3.18c-.24.13-.26.34-.05.46zm17.74-10.23a.88.88 0 00.79 0l5.46-3.15c.23-.14.25-.34.05-.46l-5.23-3a.85.85 0 00-.79 0l-5.46 3.15c-.24.14-.26.34-.05.46zm-33.7 19.45a.85.85 0 00.79 0l5.46-3.15c.24-.13.26-.34 0-.46l-5.23-3a.88.88 0 00-.79 0l-5.46 3.16c-.23.13-.25.34-.05.45zm8-4.61a.88.88 0 00.79 0l5.47-3.16c.23-.13.25-.34 0-.46l-5.22-3a.9.9 0 00-.8 0l-5.46 3.16c-.23.13-.25.34 0 .46zM299 266.91a.87.87 0 00.8 0l5.46-3.15c.23-.13.25-.34.05-.46l-1.39-.8a.87.87 0 00-.8 0l-5.46 3.15c-.23.13-.25.34-.05.46zm24-13.83a.9.9 0 00.8 0l5.46-3.16c.23-.13.25-.34.05-.46l-1.39-.8a.87.87 0 00-.8 0l-5.46 3.15c-.23.14-.25.34-.05.46zm11 6.34a.87.87 0 00.8 0l5.46-3.15c.23-.13.25-.34 0-.46l-5.22-3a.88.88 0 00-.79 0l-5.5 3.19c-.23.13-.25.34 0 .45zm15.21 17.51l5.46-3.15c.23-.13.25-.34 0-.46l-5.23-3a.88.88 0 00-.79 0l-5.46 3.16c-.24.13-.26.33-.05.45l5.22 3a.87.87 0 00.78 0zM307 262.3a.85.85 0 00.79 0l5.46-3.15c.24-.13.26-.34.05-.46l-1.39-.8a.85.85 0 00-.79 0l-5.48 3.11c-.23.13-.25.34 0 .46zm-65.4 40a.87.87 0 00.8 0l5.46-3.15c.23-.13.25-.34.05-.46l-5.23-3a.92.92 0 00-.79 0l-5.46 3.16c-.24.13-.26.33 0 .45z" fill="#5846f9"/><path d="M300.59 287.72l5.47-3.15c.23-.14.25-.34 0-.46l-5.22-3a.87.87 0 00-.8 0l-5.46 3.15c-.23.14-.25.34 0 .46l5.22 3a.88.88 0 00.79 0zm-8-10.91l-5.43 3.19c-.24.14-.26.34-.05.46l5.23 3a.88.88 0 00.79 0l5.46-3.15c.23-.14.25-.34.05-.46l-5.23-3a.85.85 0 00-.79-.04zM275 287l-9.24 5.33c-.23.14-.25.34-.05.46l5.23 3a.85.85 0 00.79 0l9.24-5.33c.24-.14.26-.34.05-.46l-5.22-3a.87.87 0 00-.8 0zm9.67-5.58l-5.47 3.15c-.23.14-.25.34 0 .46l5.22 3a.9.9 0 00.8 0l5.46-3.15c.23-.14.25-.34 0-.46l-5.22-3a.85.85 0 00-.82 0zm-21.43 12.37l-5.46 3.15c-.24.14-.26.34-.05.46l5.22 3a.9.9 0 00.8 0l5.46-3.15c.23-.14.25-.34.05-.46l-5.23-3a.88.88 0 00-.82 0zm-8 4.61l-5.46 3.15c-.23.14-.25.34 0 .46l5.22 3a.88.88 0 00.79 0l5.47-3.15c.23-.14.25-.34 0-.46l-5.22-3a.87.87 0 00-.82 0zm20.49 12.31l5.46-3.15c.23-.14.25-.34.05-.46l-5.23-3a.85.85 0 00-.79 0l-5.47 3.15c-.23.14-.25.34 0 .46l5.22 3a.9.9 0 00.74 0zm-8 4.61l5.47-3.16c.23-.13.25-.33 0-.45l-5.22-3a.87.87 0 00-.8 0l-5.46 3.15c-.23.13-.25.34-.05.46l5.23 3a.92.92 0 00.82 0zm-8 4.61l5.46-3.16c.23-.13.26-.34.05-.45l-5.23-3a.85.85 0 00-.79 0l-5.46 3.15c-.23.13-.25.34-.05.46l5.23 3a.88.88 0 00.8 0zm-8 4.61l5.46-3.16c.23-.13.25-.34 0-.46l-5.23-3a.88.88 0 00-.79 0l-5.47 3.16c-.23.13-.25.34 0 .46l5.22 3a.9.9 0 00.84 0zm40.85-32.21l5.46-3.15c.23-.14.26-.34.05-.46l-5.23-3a.85.85 0 00-.79 0l-5.46 3.15c-.23.14-.25.34-.05.46l5.23 3a.88.88 0 00.82 0zm-8.92 13.77l12.18-7c.24-.14.26-.34.05-.46l-12.69-7.33a.85.85 0 00-.79 0l-6.28 3.69c-.23.13-.25.33 0 .45l6.72 3.88c.2.12.18.33-.05.46l-5 2.91c-.23.14-.26.34-.05.46l5.23 3a.88.88 0 00.71-.06zm-36.42-3.1l-5.46 3.15c-.23.14-.25.34-.05.46l5.23 3a.88.88 0 00.79 0l5.46-3.15c.24-.14.26-.34 0-.46l-5.21-3a.85.85 0 00-.76 0zm-8 4.61l-5.46 3.15c-.24.13-.26.34-.05.46l5.22 3a.94.94 0 00.8 0l5.46-3.16c.23-.13.25-.33.05-.45l-5.23-3a.85.85 0 00-.77.01zm-44.18 49.21a.88.88 0 00.79 0l5.47-3.15c.23-.14.25-.34 0-.46l-5.22-3a.87.87 0 00-.8 0l-5.46 3.15c-.23.14-.25.34 0 .46zm-19.69-12.34l-5.46 3.15c-.23.14-.25.34-.05.46l5.23 3a.85.85 0 00.79 0l5.46-3.15c.24-.14.26-.34 0-.46l-5.22-3a.9.9 0 00-.73.01zm10.13 9.24a.85.85 0 00.79 0l5.46-3.15c.23-.13.25-.34 0-.46l-5.23-3a.92.92 0 00-.79 0l-5.46 3.15c-.24.14-.26.34-.05.46zm22 4.95l5.46-3.15c.24-.13.26-.34.05-.46l-5.22-3a.9.9 0 00-.8 0l-5.46 3.16c-.23.13-.25.34 0 .45l5.23 3a.85.85 0 00.78.01zm-8.77 4.64a.85.85 0 00.79 0l5.46-3.15c.23-.13.25-.34 0-.46l-5.23-3a.92.92 0 00-.79 0l-5.46 3.16c-.24.13-.26.33-.05.45zm-15.39-23.44l-5.43 3.13c-.23.14-.25.34 0 .46l5.22 3a.87.87 0 00.8 0l5.46-3.15c.23-.14.25-.34 0-.46l-5.22-3a.88.88 0 00-.79.03zm39.91-23.05l-5.42 3.18c-.23.13-.25.34-.05.46l5.23 3a.88.88 0 00.79 0l5.46-3.16c.24-.13.26-.34.05-.46l-5.23-3a.88.88 0 00-.79-.01zm-31.93 18.44l-5.46 3.15c-.24.14-.26.34-.05.46l5.23 3a.85.85 0 00.79 0l5.46-3.15c.23-.13.25-.34 0-.46l-5.23-3a.92.92 0 00-.7.01zm39.91-23l-5.46 3.15c-.23.13-.25.34 0 .46l5.22 3a.88.88 0 00.79 0l5.47-3.16c.23-.13.25-.34 0-.45l-5.22-3a.87.87 0 00-.76-.03zm-16 9.21l-5.46 3.16c-.24.13-.26.34 0 .46l5.22 3a.9.9 0 00.8 0l5.46-3.16c.23-.13.25-.34.05-.46l-5.23-3a.88.88 0 00-.76-.03zm-8 4.61l-5.47 3.16c-.23.13-.25.34 0 .45l5.22 3a.87.87 0 00.8 0l5.46-3.15c.23-.13.25-.34 0-.46l-5.22-3a.88.88 0 00-.69-.03zm-8 4.61l-5.46 3.16c-.23.13-.25.33 0 .45l5.23 3a.85.85 0 00.79 0l5.46-3.15c.24-.13.26-.34.05-.46l-5.22-3a.9.9 0 00-.74-.03zm36.45 3.09l5.46-3.15c.23-.13.26-.34.05-.46l-5.23-3a.88.88 0 00-.79 0l-5.46 3.16c-.23.13-.25.34 0 .45l5.23 3a.85.85 0 00.85-.03zm74.48-67.13l-5.47 3.15c-.23.14-.25.34 0 .46l5.22 3a.87.87 0 00.8 0l5.46-3.15c.23-.14.25-.34 0-.46l-5.22-3a.88.88 0 00-.68-.03zm-9.67 5.58l-5.46 3.15c-.23.14-.25.34-.05.46l5.23 3a.88.88 0 00.79 0l5.46-3.15c.24-.14.26-.34.05-.46l-5.22-3a.9.9 0 00-.69-.03zM318.25 262l-5.46 3.15c-.23.14-.26.34-.05.46l5.23 3a.85.85 0 00.79 0l5.46-3.15c.23-.14.25-.34 0-.46l-5.22-3a.92.92 0 00-.75 0zm-44.13 41l5.47-3.15c.23-.13.25-.34 0-.46l-5.22-3a.94.94 0 00-.8 0l-5.46 3.16c-.23.13-.25.33 0 .45l5.23 3a.85.85 0 00.78 0zM327 257.37a.94.94 0 00-.8 0l-5.46 3.16c-.23.13-.25.33 0 .45l5.23 3a.85.85 0 00.79 0l5.46-3.15c.24-.13.26-.34.05-.46zm-83.26 71.78l5.47-3.16c.23-.13.25-.34 0-.46l-5.22-3a.9.9 0 00-.8 0l-5.46 3.16c-.23.13-.25.34-.05.46l5.23 3a.88.88 0 00.86 0zm97.9-56.53l5.46-3.15c.24-.13.26-.34.05-.46L342 266a.94.94 0 00-.8 0l-5.46 3.16c-.23.13-.25.33-.05.45l5.23 3a.85.85 0 00.75.01zm-15.45.3l5.47-3.15c.23-.13.25-.34 0-.46l-5.22-3a.94.94 0 00-.8 0l-5.46 3.15c-.23.14-.25.34-.05.46l5.23 3a.85.85 0 00.86 0zm8.27-11.24a.92.92 0 00-.79 0l-5.47 3.16c-.23.13-.25.33 0 .45l5.22 3a.87.87 0 00.8 0l5.46-3.15c.23-.13.25-.34.05-.46zm1.68-1l12.72 7.32a.87.87 0 00.8 0l5.46-3.15c.23-.13.25-.34.05-.46l-12.7-7.32a.88.88 0 00-.79 0l-5.46 3.16c-.22.16-.22.37-.05.48zM317.7 270.9l-5.46 3.15c-.23.14-.25.34 0 .46l5.23 3a.85.85 0 00.79 0l5.46-3.15c.24-.14.26-.34.05-.46l-5.23-3a.88.88 0 00-.81.03zm-60.08 34.69l-5.46 3.15c-.24.14-.26.34-.05.46l5.22 3a.9.9 0 00.8 0l5.46-3.15c.23-.14.25-.34.05-.46l-5.23-3a.88.88 0 00-.76.03zm75.25-28.36a.85.85 0 00.79 0l5.46-3.15c.23-.14.25-.34.05-.46l-5.23-3a.88.88 0 00-.79 0l-5.46 3.15c-.23.14-.26.34-.05.46zM265.63 301l-5.46 3.15c-.23.14-.25.34-.05.46l5.23 3a.85.85 0 00.79 0l5.46-3.15c.23-.14.26-.34 0-.46l-5.23-3a.88.88 0 00-.74 0zm-62.57 51.21a.9.9 0 00.8 0l5.46-3.15c.23-.14.25-.34.05-.46l-5.23-3a.88.88 0 00-.79 0l-5.46 3.15c-.24.14-.26.34 0 .46zm-9.28-9.73l-5.46 3.16c-.23.13-.25.34 0 .45l5.23 3a.85.85 0 00.79 0l5.46-3.15c.24-.13.26-.34.05-.46l-5.22-3a.94.94 0 00-.85.01zm18.06 5.09l5.46-3.15c.24-.14.26-.34 0-.46l-5.23-3a.88.88 0 00-.79 0l-5.46 3.15c-.23.14-.25.34-.05.46l5.23 3a.85.85 0 00.84.01zm8-4.61l5.47-3.15c.23-.13.25-.34 0-.46l-5.22-3a.9.9 0 00-.8 0l-5.46 3.15c-.23.14-.25.34 0 .46l5.22 3a.85.85 0 00.77.04zm8-4.61l5.46-3.15c.23-.13.25-.34 0-.46l-5.23-3a.92.92 0 00-.79 0l-5.46 3.16c-.24.13-.26.34-.05.45l5.22 3a.87.87 0 00.82.01zm-26-.48L196.3 341c-.23.13-.25.34 0 .45l5.22 3a.87.87 0 00.8 0l5.46-3.15c.23-.13.25-.34 0-.46l-5.22-3a.88.88 0 00-.79.04zm8-4.61l-5.46 3.16c-.24.13-.26.34 0 .46l5.23 3a.88.88 0 00.79 0l5.46-3.16c.23-.13.25-.34.05-.46l-5.23-3a.88.88 0 00-.93.01zm31.93-18.43l-5.55 3.17c-.23.14-.25.34-.05.46l5.23 3a.88.88 0 00.79 0l5.46-3.15c.24-.14.26-.34 0-.46l-5.23-3a.85.85 0 00-.74-.01zm-8 4.61l-5.46 3.15c-.24.13-.26.34-.05.46l5.22 3a.94.94 0 00.8 0l5.46-3.15c.23-.14.25-.34.05-.46l-5.23-3a.85.85 0 00-.86.01zm16-9.22l-5.46 3.15c-.23.14-.25.34 0 .46l5.22 3a.88.88 0 00.79 0l5.47-3.15c.23-.14.25-.34 0-.46l-5.22-3a.87.87 0 00-.91.01zm-31.93 18.43l-5.46 3.16c-.23.13-.25.34-.05.46l5.23 3a.88.88 0 00.79 0l5.46-3.16c.24-.13.26-.34.05-.46l-5.23-3a.88.88 0 00-.9.01zm8-4.6l-5.46 3.15c-.23.13-.25.34 0 .46l5.22 3a.88.88 0 00.79 0l5.47-3.16c.23-.13.25-.34 0-.45l-5.22-3a.87.87 0 00-.93.01zm-10.19 30l5.47-3.16c.23-.13.25-.34 0-.46l-5.22-3a.9.9 0 00-.8 0l-5.46 3.16c-.23.13-.25.34 0 .46l5.22 3a.88.88 0 00.66.03zm-42.09-2l-5.23-3a.85.85 0 00-.79 0l-5.54 3.2c-.24.14-.26.34 0 .46l5.23 3a.88.88 0 00.79 0l5.46-3.15c.13-.15.15-.35-.05-.47zm10.4 2.61l-5.22-3a.88.88 0 00-.79 0l-8.41 4.85c-.23.14-.25.34 0 .46l5.22 3a.88.88 0 00.79 0l8.41-4.85c.04-.12.04-.3-.13-.42zm-18.2-8.57l-5.23-3a.88.88 0 00-.79 0l-6.85 3.91c-.23.13-.26.34 0 .46l5.23 3a.88.88 0 00.79 0l6.72-3.88c.18-.13.2-.33 0-.45zm5.15-3a.9.9 0 00.8 0L177 340c.23-.13.25-.34.05-.45l-5.23-3a.85.85 0 00-.79 0l-5.47 3.15c-.23.13-.25.34 0 .46zm22.49 14.71l-5.22-3a.87.87 0 00-.8 0l-10.5 6.06c-.23.14-.26.34 0 .46l5.23 3a.88.88 0 00.79 0l10.5-6.06c.19-.14.21-.34 0-.46zm3.68 6.49l-5.22-3a.88.88 0 00-.79 0l-6.73 3.88c-.23.14-.25.34 0 .46l5.22 3a.88.88 0 00.79 0l6.73-3.88c.19-.14.21-.34 0-.46zm33.06-55.4a.92.92 0 00.79 0l5.46-3.16c.24-.13.26-.33.05-.45l-5.22-3a.87.87 0 00-.8 0l-5.42 3.13c-.23.13-.25.34-.05.46zm-16 9.21a.9.9 0 00.8 0l5.46-3.16c.23-.13.25-.34 0-.46l-5.22-3a.88.88 0 00-.79 0l-5.39 3.15c-.23.13-.25.34 0 .46zm-35.4 20.44a.88.88 0 00.79 0l5.46-3.16c.23-.13.25-.33 0-.45l-5.23-3a.85.85 0 00-.79 0l-5.46 3.15c-.23.13-.26.34-.05.46zm43.39-25.05a.88.88 0 00.79 0l5.46-3.16c.23-.13.25-.34.05-.45l-5.23-3a.85.85 0 00-.79 0L217 310c-.24.13-.26.34 0 .46zm-16 9.22a.88.88 0 00.79 0l5.46-3.16c.24-.13.26-.34.05-.46l-5.22-3a.9.9 0 00-.8 0l-5.41 3.15c-.23.13-.25.34 0 .46zm-5.13 41.9a.88.88 0 00-.79 0l-8.4 4.85c-.23.14-.25.34-.05.46l5.23 3a.88.88 0 00.79 0l8.4-4.85c.24-.14.26-.34 0-.46zm-6.27-35.28a.9.9 0 00.8 0l5.46-3.15c.23-.14.25-.34 0-.46l-5.22-3a.85.85 0 00-.79 0l-5.47 3.15c-.23.14-.25.34 0 .46zm-8 4.61a.92.92 0 00.79 0l5.46-3.15c.24-.14.26-.34.05-.46l-5.22-3a.87.87 0 00-.8 0l-5.46 3.15c-.23.14-.25.34 0 .46zm162.17-54.72a.92.92 0 00-.79 0L334.66 287c-.23.14-.25.34 0 .46l5.22 3a.87.87 0 00.8 0l13.44-7.76c.23-.13.26-.34.05-.46zm-17.64 10.19a.9.9 0 00-.8 0l-5.46 3.18c-.23.14-.25.34-.05.46l5.23 3a.85.85 0 00.79 0l5.46-3.15c.24-.14.26-.34.05-.46zm-107.75 60.06l5.46-3.16c.23-.13.25-.34.05-.46l-5.23-3a.88.88 0 00-.79 0l-5.46 3.15c-.24.13-.26.34 0 .46l5.22 3a.9.9 0 00.75.01zm91.78-50.84a.85.85 0 00-.79 0l-5.5 3.18c-.23.14-.25.34 0 .46l5.22 3a.9.9 0 00.8 0l5.46-3.15c.23-.14.25-.34 0-.46zm41.6-24a.94.94 0 00-.8 0l-5.46 3.16c-.23.13-.25.34-.05.45l5.23 3a.85.85 0 00.79 0l5.46-3.15c.24-.13.26-.34.05-.46zM370.1 273l-12.7-7.32a.88.88 0 00-.79 0l-5.46 3.16c-.23.13-.25.34 0 .45l12.69 7.33a.87.87 0 00.8 0l5.46-3.15c.18-.12.2-.33 0-.47zm-84.64 42.83a.9.9 0 00-.8 0l-6.72 3.88c-.23.14-.25.34 0 .46l5.22 3a.88.88 0 00.79 0l6.73-3.88c.23-.13.25-.34 0-.46zm20.17-11.64a.87.87 0 00-.8 0l-8.4 4.85c-.23.13-.25.34-.05.46l5.23 3a.88.88 0 00.79 0l8.41-4.85c.23-.14.25-.34 0-.46zM267 326.53a.88.88 0 00-.79 0l-45 26c-.23.14-.25.34-.05.46l5.23 3a.88.88 0 00.79 0l45-26c.23-.13.25-.34.05-.46zm-47.48 27.41a.85.85 0 00-.79 0l-6.73 3.91c-.24.13-.26.34 0 .46l5.22 3a.9.9 0 00.8 0l6.72-3.89c.23-.13.25-.33.05-.45zm56.72-32.75a.85.85 0 00-.79 0l-6.72 3.88c-.23.13-.26.34-.05.46l5.23 3a.88.88 0 00.79 0l6.72-3.88c.24-.14.26-.34.05-.46zm-66 38.09a.9.9 0 00-.8 0l-6.72 3.88c-.23.14-.25.34 0 .46l5.22 3a.85.85 0 00.79 0l6.73-3.88c.23-.13.25-.34 0-.46zm84.45-48.76a.88.88 0 00-.79 0l-6.72 3.89c-.24.13-.26.33-.05.45l5.22 3a.87.87 0 00.8 0l6.72-3.88c.23-.13.25-.34.05-.46zM323.27 294a.85.85 0 00-.79 0l-5.48 3.2c-.23.14-.26.34 0 .46l5.23 3a.88.88 0 00.79 0l5.46-3.15c.23-.14.25-.34.05-.46zm17.88-12.48l5.47-3.15c.23-.14.25-.34 0-.46l-5.22-3a.94.94 0 00-.8 0l-5.46 3.15c-.23.14-.25.34 0 .46l5.22 3a.85.85 0 00.79.02zm-32.57 1.57L314 280c.23-.14.25-.34 0-.46l-5.23-3a.88.88 0 00-.79 0l-5.46 3.15c-.24.14-.26.34-.05.46l5.22 3a.87.87 0 00.89-.04zm-21.21 29.48l16-9.21c.23-.14.25-.34.05-.46l-5.23-3a.85.85 0 00-.79 0l-16 9.22c-.23.13-.25.33 0 .45l5.23 3a.85.85 0 00.74.02zm45-26.41a.85.85 0 00.79 0l5.46-3.15c.24-.14.26-.34.05-.46l-5.23-3a.88.88 0 00-.79 0l-5.46 3.15c-.23.14-.25.34-.05.46zm-6.67-4.34l5.46-3.15c.23-.14.25-.34.05-.46l-5.23-3a.88.88 0 00-.79 0l-5.47 3.15c-.23.14-.25.34 0 .46l5.22 3a.87.87 0 00.77.02zm-46.31 35.38l5.46-3.15c.23-.14.26-.34 0-.46l-5.23-3a.88.88 0 00-.79 0l-5.46 3.15c-.23.14-.25.34-.05.46l5.23 3a.85.85 0 00.84 0zm35.34-20.83a.88.88 0 00.79 0l5.47-3.15c.23-.14.25-.34 0-.46l-5.22-3a.87.87 0 00-.8 0l-5.46 3.15c-.23.14-.25.34 0 .46zm-75.26 43.88l5.47-3.16c.23-.13.25-.33 0-.45l-5.22-3a.87.87 0 00-.8 0l-5.46 3.15c-.23.13-.25.34-.05.46l5.23 3a.88.88 0 00.83 0zm8-4.61l5.46-3.15c.23-.14.25-.34.05-.46l-5.23-3a.85.85 0 00-.79 0l-5.46 3.15c-.24.13-.26.34-.05.46l5.22 3a.94.94 0 00.79 0zm-16 9.22l5.53-3.16c.24-.13.26-.34.05-.45l-5.23-3a.85.85 0 00-.79 0l-5.46 3.15c-.23.13-.25.34-.05.46l5.23 3a.88.88 0 00.74 0zm31.93-18.44l5.47-3.15c.23-.14.25-.34 0-.46l-5.22-3a.9.9 0 00-.8 0l-5.4 3.19c-.23.14-.25.34-.05.46l5.23 3a.88.88 0 00.79-.04zm-8 4.61l5.46-3.15c.23-.14.26-.34.05-.46l-5.23-3a.85.85 0 00-.79 0l-5.46 3.15c-.23.14-.25.34-.05.46l5.23 3a.88.88 0 00.83-.03zm16-9.22l5.46-3.15c.23-.14.25-.34.05-.46l-5.23-3a.88.88 0 00-.79 0l-5.47 3.15c-.23.14-.25.34 0 .46l5.22 3a.87.87 0 00.77 0zm43.6-64.12a.88.88 0 00.79 0l5.47-3.16c.23-.13.25-.34 0-.46l-1.39-.8a.85.85 0 00-.79 0l-5.46 3.15c-.23.14-.26.34-.05.46zm-39.68 25.13a.94.94 0 00.8 0l5.46-3.16c.23-.13.25-.33 0-.45l-5.22-3a.85.85 0 00-.79 0l-5.47 3.15c-.23.13-.25.34 0 .46zm16-9.22a.88.88 0 00.79 0l5.46-3.15c.24-.14.26-.34.05-.46l-5.22-3a.87.87 0 00-.8 0l-5.46 3.15c-.23.14-.25.34-.05.46zm-25.72 14.84a.9.9 0 00.8 0l5.46-3.16c.23-.13.25-.34.05-.46l-5.23-3a.85.85 0 00-.79 0l-5.52 3.18c-.24.13-.26.34-.05.46zm17.74-10.23a.88.88 0 00.79 0l5.46-3.15c.23-.14.25-.34.05-.46l-5.23-3a.85.85 0 00-.79 0l-5.46 3.15c-.24.14-.26.34-.05.46zm-33.7 19.45a.85.85 0 00.79 0l5.46-3.15c.24-.13.26-.34 0-.46l-5.23-3a.88.88 0 00-.79 0l-5.46 3.16c-.23.13-.25.34-.05.45zm8-4.61a.88.88 0 00.79 0l5.47-3.16c.23-.13.25-.34 0-.46l-5.22-3a.9.9 0 00-.8 0l-5.46 3.16c-.23.13-.25.34 0 .46zM299 266.91a.87.87 0 00.8 0l5.46-3.15c.23-.13.25-.34.05-.46l-1.39-.8a.87.87 0 00-.8 0l-5.46 3.15c-.23.13-.25.34-.05.46zm24-13.83a.9.9 0 00.8 0l5.46-3.16c.23-.13.25-.34.05-.46l-1.39-.8a.87.87 0 00-.8 0l-5.46 3.15c-.23.14-.25.34-.05.46zm11 6.34a.87.87 0 00.8 0l5.46-3.15c.23-.13.25-.34 0-.46l-5.22-3a.88.88 0 00-.79 0l-5.5 3.19c-.23.13-.25.34 0 .45zm15.21 17.51l5.46-3.15c.23-.13.25-.34 0-.46l-5.23-3a.88.88 0 00-.79 0l-5.46 3.16c-.24.13-.26.33-.05.45l5.22 3a.87.87 0 00.78 0zM307 262.3a.85.85 0 00.79 0l5.46-3.15c.24-.13.26-.34.05-.46l-1.39-.8a.85.85 0 00-.79 0l-5.48 3.11c-.23.13-.25.34 0 .46zm-65.4 40a.87.87 0 00.8 0l5.46-3.15c.23-.13.25-.34.05-.46l-5.23-3a.92.92 0 00-.79 0l-5.46 3.16c-.24.13-.26.33 0 .45z" opacity=".1"/><path opacity=".4" d="M265.22 343.44l1.12.65 29.75 17.17 52.9-30.54 1.1-.63-30.87-17.82-54 31.17z"/><path fill="#5846f9" d="M266.34 344.09l29.75 17.17 52.9-30.54-29.77-17.18-52.88 30.55z"/><path opacity=".45" d="M266.34 344.09l29.75 17.17 52.9-30.54-29.77-17.18-52.88 30.55z"/><path d="M112.68 337.88a7.53 7.53 0 001.5.64 7 7 0 01-1.5-.63 3.46 3.46 0 01-.47-.31 4.66 4.66 0 00.47.3zM121.26 338.34a.29.29 0 01.08-.07l-.06.06z" fill="#5846f9"/><g><path d="M299.38 109.47l-3.2-1.86-163.29 94.28V298a2.41 2.41 0 001 2.21l3.2 1.86a2.37 2.37 0 002.41-.24L296 211.52a7.57 7.57 0 003.41-5.92z" fill="#e6e6e6"/><path d="M136.09 299.88c0 2.18 1.52 3.06 3.41 2L296 211.52a7.57 7.57 0 003.41-5.92v-96.13l-163.32 94.28z" fill="#fafafa"/><path d="M298.59 110.84v94.76a6.77 6.77 0 01-3 5.23l-156.48 90.34a2.31 2.31 0 01-1.13.36c-1 0-1.11-1.15-1.11-1.65V204.2l161.72-93.36m.79-1.37l-163.29 94.28v96.13c0 1.55.77 2.44 1.89 2.44a3.08 3.08 0 001.52-.47L296 211.52a7.57 7.57 0 003.41-5.92v-96.13z" fill="#e0e0e0"/><path fill="#5846f9" d="M136.09 203.75v14.78l163.29-94.28v-14.78l-163.29 94.28z"/><path d="M238.55 150.39v3.18c0 .65.46.92 1 .59l50.2-29v-5.55l-50.2 29a2.26 2.26 0 00-1 1.78z" fill="#fafafa"/><path d="M295.16 116.52c.56-.32 1-.06 1 .6v3.18a2.28 2.28 0 01-1 1.77l-5.39 3.11v-5.55z" fill="#455a64"/><path d="M294.76 120.89l-.6-.19a3.44 3.44 0 00.09-.77 1.45 1.45 0 00-.54-1.29.87.87 0 00-.88 0 3.07 3.07 0 00-1.2 2.49 1.4 1.4 0 00.55 1.28.76.76 0 00.38.11.93.93 0 00.49-.15 2.43 2.43 0 001-1.3l.6.19h.07a.22.22 0 00.21-.15.22.22 0 00-.17-.22zm-1.93 1.11a.43.43 0 01-.43 0 1.05 1.05 0 01-.32-.9 2.67 2.67 0 011-2.11.63.63 0 01.27-.08.29.29 0 01.16 0 1.05 1.05 0 01.33.9 2.69 2.69 0 01-1.01 2.19z" fill="#fafafa"/><path d="M295.21 98.27a2.37 2.37 0 00-2.44.22L136.3 188.83a7.51 7.51 0 00-3.41 5.91v7.15l3.2 1.86 163.29-94.28v-7.15a2.41 2.41 0 00-1-2.2c-.56-.33-2.61-1.51-3.17-1.85z" fill="#263238"/><path d="M136.09 196.6a7.52 7.52 0 013.41-5.91L296 100.35c1.88-1.09 3.41-.2 3.41 2v7.15l-163.32 94.25z" fill="#37474f"/><path d="M298.43 100.14a2.38 2.38 0 00-2.46.21L139.5 190.69a7 7 0 00-2.41 2.54l-3.21-1.85a7 7 0 012.42-2.55l156.47-90.34a2.37 2.37 0 012.44-.22c.56.34 2.61 1.52 3.18 1.85z" fill="#455a64"/><path d="M280.17 113.16a3.54 3.54 0 00-1.6 2.77c0 1 .72 1.44 1.6.93a3.55 3.55 0 001.6-2.78c0-1.02-.72-1.43-1.6-.92zM285.77 109.93a3.56 3.56 0 00-1.6 2.78c0 1 .72 1.43 1.6.92a3.52 3.52 0 001.6-2.77c0-1.02-.71-1.44-1.6-.93zM291.38 106.71a3.53 3.53 0 00-1.61 2.77c0 1 .72 1.43 1.61.92a3.54 3.54 0 001.6-2.77c.02-1.02-.72-1.43-1.6-.92z" fill="#5846f9"/><path d="M139.5 301.85l28.61-16.51V200l-32 18.49v81.35c-.02 2.22 1.5 3.1 3.39 2.01z" fill="#f5f5f5"/><path d="M167.32 201.41v83.47l-28.21 16.29a2.31 2.31 0 01-1.13.36c-1 0-1.11-1.15-1.11-1.65V219l30.45-17.57m.79-1.37l-32 18.49v81.35c0 1.55.77 2.44 1.89 2.44a3.08 3.08 0 001.52-.47l28.61-16.51V200z" fill="#e0e0e0"/><path d="M146.72 219.79l15.28-8.86c.56-.32 1-.06 1 .59v1.34a2.26 2.26 0 01-1 1.77l-15.31 8.85c-.57.33-1 .07-1-.59v-1.33a2.25 2.25 0 011.03-1.77z" fill="#e0e0e0"/><path d="M142.49 223.41v1.33a2.26 2.26 0 01-1 1.77l-1.16.67c-.56.33-1 .06-1-.59v-1.33a2.28 2.28 0 011-1.78l1.16-.66c.51-.33 1-.06 1 .59z" fill="#5846f9"/><path d="M146.72 227.15L162 218.3c.56-.33 1-.06 1 .59v1.33a2.26 2.26 0 01-1 1.78l-15.31 8.85c-.57.33-1 .06-1-.59v-1.33a2.26 2.26 0 011.03-1.78z" fill="#e0e0e0"/><path d="M142.49 230.78v1.33a2.26 2.26 0 01-1 1.77l-1.16.67c-.56.32-1 .06-1-.59v-1.34a2.28 2.28 0 011-1.77l1.16-.67c.51-.32 1-.06 1 .6z" fill="#5846f9"/><path d="M146.72 234.52l15.28-8.85c.56-.33 1-.07 1 .59v1.33a2.25 2.25 0 01-1 1.77l-15.31 8.86c-.57.32-1 .06-1-.59v-1.34a2.26 2.26 0 011.03-1.77z" fill="#e0e0e0"/><path d="M142.49 238.14v1.34a2.28 2.28 0 01-1 1.77l-1.16.66c-.56.33-1 .07-1-.59V240a2.26 2.26 0 011-1.77l1.16-.67c.51-.34 1-.07 1 .58z" fill="#5846f9"/><path d="M146.72 259l15.28-8.91c.56-.32 1-.06 1 .6V252a2.25 2.25 0 01-1 1.77l-15.31 8.86c-.57.32-1 .06-1-.59v-1.34a2.26 2.26 0 011.03-1.7z" fill="#e0e0e0"/><path d="M142.49 262.57v1.33a2.28 2.28 0 01-1 1.78l-1.16.66c-.56.33-1 .07-1-.59v-1.33a2.26 2.26 0 011-1.77l1.16-.67c.51-.33 1-.06 1 .59z" fill="#5846f9"/><path d="M146.72 265.47l15.28-8.85c.56-.33 1-.06 1 .59v1.33a2.26 2.26 0 01-1 1.78l-15.31 8.85c-.57.33-1 .06-1-.59v-1.33a2.26 2.26 0 011.03-1.78z" fill="#e0e0e0"/><path d="M142.49 269.1v1.33a2.26 2.26 0 01-1 1.77l-1.16.67c-.56.32-1 .06-1-.59v-1.34a2.28 2.28 0 011-1.77l1.16-.66c.51-.33 1-.07 1 .59z" fill="#5846f9"/><path d="M146.72 272l15.28-8.86c.56-.32 1-.06 1 .6v1.33a2.26 2.26 0 01-1 1.77l-15.31 8.86c-.57.32-1 .06-1-.6v-1.33a2.26 2.26 0 011.03-1.77z" fill="#e0e0e0"/><path d="M142.49 275.62V277a2.28 2.28 0 01-1 1.78l-1.16.66c-.56.33-1 .06-1-.59v-1.33a2.26 2.26 0 011-1.77l1.16-.67c.51-.38 1-.08 1 .54zM145.69 242.56v2.3l1.99-2.3h-1.99z" fill="#5846f9"/><path d="M148.9 242.09c0 .42.3.59.68.38l12.8-7.37a1.53 1.53 0 00.68-1.18c0-.43-.31-.61-.68-.39l-12.8 7.39a1.49 1.49 0 00-.68 1.17z" fill="#e0e0e0"/><path fill="#5846f9" d="M145.69 246.26v2.3l1.99-2.3h-1.99z"/><path d="M148.9 245.78c0 .43.3.6.68.38l12.8-7.37a1.5 1.5 0 00.68-1.17c0-.44-.31-.61-.68-.39l-12.8 7.39a1.47 1.47 0 00-.68 1.16z" fill="#e0e0e0"/><path fill="#5846f9" d="M145.69 249.95v2.3l1.99-2.3h-1.99z"/><path d="M148.9 249.48c0 .43.3.6.68.38l12.8-7.37a1.52 1.52 0 00.68-1.18c0-.43-.31-.6-.68-.39l-12.8 7.39a1.49 1.49 0 00-.68 1.17z" fill="#e0e0e0"/><path fill="#5846f9" d="M145.69 253.65v2.3l1.99-2.3h-1.99z"/><path d="M148.9 253.18c0 .42.3.59.68.37l12.8-7.36a1.53 1.53 0 00.68-1.18c0-.43-.31-.61-.68-.39l-12.8 7.38a1.49 1.49 0 00-.68 1.18z" fill="#e0e0e0"/><path d="M177.71 204.45v19.26c0 .81.57 1.13 1.27.73l21.18-12.23a2.78 2.78 0 001.26-2.19v-15.84c0-.81-.56-1.13-1.26-.73l-12.29 7.1c-.7.4-1.27.07-1.27-.73v-.51c0-.8-.56-1.13-1.26-.73l-6.34 3.68a2.79 2.79 0 00-1.29 2.19z" fill="#5846f9"/><path d="M181.88 227.35v1.23c0 .6.42.85.94.55l15.89-9.13a2.07 2.07 0 00.95-1.64v-1.23c0-.61-.42-.85-.95-.55l-15.89 9.17a2.11 2.11 0 00-.94 1.6z" fill="#e0e0e0"/><path d="M207.16 187.54v19.26c0 .81.57 1.13 1.27.73l21.18-12.23a2.78 2.78 0 001.26-2.19v-15.84c0-.81-.56-1.13-1.26-.73l-12.29 7.09c-.7.41-1.27.08-1.27-.72v-.51c0-.8-.56-1.13-1.26-.73l-6.36 3.68a2.79 2.79 0 00-1.27 2.19z" fill="#5846f9"/><path d="M211.33 210.43v1.24c0 .6.42.85.94.54l15.89-9.21a2.08 2.08 0 001-1.64v-1.23c0-.61-.42-.85-1-.55l-15.89 9.17a2.1 2.1 0 00-.94 1.68z" fill="#e0e0e0"/><path d="M177.71 243.15v19.26c0 .81.57 1.13 1.27.73l21.18-12.23a2.78 2.78 0 001.26-2.19v-15.84c0-.81-.56-1.13-1.26-.73l-12.29 7.1c-.7.4-1.27.07-1.27-.73V238c0-.8-.56-1.13-1.26-.73L179 241a2.79 2.79 0 00-1.29 2.15z" fill="#5846f9"/><path d="M181.88 266.05v1.23c0 .6.42.85.94.55l15.89-9.18a2.07 2.07 0 00.95-1.64v-1.23c0-.61-.42-.85-.95-.55l-15.89 9.17a2.11 2.11 0 00-.94 1.65z" fill="#e0e0e0"/><path d="M207.16 226.24v19.26c0 .81.57 1.13 1.27.73L229.61 234a2.78 2.78 0 001.26-2.19V216c0-.81-.56-1.13-1.26-.73l-12.29 7.1c-.7.4-1.27.07-1.27-.73v-.51c0-.8-.56-1.13-1.26-.73l-6.36 3.68a2.79 2.79 0 00-1.27 2.16z" fill="#5846f9"/><path d="M211.33 249.13v1.24c0 .6.42.85.94.55l15.89-9.18a2.08 2.08 0 001-1.64v-1.23c0-.61-.42-.85-1-.55l-15.89 9.17a2.11 2.11 0 00-.94 1.64z" fill="#e0e0e0"/><path d="M237 169.69V189c0 .8.56 1.13 1.26.73l21.18-12.23a2.79 2.79 0 001.27-2.19v-15.88c0-.81-.57-1.14-1.27-.73l-12.29 7.09c-.7.41-1.26.08-1.26-.73v-.5c0-.81-.57-1.13-1.26-.73l-6.37 3.68a2.77 2.77 0 00-1.26 2.18z" fill="#5846f9"/><path d="M240.78 193.52v1.24c0 .6.42.85.94.54l15.89-9.17a2.08 2.08 0 00.95-1.64v-1.24c0-.6-.42-.85-.95-.54l-15.89 9.17a2.1 2.1 0 00-.94 1.64z" fill="#e0e0e0"/><path d="M266.06 153.71V173c0 .8.57 1.13 1.27.73l21.18-12.23a2.81 2.81 0 001.26-2.19v-15.87c0-.8-.56-1.13-1.26-.72l-12.29 7.09c-.7.41-1.27.08-1.27-.73v-.5c0-.81-.56-1.13-1.26-.73l-6.36 3.67a2.82 2.82 0 00-1.27 2.19z" fill="#5846f9"/><path d="M270.23 176.61v1.23c0 .61.42.85.94.55l15.89-9.17a2.08 2.08 0 00.95-1.64v-1.24c0-.6-.42-.85-.95-.54l-15.89 9.2a2.1 2.1 0 00-.94 1.61zM240.78 232.21v1.23c0 .61.42.85.94.55l15.89-9.17a2.1 2.1 0 00.95-1.65v-1.23c0-.6-.42-.85-.95-.55l-15.89 9.18a2.08 2.08 0 00-.94 1.64z" fill="#e0e0e0"/><path d="M241.17 205.13l16.49-9.51c.75-.44 1.36-.08 1.36.79v19a3 3 0 01-1.36 2.37l-16.49 9.51c-.75.44-1.36.09-1.36-.78v-19a3 3 0 011.36-2.38z" fill="#fafafa"/><path d="M240.56 227.89a1 1 0 01-.55-.14 1.33 1.33 0 01-.59-1.22v-19a3.41 3.41 0 011.56-2.71l16.48-9.51a1.22 1.22 0 012 1.13v19a3.41 3.41 0 01-1.57 2.71l-16.48 9.52a1.69 1.69 0 01-.85.22zm.81-22.41a2.62 2.62 0 00-1.17 2v19a.46.46 0 00.78.44l16.48-9.51a2.64 2.64 0 001.17-2v-19a.6.6 0 00-.21-.54c-.13-.08-.33 0-.57.09z" fill="#ebebeb"/><path d="M259.59 198.19l-3.67 2.12a3 3 0 00-1.36 2.36v4.25c0 .87.61 1.22 1.36.78l3.67-2.12a3 3 0 001.37-2.36V199c.04-.89-.61-1.25-1.37-.81z" fill="#5846f9"/><path d="M242.43 207.19l8.26-4.75c.37-.22.68 0 .68.39v.27a1.53 1.53 0 01-.68 1.18l-8.26 4.72c-.38.21-.68 0-.68-.4v-.27a1.51 1.51 0 01.68-1.14zM242.43 210.88l8.26-4.75c.37-.22.68 0 .68.4v.26a1.53 1.53 0 01-.68 1.18l-8.26 4.76c-.38.22-.68 0-.68-.39v-.28a1.51 1.51 0 01.68-1.18zM242.43 214.57l8.26-4.75c.37-.21.68 0 .68.4v.26a1.5 1.5 0 01-.68 1.18l-8.26 4.76c-.38.22-.68 0-.68-.39v-.27a1.51 1.51 0 01.68-1.19zM242.43 218.27l13.72-7.91c.37-.22.68 0 .68.39v.25a1.53 1.53 0 01-.68 1.18l-13.72 7.91c-.38.22-.68 0-.68-.39v-.27a1.48 1.48 0 01.68-1.16zM242.43 222l13.72-7.91c.37-.22.68 0 .68.4v.26a1.52 1.52 0 01-.68 1.18l-13.72 7.92c-.38.21-.68 0-.68-.4v-.27a1.49 1.49 0 01.68-1.18z" fill="#ebebeb"/><path d="M269.59 215.57v1.24c0 .6.43.85 1 .54l15.89-9.17a2.11 2.11 0 00.95-1.64v-1.24c0-.6-.43-.85-.95-.54l-15.89 9.17a2.11 2.11 0 00-1 1.64z" fill="#e0e0e0"/><path d="M270 188.5l16.47-9.5c.76-.43 1.37-.08 1.37.79v19a3 3 0 01-1.37 2.36L270 210.68c-.75.43-1.36.08-1.36-.79v-19a3 3 0 011.36-2.39z" fill="#fafafa"/><path d="M269.38 211.26a1.12 1.12 0 01-.55-.14 1.36 1.36 0 01-.6-1.23v-19a3.4 3.4 0 011.56-2.7l16.48-9.52a1.22 1.22 0 012 1.13v19a3.4 3.4 0 01-1.56 2.7l-16.52 9.5a1.63 1.63 0 01-.81.26zm.81-22.42a2.6 2.6 0 00-1.17 2v19c0 .27.07.47.2.54a.6.6 0 00.57-.09l16.48-9.52a2.6 2.6 0 001.17-2v-19c0-.27-.07-.47-.2-.54a.6.6 0 00-.57.09z" fill="#ebebeb"/><path d="M288.41 181.55l-3.67 2.12a3 3 0 00-1.37 2.37v4.24c0 .87.61 1.22 1.37.79l3.67-2.12a3.05 3.05 0 001.37-2.37v-4.24c0-.87-.62-1.22-1.37-.79z" fill="#5846f9"/><path d="M271.25 190.55l8.25-4.75c.38-.21.69 0 .69.4v.26a1.49 1.49 0 01-.69 1.18l-8.25 4.76c-.38.22-.69 0-.69-.39v-.28a1.52 1.52 0 01.69-1.18zM271.25 194.25l8.25-4.75c.38-.22.69-.05.69.39v.26a1.52 1.52 0 01-.69 1.19l-8.25 4.75c-.38.22-.69 0-.69-.39v-.27a1.49 1.49 0 01.69-1.18zM271.25 197.94l8.25-4.75c.38-.22.69 0 .69.39v.27a1.52 1.52 0 01-.69 1.18l-8.25 4.76c-.38.21-.69 0-.69-.4v-.27a1.49 1.49 0 01.69-1.18zM271.25 201.63l13.75-7.91c.38-.21.69 0 .69.4v.26a1.49 1.49 0 01-.69 1.18l-13.71 7.92c-.38.22-.69 0-.69-.4v-.27a1.52 1.52 0 01.65-1.18zM271.25 205.32l13.71-7.9c.38-.22.69 0 .69.39v.26a1.52 1.52 0 01-.69 1.19l-13.71 7.91c-.38.22-.69 0-.69-.39v-.28a1.52 1.52 0 01.69-1.18z" fill="#ebebeb"/><path fill="#5846f9" d="M136.09 203.75l-3.2-1.86v14.79l3.2 1.85v-14.78z"/><path opacity=".1" d="M136.09 203.75l-3.2-1.86v14.79l3.2 1.85v-14.78z"/></g></g><g><path d="M87.83 271.28a2.68 2.68 0 011.2-2.09l61.63-35.58a2.69 2.69 0 012.41 0l1.36.79a2.67 2.67 0 011.2 2.08v47.24a2.67 2.67 0 01-1.2 2.09L92.8 321.39a2.69 2.69 0 01-2.41 0l-1.39-.78a2.7 2.7 0 01-1.2-2.09z" fill="#5846f9"/><path d="M88.18 270.09l3.42 2 63.68-36.77a2.46 2.46 0 00-.85-.9l-1.36-.78a2.63 2.63 0 00-2.41 0L89 269.19a2.63 2.63 0 00-.82.9z" fill="#fff" opacity=".4"/><path d="M87.83 271.28v47.24A2.65 2.65 0 0089 320.6l1.36.79a1.66 1.66 0 00.33.15 2.45 2.45 0 00.5.11 3 3 0 001 0l.23-.06.14-.06a.7.7 0 01-.57 0 .84.84 0 01-.37-.8v-47.27a1.05 1.05 0 01.63-1l-.63-.36-3.42-2a2.47 2.47 0 00-.37 1.18z" opacity=".1"/><path d="M91.6 272.07l28.54 10.66a4.64 4.64 0 005.5-1.81l4.59-7 25.28-38.72-24.37 39 24.49 9.58a2.48 2.48 0 01-.38 1.21l-24.18-10.68-5.32 8.52a4.63 4.63 0 01-5.81 1.78l-3.79-1.67L92 321.49a.84.84 0 01-.37-.8v-.78L116 282.85z" opacity=".2"/></g><g><path d="M422.25 134.29L416.5 131a.55.55 0 01-.27-.23l-1.06-1.85 3.42-2-.11.3z" fill="#263238"/><path d="M418.07 127.19l4 6.89a.59.59 0 001.07-.1l4.21-12.15z" fill="#37474f"/><path d="M436.84 90.4a6.12 6.12 0 00-2.78-4.81l-2.26-1.31a6.14 6.14 0 00-5.57 0l-45 26a6.15 6.15 0 00-2.78 4.82v22.81a6.14 6.14 0 002.78 4.82l2.26 1.31a6.21 6.21 0 005.57 0l45.3-26.17c2.5-1.43 2.52-2.86 2.52-4.63z" fill="#37474f"/><path d="M378.41 137.89a6.14 6.14 0 002.78 4.82l2.26 1.31a6.22 6.22 0 005.09.23c-1.31.5-2.3-.25-2.3-1.84V119.6a5.69 5.69 0 01.81-2.74l-7.83-4.52a5.69 5.69 0 00-.81 2.74z" fill="#263238"/><path d="M436.75 89.61c-.32-1.18-1.4-1.55-2.68-.81l-45.05 26a5.47 5.47 0 00-2 2.08l-7.83-4.52a5.6 5.6 0 012-2.07l45-26a6.21 6.21 0 015.57 0l2.27 1.31a6.12 6.12 0 012.72 4.01z" fill="#455a64"/><path d="M393.71 121.25l32.18-18.67c.93-.53 1.68-.29 1.68.55a3.38 3.38 0 01-1.68 2.5l-32.18 18.66c-.93.54-1.68.3-1.68-.54a3.38 3.38 0 011.68-2.5zM393.71 128.89l32.18-18.66c.93-.54 1.68-.29 1.68.55a3.35 3.35 0 01-1.68 2.49l-32.18 18.66c-.93.54-1.68.3-1.68-.54a3.38 3.38 0 011.68-2.5zM348.62 142.71l-5.76-3.33a.6.6 0 01-.27-.23l-1.06-1.85 3.42-2-.1.3z" fill="#5846f9"/><path d="M348.62 142.71l-5.76-3.33a.6.6 0 01-.27-.23l-1.06-1.85 3.42-2-.1.3z" opacity=".2"/><path d="M344.43 135.61l4 6.89a.6.6 0 001.08-.1l4.2-12.15z" fill="#5846f9"/><path d="M391.65 78.89a6.18 6.18 0 00-2.78-4.82l-2.27-1.31a6.18 6.18 0 00-5.56 0l-53.48 30.89a6.15 6.15 0 00-2.78 4.82v26.25a6.15 6.15 0 002.78 4.82l2.26 1.3a6.14 6.14 0 005.57 0l53.74-31.07c2.49-1.43 2.52-2.86 2.52-4.63z" fill="#5846f9"/><path d="M324.78 134.72a6.15 6.15 0 002.78 4.82l2.26 1.3a6.22 6.22 0 005.09.24c-1.31.49-2.3-.26-2.3-1.84V113a5.69 5.69 0 01.81-2.74l-7.83-4.52a5.69 5.69 0 00-.81 2.74z" opacity=".2"/><path d="M391.56 78.1c-.33-1.18-1.41-1.56-2.69-.82l-53.48 30.89a5.55 5.55 0 00-2 2.08l-7.83-4.52a5.68 5.68 0 012-2.07L381 72.76a6.21 6.21 0 015.57 0l2.27 1.32a6.16 6.16 0 012.72 4.02z" fill="#fff" opacity=".4"/><path d="M340.08 120.36L369 103.61c.93-.54 1.68-.29 1.68.55a3.35 3.35 0 01-1.68 2.49l-28.92 16.75c-.93.54-1.68.29-1.68-.55a3.37 3.37 0 011.68-2.49zM340.08 128l40.61-23.57c.93-.53 1.69-.29 1.69.55a3.4 3.4 0 01-1.69 2.5L340.08 131c-.93.54-1.68.29-1.68-.55a3.37 3.37 0 011.68-2.45zM340.08 112.34l40.61-23.57c.93-.54 1.69-.29 1.69.55a3.4 3.4 0 01-1.69 2.5l-40.61 23.56c-.93.54-1.68.29-1.68-.55a3.37 3.37 0 011.68-2.49z" fill="#fff"/></g><g><path d="M84.27 358.44l132.6 76.33c1.31.75 1.47 2.66 1 4.1a11.83 11.83 0 01-7.51 7.81c-2.61 1-5.6.33-8-1.08L68.62 367.47l-17.11-20.6a.84.84 0 011-1.31z" fill="#e0e0e0"/><path d="M70.81 362.35l-16.45-19.53a.78.78 0 01.76-1.26l25.08 5.52z" fill="#f28f8f"/><path d="M55 341.56h.13l25.08 5.52-5 8.08-2.7-1.63L55 342.45z" fill="#ffa8a7"/><path d="M55.12 341.56a.78.78 0 00-.76 1.26l3.21 3.81a4.28 4.28 0 012.52-3.7l.4-.19z" fill="#263238"/><path d="M193.65 415.56l-2-1.22-2.44-1.48-109-65.78a11.37 11.37 0 00-6.92 4.65c-2.62 3.48-3.69 8-2.46 10.61l108.93 65.74 4.67 2.81c-2.93-1.99 6.26-17.29 9.22-15.33z" fill="#37474f"/><path d="M193.65 415.56l-2-1.22-2.43-1.48-109-65.77a12.1 12.1 0 00-8 6.24l113.7 69.37c-.16.29-.11.43.12.43 2.35-4.35 5.96-8.67 7.61-7.57z" fill="#455a64"/><path d="M186 410.88l-4.52-2.72c-1.28-.83-3.81 1.46-6 4.5-3 4-4.84 9.78-3.14 10.89l3.33 2 1.2.7c-1.7-1.11.16-6.85 3.14-10.89 2.14-2.92 4.57-5.14 5.89-4.56a.31.31 0 01.1.08z" fill="#ebebeb"/><path d="M184.83 410.22c-3-1.94-12.16 13.43-9.18 15.37l4.52 2.74c-3-1.94 6.2-17.31 9.18-15.38z" fill="#37474f"/><path d="M193.65 415.56l-4.46-2.7c-2.91-1.93-11.89 12.83-9.44 15.22l.16.13 4.51 2.68c-2.92-1.99 6.27-17.29 9.23-15.33z" fill="#ebebeb"/><path d="M54.33 341.87a.74.74 0 01.64-.32.72.72 0 00-.64.32z" fill="#ffa8a7"/><path d="M212.58 427l-18.93-11.46c-1.26-.84-3.78 1.41-6 4.42-3 4-4.89 9.78-3.22 10.91l19 11.49c3.79 2.28 9.35-4.83 10.52-10.37.46-1.99.14-3.88-1.37-4.99z" fill="#f28f8f"/><path d="M206.81 428.91c-3.25 3.06-5.26 8.19-4.49 11.45a3.13 3.13 0 001.74 2.32c3.75 1.23 8.78-5.41 9.89-10.65.45-2 .14-3.84-1.29-4.94-1.44-.85-3.66-.26-5.85 1.82z" opacity=".1"/></g><g><path d="M425.06 240c3.89.45 6.73.23 9.75-1.08 4-1.72 6.34-6.43 9.12-14.06 2.37-6.46 6.2-24.79 3.5-29.38-4.19-7.11-13-6-20.29-5.83l-2.51.05.1 8.93 2.71-.05c4.09-.12 10.93-.29 12.05 2 1.74 4.42-3.33 27.93-7 30.47-3.59 1.54-9 .39-10.62-.14l-3.19 7.77a26.81 26.81 0 006.38 1.32z" fill="#5846f9"/><path d="M425.06 240c3.89.45 6.73.23 9.75-1.08 4-1.72 6.34-6.43 9.12-14.06 2.37-6.46 6.2-24.79 3.5-29.38-4.19-7.11-13-6-20.29-5.83l-2.51.05.1 8.93 2.71-.05c4.09-.12 10.93-.29 12.05 2 1.74 4.42-3.33 27.93-7 30.47-3.59 1.54-9 .39-10.62-.14l-3.19 7.77a26.81 26.81 0 006.38 1.32z" opacity=".15"/><path d="M429.48 177.65c-.88-3.54-4.44-7-10.72-9.62-14.5-6.14-37.92-5.93-52.31.48-6.23 2.77-9.73 6.25-10.54 9.81h-.21c-2.24 23.38 2.17 50.42 10.62 65.32l.17.3.12.23a17.81 17.81 0 006.88 6.38c11 6.23 28.78 6.07 39.68-.36a17.82 17.82 0 006.76-6.5l.1-.21a3.9 3.9 0 00.19-.35c8.17-15 12.09-42.16 9.42-65.48z" fill="#5846f9"/><path d="M418.76 168c14.5 6.15 14.59 16.32.21 22.73s-37.81 6.62-52.31.47-14.6-16.31-.21-22.72 37.81-6.59 52.31-.48z" fill="#fff" opacity=".4"/><path d="M413.74 172c11.69 4 11.75 10.64.14 14.85s-30.52 4.37-42.21.38-11.75-10.64-.13-14.85 30.51-4.38 42.2-.38z" fill="#5846f9"/><path d="M413.74 172c11.69 4 11.75 10.64.14 14.85s-30.52 4.37-42.21.38-11.75-10.64-.13-14.85 30.51-4.38 42.2-.38z" opacity=".1"/><path d="M413.82 181a22.17 22.17 0 015.88 2.89 22.35 22.35 0 01-5.82 3c-11.62 4.2-30.52 4.37-42.21.38a22.09 22.09 0 01-5.87-2.89 22 22 0 015.82-3c11.62-4.21 30.51-4.38 42.2-.38z" fill="#37474f"/></g><g><path d="M341.66 385.19s1.57 10.71 4.7 14.69c2.82 3.58 4.85 8.16 8.2 11.89.73.82 2.39 2.33 3 3a1.29 1.29 0 01-.1 2c-1.43 1.42-7.62 1.86-11.13-.68s-7-7.42-9.12-9.48l-2.77-2.74a2.81 2.81 0 01-.74-2.66c.07-.27.14-.59.22-1 .44-2-2.34-10.16-2.34-10.16z" fill="#ffa8a7"/><path d="M334.2 406a5.52 5.52 0 00.34 1.93c.35.76 2.14 1.9 3.27 2.44a7.27 7.27 0 013.6 3.72 12.9 12.9 0 006.1 5.88 18.53 18.53 0 0011 .92c4.57-.91 4.88-3.62 4.88-3.62s.2-2.55-.95-2.92S334.2 406 334.2 406z" fill="#263238"/><path d="M333 394.82a24.27 24.27 0 01.31 6.59c-.1 1.33-.12 3.42.88 4.59 1.38 1.85 4.29 2.4 6.18 4.92s4.69 7.08 10.71 8.15 10.54-.92 11.62-2.65 0-3.32-3.86-5.32c-4.12-2.12-9.62-8.58-9.62-8.58a23.3 23.3 0 01-3.88-6.45l-1.46-4.66c-.32-.91-6.8 1-7.48 2.34l.78 4.13-1.67-3.9a4.22 4.22 0 00-2.51.84z" fill="#455a64"/><path d="M347.18 417.72a7.63 7.63 0 014.32-6.6c4.47-2.4 7.25-1 8.65 0 1.68 1.16 4.08 3.59 2.68 5.41-1.5 2-4 3-8.57 3.09a11 11 0 01-7.08-1.9zM340.71 403.82a.53.53 0 00.41-.23c.5-.72 3.74-3.46 6.93-2.64.16-.37-.12-.74-.78-1.12-3.34-.24-6.42 2.34-7 3.22a.47.47 0 00.15.68.53.53 0 00.29.09zM349.92 403.31a1.56 1.56 0 00-.92-1.09 9.48 9.48 0 00-6.61 3.24.47.47 0 00.15.68.51.51 0 00.72-.14c.49-.7 3.56-3.3 6.66-2.69zM346.62 398.78a.92.92 0 00-.65-1.24c-3.66-.8-7.21 2.15-7.86 3.1a.47.47 0 00.15.68.49.49 0 00.31.09.54.54 0 00.41-.23c.53-.78 4.23-3.88 7.64-2.4zM355 408.36a2.84 2.84 0 00-1.45-1.31 9.37 9.37 0 00-6.88 3.23.48.48 0 00.15.69.55.55 0 00.31.08.54.54 0 00.41-.23c.53-.76 4.11-3.77 7.46-2.46zM345 408.64a.51.51 0 00.4-.23c.5-.71 3.67-3.39 6.83-2.66a1.76 1.76 0 00-1.09-1.12 9.43 9.43 0 00-6.6 3.24.48.48 0 00.14.69.61.61 0 00.32.08z" fill="#fafafa"/><path d="M277.89 309.41c-.74 6.7-2.28 10.79.4 16.67 2.75 6 10.38 10.43 18.85 15.83 7.86 5 15.5 10.69 17.45 12 2.1 1.41 3.19 2.22 3.63 5.7.51 4.08 2.44 10.62 6.75 19.14 4.91 9.73 6.82 14.59 6.82 14.59s6.31-2.07 11.12-4.08c0 0-8.56-39.53-10.47-44.85s-22.37-22.29-22.37-22.29 2-8.52 3.49-14.72z" fill="#37474f"/><path d="M368.52 375.84s2.84 8.77 5.11 12.88a63.27 63.27 0 008.06 11.68c.71.8 2.34 2.28 2.93 2.93a1.28 1.28 0 01-.1 2c-1.41 1.39-7.48 1.83-10.94-.67s-6.88-7.29-8.95-9.31l-2.72-2.69a2.76 2.76 0 01-.73-2.61c.07-.26.14-.58.22-.94.43-2-2.3-10-2.3-10z" fill="#ffa8a7"/><path d="M305.46 297.59c-1.11 6.21-1.45 9.73.73 16s7.28 16.24 16.05 21.15c7.26 4.06 16.69 9.06 18.76 10.26 1.81 1.07 3.23 2.48 3.94 7 .64 4.06 2.76 8.69 7.46 17a122.48 122.48 0 016.86 13.57 64.43 64.43 0 0110.83-4s-10.42-38.86-12.33-44.18-15.84-13.14-21.76-16.57-9.28-5.57-16.07-10.18z" fill="#37474f"/><path d="M361.6 394.69a5.54 5.54 0 00.34 1.89c.34.75 2.1 1.87 3.21 2.4a7.12 7.12 0 013.53 3.65 12.75 12.75 0 006 5.78 18.21 18.21 0 0010.77.9c4.48-.9 4.8-3.56 4.8-3.56s.18-2.49-.94-2.87-27.71-8.19-27.71-8.19z" fill="#263238"/><path d="M360.44 383.71a24.23 24.23 0 01.31 6.47c-.1 1.3-.13 3.36.85 4.51 1.36 1.81 4.22 2.35 6.08 4.83s4.6 7 10.52 8 10.34-.9 11.4-2.6 0-3.26-3.78-5.22c-4.05-2.09-9.46-8.43-9.46-8.43a22.72 22.72 0 01-3.8-6.34l-1.2-4.31c-.32-.89-6.78.77-7.46 2l.8 3.94-1.77-3.7z" fill="#455a64"/><path d="M374.35 406.19a7.49 7.49 0 014.24-6.48c4.4-2.35 7.13-.94 8.5 0 1.64 1.13 4 3.52 2.64 5.31-1.49 1.94-3.9 2.89-8.43 3a10.81 10.81 0 01-6.95-1.83zM368 392.54a.5.5 0 00.4-.22c.49-.71 3.67-3.4 6.81-2.59.15-.36-.12-.73-.76-1.1a9.15 9.15 0 00-6.9 3.16.47.47 0 00.14.67.52.52 0 00.31.08zM377.05 392a1.56 1.56 0 00-.91-1.07 9.37 9.37 0 00-6.49 3.18.48.48 0 00.15.68.55.55 0 00.31.08.49.49 0 00.39-.22c.5-.65 3.5-3.2 6.55-2.65zM373.8 387.6a.9.9 0 00-.64-1.22c-3.59-.78-7.07 2.11-7.72 3a.49.49 0 00.15.68.58.58 0 00.31.08.54.54 0 00.4-.22c.53-.73 4.16-3.78 7.5-2.32zM382 397a2.85 2.85 0 00-1.42-1.28 9.2 9.2 0 00-6.76 3.17.47.47 0 00.14.67.52.52 0 00.31.08.49.49 0 00.4-.21c.56-.76 4.07-3.71 7.33-2.43zM372.21 397.28a.53.53 0 00.4-.22c.48-.71 3.6-3.34 6.7-2.62a1.72 1.72 0 00-1.07-1.1 9.32 9.32 0 00-6.48 3.18.48.48 0 00.14.68.58.58 0 00.31.08z" fill="#fafafa"/><path d="M314.47 316.57a48.29 48.29 0 01-4.4 5.55l1.25 1.05a17.66 17.66 0 003.15-6.6z" fill="#37474f"/><path d="M317.27 256.29c5.56.85 8.78 3.78 8.94 8.17s-6.76 21.21-6.76 21.21q5.1 4.6 10.5 8.86c1.38 1.08 2.79 2.15 4.2 3.2.8.59 3.37 1.88 3.51 2.91a1.8 1.8 0 01-.23 1c-1.34 2.88-4.42 5.39-7.56 4.14-2.7-1.08-5.65-2.48-8.33-3.83a71.94 71.94 0 01-8.12-4.58c-1.64-1.11-3.39-2-4.58-3.6-1.94-2.77 8.43-37.48 8.43-37.48z" fill="#e0e0e0"/><path d="M289.22 262.05c-1.9 2.86-7.63 19.53-11.83 51 5.6 6.09 33.92 7.57 42.5-5.42 0 0 3.73-28.58 3.67-34.81 0-4.31 1.26-14-6.29-16.71l-11.3-.76-12.97 1.78a43.24 43.24 0 00-3.78 4.92z" fill="#f5f5f5"/><path d="M304.55 262.86c1.94 1.41 5.5 2.46 7.72 1.86s3-2.71 3.16-4.86l-2.58.37-1 1.57-1.3-1z" fill="#5846f9"/><path d="M304.55 262.86c1.94 1.41 5.5 2.46 7.72 1.86s3-2.71 3.16-4.86l-2.58.37-1 1.57-1.3-1z" opacity=".3"/><circle cx="316.33" cy="229.13" r="11.63" transform="rotate(-63.83 316.3 229.128)" fill="#263238"/><path d="M295.85 236.44s1.47 8.93 2.15 10.42a4 4 0 002.23 2l.16-6.23z" fill="#263238"/><path d="M298.81 223.88a4.36 4.36 0 00-3.66 1.1c-1.63 1.51-1 6.51.7 11.46l3.53.58z" fill="#263238"/><path d="M300.15 237.12c-.77-.1-1-1.33-1.84-2.29a3.5 3.5 0 00-5.59.85c-1.6 3 .92 7.18 3.14 8 3.83 1.4 4.53-1.06 4.53-1.06l-.37 14c2.24 2.74 10.82 4.13 11.85 5.16 0 0 1.59-2.83.81-4.94l.19-4.26a24.21 24.21 0 005.22.51c2.88-.3 4.78-2.47 5.8-5.52 1.62-4.9 2.34-8.89 1.62-18.71-.78-10.77-13.23-11.47-20.15-7.55s-5.21 15.81-5.21 15.81z" fill="#ffa8a7"/><path d="M300.39 238.27c-.67-.14-1.23-2.6-2.08-3.44-1.17-1.18.5-11 .5-11a4.78 4.78 0 011.43-5A10.15 10.15 0 01310 216a92.4 92.4 0 009.37 1.62 21.45 21.45 0 009.72-1.15 10 10 0 01-.61 5.16 8 8 0 01-3.34 3.65c-1.66 1-3.35 1.55-6.82 1.69a39.79 39.79 0 01-12.68-1.37c-1.31-.25-1.65 1-2.53 4.48-.76 3.05.35 8.8-2.72 8.19z" fill="#263238"/><path d="M298.78 224.67l-4.19-2.51a2.38 2.38 0 013.31-.93 2.57 2.57 0 01.88 3.44z" fill="#263238"/><path d="M312.87 252.6s-6.32-1.59-8.49-2.88a7.36 7.36 0 01-2.94-3.19 10.12 10.12 0 001.58 3.68c1.54 2.16 9.77 4.08 9.77 4.08z" fill="#f28f8f"/><path d="M328.24 233.82h-.53a16 16 0 00-5.36.44c-1.74.61-2.38 1.22-3.33 1.27s-1.6-.5-3.38-.92a18.11 18.11 0 00-5.7.13l-.58.09a1.07 1.07 0 00-.71 1 1.84 1.84 0 00.47 1.06 1.17 1.17 0 01.16.43 17.7 17.7 0 00.48 3 3.2 3.2 0 00.65 1.05 2.59 2.59 0 00.35.31l.21.13a2.52 2.52 0 00.62.27H312.03a3.31 3.31 0 00.56.06h.55a4.49 4.49 0 004.07-2.45c.66-1.17.63-2.79 1.71-2.84h.2c.78.15.58 1.64 1 2.68a3.55 3.55 0 00.68 1.13 1.37 1.37 0 00.17.17l.09.08a.39.39 0 00.1.08l.08.07.1.06.08.05h.05a3.25 3.25 0 00.91.32h.08a4.6 4.6 0 001.14 0 3.82 3.82 0 003.46-2.27 20.45 20.45 0 00.89-3.06 1 1 0 01.23-.41 2.33 2.33 0 00.57-1.14c.07-.34-.22-.76-.51-.79zm-11.56 4.87a3.84 3.84 0 01-.93 1.63 3.77 3.77 0 01-2.62 1 2.5 2.5 0 01-2.38-1l-.07-.11-.06-.11a.47.47 0 01-.05-.1s0-.07-.05-.1v-.14-.11c0-.12-.07-.23-.1-.33 0-.07 0-.13-.05-.2s0-.22 0-.32v-.12c-.13-.79-.23-2.35.2-2.73a5 5 0 013.26-.72h.18c.27 0 .53 0 .79.09l.3.06a6.92 6.92 0 01.76.21l.23.09.25.11h.05l.09.05a1.43 1.43 0 01.5.4 3.62 3.62 0 01-.3 2.45zm10.21-.87a4 4 0 01-1.84 2.65 3.16 3.16 0 01-1.32.35 2.49 2.49 0 01-2.52-1.07v-.07l-.05-.08-.06-.13-.06-.14a.64.64 0 000-.07v-.11a3.64 3.64 0 01-.12-.59 3.83 3.83 0 01.23-2.42 5.41 5.41 0 012.94-1.33 6.46 6.46 0 01.8-.1H326.58l.19.07a1.2 1.2 0 01.41.25c.26.39-.06 1.97-.29 2.79z" fill="#37474f"/><path d="M309.37 234.88L297 234a3.64 3.64 0 011.79 1.41l10.34 1z" fill="#37474f"/><path d="M314.48 237.66a1.13 1.13 0 01-1.23 1 1.14 1.14 0 01-1-1.28 1.11 1.11 0 112.21.25z" fill="#263238"/><path d="M313.07 245l3.72 1.88a2.05 2.05 0 01-2.78 1 2.19 2.19 0 01-.94-2.88z" fill="#f28f8f"/><path d="M324.71 233l-2.8-.78a1.45 1.45 0 012.8.78zM314 232.59l-2.79.85a1.46 1.46 0 012.79-.85zM324.13 237.45a1.12 1.12 0 11-1-1.27 1.14 1.14 0 011 1.27z" fill="#263238"/><path d="M318.57 237l-.26 6.87 4.27-1.15-3.58-5.83a.76.76 0 00-.43.11z" fill="#f28f8f"/><path d="M296.67 326.9v.82a2.3 2.3 0 001.15 2l21.92 12.62a2.39 2.39 0 001.16.3 2.31 2.31 0 001.14-.3l40.23-23.23a2.3 2.3 0 001.15-2v-.56L320.9 341.1z" fill="#ebebeb"/><path d="M363.42 316.55l-23.85-13.77a1.39 1.39 0 00-1.37 0l-41.38 23.9a.3.3 0 000 .52l24.08 13.91z" fill="#fafafa"/><path d="M329.87 305.76c1.85.7 2.14 1.52 3.64 2.37a10.79 10.79 0 005.36 1.46 18.48 18.48 0 013.45 1.64c2 1.35 2.77 1.64 5.21.88 2.66-.84.78-3.48 0-4.78a46.62 46.62 0 00-4.09-5.63c-.85-.78-5.29-1.47-9.12-3.81-2.96 1.11-4.24 3.97-4.45 7.87z" fill="#ffa8a7"/><path fill="#e0e0e0" d="M320.68 339.08l-12.87-7.42 37.62-21.72 12.93 7.38-37.68 21.76zM314.35 318.44l.24.14 6.31 3.64 11.21-6.48.23-.13-6.54-3.78-11.45 6.61z"/><path fill="#e6e6e6" d="M314.59 318.58l6.31 3.64 11.21-6.48-6.31-3.64-11.21 6.48z"/><path d="M320.9 341.1v1.53a2.31 2.31 0 001.14-.3l40.23-23.23a2.3 2.3 0 001.15-2v-.56z" fill="#ebebeb"/><path d="M320.9 341.1v1.53a2.31 2.31 0 001.14-.3l40.23-23.23a2.3 2.3 0 001.15-2v-.56z" fill="#e0e0e0" style="fill:#e0e0e0" opacity=".5"/><path d="M321.54 341.44a2.7 2.7 0 002.35-.18l40.05-23.12a2.73 2.73 0 001.33-1.9l4.38-26.15a3.42 3.42 0 000-.45 2.73 2.73 0 00-.81-1.94l-41.62 24a2 2 0 00-1 1.41z" fill="#ebebeb"/><path d="M320.9 341.11l.27.15a3.14 3.14 0 00.37.18l4.74-28.29a2 2 0 011-1.41l41.62-24a2.86 2.86 0 00-.55-.42l-41.71 24.08a2 2 0 00-1 1.41z" fill="#fafafa"/><path d="M344.1 317.31a8.84 8.84 0 014-5.2c1.93-1.11 3.26-.6 3 1.15a8.8 8.8 0 01-4 5.19c-1.96 1.12-3.29.61-3-1.14z" fill="#5846f9"/><path d="M300.4 317.22c-4.47-2.27-20.09-10-25.13-13-4.17-2.48-5.87-4.7-5.38-7.81.45-2.89 7-24.42 9.61-29.93 2.32-4.84 7.73-7.73 13-8.95 3.67 4.27 1 16.94-2.57 21.57a161 161 0 00-5.69 15.58s7.31 5.65 13.93 9.71c3.59 2.2 6.85 4.84 9.78 6.37 2.57 1.33 6.44 3.84 7.12 4.76s4.08 6.43 4.87 7.72c2.14 3.52.27 4.26-2.5 4.59-2.54.3-4.29-1.08-6-2.78a25.43 25.43 0 01-2.18-2.63 9.65 9.65 0 01-5.4-2.17c-1.27-1.11-3.46-3.03-3.46-3.03z" fill="#ffa8a7"/><path d="M272.31 286.2s3.26-11 4.85-15.33c2.21-6 3.23-7.69 6.65-11 3-2.95 9.22-2.73 9.22-2.73 2.54 2.16 3 5.81 2 12.14a25.44 25.44 0 01-4.3 10.59l-5.8 14.47 17.53 12.87a12.37 12.37 0 00-5.75 8.15s-15.47-7.39-20.41-10-7.38-4.33-6.72-8.57a86.44 86.44 0 012.73-10.59zM300.15 251.94c-1.31.34-2.4 2.76-3.2 3.79s1.13 5.51 5 7.65 6.25 2.15 6.25 2.15.47-2.78 1.17-3.48a2 2 0 012.51-.25s0-1.87-2.5-2.21-7.6-2.56-9.27-5.73z" fill="#e0e0e0"/><path d="M311.87 261.8a4.08 4.08 0 01.39-2.11 6.93 6.93 0 00.42-2.83l.16-3.67a2.62 2.62 0 011.31.67 15.42 15.42 0 011.67 3.39c.31 1.18.36 5.2-.59 6.56 0 0-.54-2.32-1.29-2.82-1.09-.71-2.07.81-2.07.81z" fill="#e0e0e0"/><path d="M310.74 266.66c-.93 6.1-3.17 27.54-3.09 29.46s2.85 9.66 4.45 8.43c.87-.67 4.31-8.69 4.17-10.73s-2.54-27.88-2.54-27.88-1.58-1.94-2.99.72z" fill="#5846f9"/><path d="M313.73 265.94s-1.58-1.94-3 .72c-.13.85-.29 2-.46 3.36a11.82 11.82 0 011.4-3 5.39 5.39 0 012.06-1.08z" opacity=".15"/><path d="M311.87 261.12c-1.67.32-2.48.93-2.43 2.1a8 8 0 001.3 3.44 4 4 0 013-.72 6.75 6.75 0 00.76-3c.03-1.69-.66-2.19-2.63-1.82z" fill="#5846f9"/></g></svg>