<svg xmlns="http://www.w3.org/2000/svg" viewBox="0 0 500 500"><defs><clipPath id="a"><path d="M251.45 157.81s-10.22 3.7-13.7 5.22-14.56 2.83-16.3 3.92-45 48.92-44.14 49.79 10.65 1.3 13.48.65 38.05-34.79 38.05-34.79 4.57.22 4.57 3.7 2.17 41.31 2.17 41.31l45-.87.22-45.88s.43-4.56 3.91-4.35S325.38 190 325.38 190l10.62-9.14s-37.62-14.57-44.8-19.13-9.13-9.35-12-9.35-27.75 5.43-27.75 5.43z" fill="#fff" stroke="#263238" stroke-miterlimit="10"/></clipPath><clipPath id="b"><path d="M245.58 149.12s.44 11.52 1.74 12 5 3.26 7.18 3.26 5.22-4.35 5.43-5-.87-11.75-.87-11.75l-12.61 1.31z" fill="#fff" stroke="#263238" stroke-miterlimit="10"/></clipPath><clipPath id="c"><path d="M234.93 129.33s.08.26.24.72c.93 2.78 4.32 12.85 5.63 16 1.52 3.7 7.39 7.83 15.22 6.53s10-10.44 10-13.92-1.74-30.44-1.74-30.44-9.35-9.57-17-12.61-11.31.43-14.13 5.65-4.35 8.26-3.48 11.74 5.26 16.33 5.26 16.33z" fill="#fff" stroke="#263238" stroke-miterlimit="10"/></clipPath><clipPath id="d"><path fill="#fff" stroke="#263238" stroke-miterlimit="10" d="M212.23 340.33l-2.39 32.61 13.91 19.14 1.09-43.92-12.61-7.83z"/></clipPath><clipPath id="e"><path d="M231.23 251.53h0l2.61-27.61s19.35-5.44 28.92-4.35a120.07 120.07 0 0120.24 4.56s3.7 36.1 8 53.71 6.3 43.71 6.52 53.49-6.31 13.26-8.05 15.44-12.82 15.44-12.82 15.44-7-4.35-9.14-11.31-.87-9.78-.87-9.78l16.36-12.4s-6.74-39.79-12-48.71-9.13-12.39-14.78-13.91-5.87-.87-13.05 3.91a85.15 85.15 0 00-12.61 10.44L225.27 354s-8-7.61-13.26-11.09a87.59 87.59 0 00-9.78-5.65s8.78-66 13.13-69.67 15.87-16.06 15.87-16.06z" fill="#5846f9" stroke="#263238" stroke-miterlimit="10"/></clipPath><clipPath id="f"><path d="M303.15 191.78s-3.41-1.44-1-3.8 27.8-8 32.61-7.91 7.5 3.58 8.52 7.59-1.32 8.16-6.38 10.2-26.71 4.92-30.07 4.38-3.68-10.46-3.68-10.46z" fill="#fff" stroke="#263238" stroke-miterlimit="10"/></clipPath><clipPath id="g"><path d="M297 191.67s-10.89-13-12.34-12.55-9.93 1-11 2.06 1.09 4.22 1.09 4.22a19.44 19.44 0 00-.83 3.9c0 1.38 2 2.79 2 2.79a15.22 15.22 0 00.21 3.58c.32 1 .87 1.33 1.06 2s-.13 3.23 1.65 3.81a9 9 0 004.94.51l2.28-.71s5.14 1.12 7.28.68 6.07-1 6.07-1z" fill="#fff" stroke="#263238" stroke-miterlimit="10"/></clipPath><clipPath id="h"><path d="M214.71 212.17s2.82-2.39-.22-3.91-28.92.65-33.49 2.17-6.09 5.66-5.87 9.79 3.7 7.39 9.13 7.83 27-3.26 30-4.79.45-11.09.45-11.09z" fill="#fff" stroke="#263238" stroke-miterlimit="10"/></clipPath><clipPath id="i"><path d="M220.58 210.22s6.52-15.66 8-15.66 9.79-2 11.09-1.3.22 4.35.22 4.35a19.39 19.39 0 012 3.47c.43 1.31-1.09 3.27-1.09 3.27a15.49 15.49 0 01.87 3.48c0 1.08-.44 1.52-.44 2.17s1.09 3-.43 4.13a9.07 9.07 0 01-4.57 2h-2.39s-4.57 2.61-6.74 2.82-6.09.87-6.09.87z" fill="#fff" stroke="#263238" stroke-miterlimit="10"/></clipPath></defs><g stroke="#263238" stroke-linecap="round" stroke-linejoin="round"><path fill="none" d="M90.32 166.52l86.49 64.82-3.05 123.58M157.86 236.29l-6.77 123.42M158.76 219.84l-.51 9.36M125.08 290.68l-8.65 73.86M135.59 200.24l-9.73 83.77M101.21 196.27L68.18 371.61M104.68 177.82l-2.78 14.73M82.91 180.95l14.19 8.77M128.88 209.35l-22.06-13.63M154.02 224.89l-15.58-9.63M173.92 237.18l-12.8-7.91M95.62 195.91l-18.15-10.65M128 214.9l-22.21-13.03M154.44 230.41l-15.49-9.09M173.05 241.33l-12.51-7.34M94.05 204.98l-13.39-6.95M126.98 222.07l-21.48-11.15M154.52 236.36l-16.61-8.62M172.97 245.94l-12.77-6.63M92.01 213.35l-9.64-4.32M126.78 228.97l-23.74-10.66M153.53 240.98l-16.46-7.39M172.98 249.71l-12.55-5.63M68.38 342.65l-27.02.42M113.27 341.95l-32.87.51M148.56 341.39l-24.48.39M171 341.04l-14.53.23M65.8 350.49l-22.87 1.06M112.11 348.34l-33.27 1.54M147.97 346.67l-23.73 1.11M170.51 345.63l-14.57.68M63.66 359.68l-18.05 1.66M111.44 355.3l-34.82 3.2M147.44 352l-23.57 2.16M170.88 349.85l-15.18 1.39M61.95 368.02l-14.77 1.8M109.78 362.21l-35.31 4.29M146.87 357.7l-24.43 2.97M170.34 354.85l-13.88 1.69"/><path fill="none" d="M120.8 236.37l6.51 2.63-1.74 18.91-7.46-1.89 2.69-19.65zM146.57 263.25l1.43-15.92 4.88 1.97-.87 15.33-5.44-1.38zM80.55 220.15l9.92 4-4 23.84-10.12-2.57 4.2-25.27zM167.79 255.31l4.79 1.93-.11 12.58-4.7-1.19.02-13.32zM409.68 166.52l-86.49 64.82 3.05 123.58M342.14 236.29l6.77 123.42M341.24 219.84l.51 9.36M374.92 290.68l8.65 73.86M364.41 200.24l9.73 83.77M398.79 196.27l33.03 175.34M395.32 177.82l2.78 14.73M402.9 189.72l14.19-8.77M371.12 209.35l22.06-13.63M345.98 224.89l15.58-9.63M326.08 237.18l12.8-7.91M404.38 195.91l18.15-10.65M372 214.9l22.21-13.03M345.56 230.41l15.49-9.09M326.95 241.33l12.51-7.34M405.95 204.98l13.39-6.95M373.02 222.07l21.48-11.15M345.48 236.36l16.61-8.62M327.03 245.94l12.77-6.63M407.99 213.35l9.64-4.32M373.22 228.97l23.74-10.66M346.47 240.98l16.46-7.39M327.02 249.71l12.55-5.63"/><path fill="#263238" d="M431.62 342.65l27.02.42"/><path fill="none" d="M386.73 341.95l32.87.51M351.44 341.39l24.48.39M329 341.04l14.53.23M434.2 350.49l22.87 1.06M387.89 348.34l33.27 1.54M352.03 346.67l23.73 1.11M329.49 345.63l14.57.68M436.34 359.68l18.05 1.66M388.56 355.3l34.82 3.2M352.56 352l23.57 2.16M329.12 349.85l15.18 1.39M438.05 368.02l14.77 1.8M390.22 362.21l35.31 4.29M353.13 357.7l24.43 2.97M329.66 354.85l13.88 1.69M379.2 236.37l-6.51 2.63 1.74 18.91 7.46-1.89-2.69-19.65zM353.43 263.25L352 247.33l-4.88 1.97.87 15.33 5.44-1.38zM419.45 220.15l-9.92 4 4 23.84 10.12-2.57-4.2-25.27zM332.21 255.31l-4.79 1.93.11 12.58 4.7-1.19-.02-13.32zM94 377c23.56-4.34 55.26-10.18 79.36-14.66M61.11 383l24.55-4.51M420.82 380c-25.16-6-66.18-15.55-94.6-20.83M446.87 385.42S441 384 431.59 381.7M157.44 217.44l5.57-62.9-41.4-46.17M333.38 223.81l-3.18-68.47 50.15-46.97"/></g><path d="M218.35 399.67s-15.51 2.77-26.59 7.21 29.92 3.88 21.05 5.54-36 5.54-25.49 11.63 90.87 7.21 114.14 1.67-41-18.84-29.36-23.83 23.82 0 23.27-6.65-22.69-14.7-26.3-14.55 19.65 9.57 6.35 12.34-39.34-.03-57.07 6.64z" fill="#5846f9"/><path d="M218.35 399.67s-15.51 2.77-26.59 7.21 29.92 3.88 21.05 5.54-36 5.54-25.49 11.63 90.87 7.21 114.14 1.67-41-18.84-29.36-23.83 23.82 0 23.27-6.65-22.69-14.7-26.3-14.55 19.65 9.57 6.35 12.34-39.34-.03-57.07 6.64z" fill="#fff" opacity=".6"/><g><path d="M251.45 157.81s-10.22 3.7-13.7 5.22-14.56 2.83-16.3 3.92-45 48.92-44.14 49.79 10.65 1.3 13.48.65 38.05-34.79 38.05-34.79 4.57.22 4.57 3.7 2.17 41.31 2.17 41.31l45-.87.22-45.88s.43-4.56 3.91-4.35S325.38 190 325.38 190l10.62-9.14s-37.62-14.57-44.8-19.13-9.13-9.35-12-9.35-27.75 5.43-27.75 5.43z" fill="#fff"/><g clip-path="url(#a)"><path d="M329.54 178.32l-2.54 2.74-8.63-3.42 2-3-1.42-.57-2 3c-3-1.2-5.91-2.37-8.36-3.37l1.71-3.18-1.39-.58-1.71 3.19c-2.58-1-4.47-1.84-5.09-2.15-.83-.42-2.35-1.2-4.18-2.17l.58-3.4-1.41-.65-.57 3.31c-2.87-1.54-6.24-3.38-9-5l-.31-4.36c-.58-.5-1.11-1-1.61-1.45l.35 4.89a31.86 31.86 0 01-3.7-2.43c-2.85-2.45-3.26-2.45-3.51-2.45v.14c-.46-2.58-.76-4.37-.77-4.43l-1.48.25c0 .22.32 1.93.75 4.34l-3.49.72v-5.07l-1.5.28v5.1l-6.7 1.38v-5.14l-1.49.31v5.14l-7.41 1.53-.25-5.07-1.48.32.25 5.06-10.7 2.21-.61-3.72-1.43.54.57 3.49-4.44.91-.41-2.7-.37.16a11.15 11.15 0 01-1.06.39l.37 2.46-7.76 1.6-.39-2.32-1.47.28.39 2.35-4.88 1-.77-2.15a3.53 3.53 0 00-.73.31 4 4 0 00-.57.51l.62 1.72-5.08 5.94-1.13-1.78-1 1.14 1.16 1.84-9.39 11-1.86-1.78-1 1.11 1.89 1.81-7.15 8.36-2.32-1.72-1 1.12 2.35 1.74-8.45 9.89-2.73-1.59-1 1.16 2.74 1.59-7.19 8.41c.57.06 1.19.12 1.84.16l6.67-7.81 2.22 1.29-6.15 6.64h2l5.45-5.88 2.3 1.33-4.19 4.3.33-.06c.83-.19 4.44-3.26 9.13-7.5l5.49-5.63.36.27 1.11-1-.42-.32 6.73-6.91.68.66 1.1-1-.73-.7 8-8.17.78 1.23 1.1-1.06-.81-1.28 3.09-3.17.6 1.67 1.19-1.14-.55-1.53 2.45-.46.26 1.58a5.55 5.55 0 011.64.74l-.42-2.6 7.61-1.43 1.1 7.26-6.89 1.11c0 .44 0 .95.07 1.51l6.95-1.19.94 6.23L234 196l-.24-1.45c.2 4 .47 8.83.73 13.62l1.26 7.63-.82.32c0 .54.06 1.06.09 1.57l1-.39 1.69 10.25h1.52l-1.77-10.74c2.38-.86 4.73-1.59 7-2.2l1.94 12.8h1.52l-2-13.14c1.67-.42 3.31-.77 4.94-1.06l2.29 14.1h1.51l-2.33-14.33c1.79-.29 3.55-.51 5.27-.68l.69 14-1 1h2.16l.38-.37-.72-14.67c1.76-.13 3.48-.2 5.17-.22l.07 15.17h1.5l-.07-15.14c2.15 0 4.23.13 6.25.31l-.03 14.53h1.5l.05-14.53q3.75.42 7.14 1.13V212a82.3 82.3 0 00-7.14-1.1v-9.17a70.32 70.32 0 017.15.6v-1.5a70.32 70.32 0 00-7.15-.58v-10.52l7.17-1.43v-1.53l-7.17 1.43v-5.52l7.17-1.23v-.54a6.69 6.69 0 01.2-1l-7.37 1.26v-8l6.44-1.21a41 41 0 001.31 4.56l1.4-.53a35.25 35.25 0 01-1.14-3.95l5.19 3.26.25 1.7c.46.12 1 .27 1.53.44l-.09-1.25 3.82 2.4c1.78.57 3.78 1.23 5.89 1.93l-2-1.26.54-3.11c2.17 1.1 4.55 2.29 7 3.51l-1.23 2.34 1.44.49 1.15-2.15c2.39 1.18 4.86 2.38 7.28 3.56l-.82 1.21 1.47.51.72-1.06c2.43 1.18 4.81 2.32 7 3.37l-.28.3 1.54.55.15-.17 1.82.87 1.43.51 1.12-1-3.31-1.57 4.24-4.63 4.31 1.7 1.29-1.1-4.51-1.79 2.52-2.74zm-65.45-4.95l-6.84 1.28-.28-5.72 7.09-1.62zm0-11.54v3.95l-7.16 1.62-.2-4.05zM256.66 193l.4 8.14c-2.2.3-4.37.66-6.46 1l-1.26-7.73zm-.08-1.51L249.1 193l-1-6 8.17-1.4zm-.36-7.44l-8.34 1.43-1.2-7.36 9.16-1.72zm-8.59 9.22l-4.74.94-.94-6.19 4.69-.81zm8.13-18.38l-9.32 1.75-.84-5.17 9.89-2.25zm-.55-11.27l.2 4.08-10 2.29-.68-4.2zm-27.14 5.61l.75 4.53-3.3.75-.19-.56-.37.4-1.5-4.17zm-6 1.54l1.73 4.82-4.19 4.53-2.36-3.71zm-5.83 6.83l2.32 3.66-8.86 9.56-2.61-2.51zm-10.13 11.85l2.59 2.55-7.07 7.63-2.53-1.88zm-14.05 20.43l-2.28-1.32 8.33-9.75 2.49 1.84zm3.66 2.12l-2.33-1.35 8.42-9.1 2.37 1.76zm9.52-9.77l-2.41-1.78 6.94-7.5 2.33 2.24zm7.9-8.12l-2.35-2.26 8.6-9.28 2 3.1zm9.3-9.54l-2-3.14 3.93-4.25 1.42 3.95zm5-4.37L226 176l3.07-.7.75 4.51zm2.1-11.2l7.75-1.6.66 4.36-7.67 1.74zm1.74 10.56l-.75-4.58 7.64-1.74.75 4.89zm7.48-12.46l4.45-.92.69 4.22-4.49 1zm1.63 10.75l-.75-4.94 4.5-1L245 177zm.23 1.48l4.59-.86 1.19 7.34-4.68.8zm-5 26.56l-1.37-8.35 7.39-1.47 1.2 7.88c-2.6.6-5.03 1.26-7.22 1.9zm1.56 9.44l-1.31-8c2.18-.64 4.6-1.3 7.19-1.94l1.17 7.72c-2.31.61-4.66 1.33-7.05 2.18zm7.12-11.73l-1.19-7.82 4.76-1 1.25 7.73c-1.65.34-3.26.69-4.82 1.05zm1.39 9.18l-1.17-7.7c1.56-.37 3.18-.72 4.84-1.06l1.25 7.7c-1.61.28-3.25.61-4.92 1.02zm6.4-1.31l-1.25-7.73c2-.39 4.15-.74 6.29-1l.4 8.07q-2.67.19-5.44.62zm5.24-35.27l6.77-1.27v7.84l-6.42 1.1zm.45 9.18l6.36-1.09v5.77l-6.1 1.21zm.36 7.41l6-1.2v8.87c-1.91.14-3.8.32-5.67.56zm.88 17.86l-.4-8.15q2.78-.35 5.6-.56v8.49c-1.67-.02-3.41.05-5.22.18zm13 .09c-2-.18-4.11-.29-6.26-.31v-8.59c2.11-.12 4.23-.18 6.34-.15zm0-10.53c-2.11 0-4.23 0-6.34.15l-.05-9.07 6.47-1.29zm.05-11.73l-6.44 1.28v-5.72l6.49-1.12zm0-7.08l-6.51 1.12v-7.87l6.57-1.23zm0-9.51l-6.58 1.24v-6.12l6.64-1.51zm0-7.93l-6.65 1.51v-3.91l6.69-1.38zm1.52-4.09l3.77-.78c.2 1.1.42 2.29.65 3.52l-4.43 1zm-.05 11.74v-6.45l4.73-1.08c.42 2.16.88 4.38 1.34 6.39zm6-9.35h-.08c-.21-1.09-.41-2.16-.59-3.15.41.28 1.09.81 2.24 1.79a41.61 41.61 0 004.8 3.11l.33 4.51c-3.07-2.82-5.95-6-6-6l-.56.5zm2.08 8l-.37.57c-.47-2-.95-4.34-1.4-6.62 1.17 1.27 3.68 3.9 6.16 6.11l.38.29.19 2.77zm13 8.17l-6.46-4.06-.2-2.76c1.66 1 4.17 2.31 7.17 3.85zm.77-4.51c-3.48-1.8-6.18-3.26-7.56-4.14l-.35-4.9c2.8 1.6 6 3.33 8.65 4.74zm8.87 4.45c-2.69-1.32-5.21-2.59-7.47-3.74l.73-4.27c1.73.91 3.11 1.62 3.78 2s2.5 1.1 5.05 2.14zm8.77 4.29c-2.52-1.22-5-2.44-7.43-3.63l2.14-4 8.21 3.31zm8.59 4.13l-7.23-3.47 3-4.41 8.41 3.34z" style="mix-blend-mode:multiply" fill="#5846f9"/></g><path d="M251.45 157.81s-10.22 3.7-13.7 5.22-14.56 2.83-16.3 3.92-45 48.92-44.14 49.79 10.65 1.3 13.48.65 38.05-34.79 38.05-34.79 4.57.22 4.57 3.7 2.17 41.31 2.17 41.31l45-.87.22-45.88s.43-4.56 3.91-4.35S325.38 190 325.38 190l10.62-9.14s-37.62-14.57-44.8-19.13-9.13-9.35-12-9.35-27.75 5.43-27.75 5.43zM258.69 200c.64 5.76.81 17 .81 17M258.23 197c-1-6.69-2.86-30.22-2.86-30.22" fill="none" stroke="#263238" stroke-miterlimit="10"/><path fill="none" stroke="#263238" stroke-linecap="round" stroke-linejoin="round" d="M283.31 176.5l11.21-3.31M296.04 172.68l3.57-.76M286.11 175.74h14.52M215.85 178.29l12.99 4.31-7.13.01M219.42 182.87h-3.31M259.38 171.28c0 .64-.34 1.15-.76 1.15s-.76-.51-.76-1.15.34-1.14.76-1.14.76.51.76 1.14zM260.66 183.63c0 .63-.35 1.15-.77 1.15s-.76-.52-.76-1.15.34-1.14.76-1.14.77.51.77 1.14z"/><ellipse cx="261.42" cy="197.63" rx=".76" ry="1.15" fill="none" stroke="#263238" stroke-linecap="round" stroke-linejoin="round"/><path d="M262.44 210.87c0 .63-.34 1.15-.76 1.15s-.77-.52-.77-1.15.34-1.14.77-1.14.76.51.76 1.14z" fill="none" stroke="#263238" stroke-linecap="round" stroke-linejoin="round"/><path d="M246.69 155.76l-1.18.78a8.31 8.31 0 00-2.7 3l-2.65 4.95 7 6.06 5.57-8 10.41 6.77 3.86-8.72-2.45-3.53a5.26 5.26 0 00-4-2.24c-4.27-.31-12.78-.69-13.86.93z" fill="#fff" stroke="#263238" stroke-miterlimit="10"/><path d="M245.58 149.12s.44 11.52 1.74 12 5 3.26 7.18 3.26 5.22-4.35 5.43-5-.87-11.75-.87-11.75l-12.61 1.31z" fill="#fff"/><g clip-path="url(#b)"><path d="M259.06 147.59l-12.61 1.31-.87.22s.14 3.73.51 7a30.64 30.64 0 007.81.51 20 20 0 005.87-1.13c-.27-3.4-.71-7.91-.71-7.91z" style="mix-blend-mode:multiply" fill="#5846f9" opacity=".5"/></g><path d="M245.58 149.12s.44 11.52 1.74 12 5 3.26 7.18 3.26 5.22-4.35 5.43-5-.87-11.75-.87-11.75l-12.61 1.31z" fill="none" stroke="#263238" stroke-miterlimit="10"/><path d="M236 130.42s-2.39-5-5.87-3 1.53 8.48 4.57 10 4.35 1.3 4.35 1.3zM265.14 129.09s.95-5.46 4.83-4.52.82 8.58-1.7 10.87-3.83 2.43-3.83 2.43z" fill="#fff" stroke="#263238" stroke-miterlimit="10"/><path d="M234.93 129.33s.08.26.24.72c.93 2.78 4.32 12.85 5.63 16 1.52 3.7 7.39 7.83 15.22 6.53s10-10.44 10-13.92-1.74-30.44-1.74-30.44-9.35-9.57-17-12.61-11.31.43-14.13 5.65-4.35 8.26-3.48 11.74 5.26 16.33 5.26 16.33z" fill="#fff"/><g clip-path="url(#c)" fill="#5846f9"><path d="M238 115.07c2.93-3.25 2.93-9.75 2.93-9.75a59.89 59.89 0 0015.27 7.47 31.93 31.93 0 008.47 1.23c-.22-3.41-.37-5.78-.37-5.78s-9.35-9.57-17-12.61-11.31.43-14.13 5.65-4.35 8.26-3.48 11.74c.39 1.58 1.5 5.08 2.6 8.44.58-.64 3.11-3.52 5.71-6.39zM262.35 144c-3.25 5.2-7.15 7.15-13.64 5.2-5.86-1.76-10.13-9.84-10.92-11.43 1.14 3.31 2.34 6.7 3 8.31 1.52 3.7 7.39 7.83 15.22 6.53s10-10.44 10-13.92c0-1.16-.19-5-.45-9.49" style="mix-blend-mode:multiply" opacity=".5"/></g><path d="M234.93 129.33s.08.26.24.72c.93 2.78 4.32 12.85 5.63 16 1.52 3.7 7.39 7.83 15.22 6.53s10-10.44 10-13.92-1.74-30.44-1.74-30.44-9.35-9.57-17-12.61-11.31.43-14.13 5.65-4.35 8.26-3.48 11.74 5.26 16.33 5.26 16.33z" fill="none" stroke="#263238" stroke-miterlimit="10"/><path d="M242.31 117.8c.11.89-.24 1.67-.78 1.73s-1.06-.61-1.16-1.5.24-1.67.78-1.74 1.06.62 1.16 1.51zM257.53 116.06c.11.9-.24 1.67-.78 1.73s-1.05-.61-1.16-1.5.25-1.67.78-1.73 1.06.61 1.16 1.5z" fill="#263238"/><path d="M237.1 111.72s2.61-3.7 6.52-2.39" fill="none" stroke="#263238" stroke-linecap="round" stroke-linejoin="round" stroke-width="2"/><path fill="none" stroke="#263238" stroke-linecap="round" stroke-linejoin="round" d="M251.02 129.33l2.17-2.17-1.52-8.92M243.62 132.37a6.31 6.31 0 005.66 3.92"/><path d="M238.41 99.32s2.61 5 .87 7.83-4.79 3.48-6.09 5-.87 8.92 0 10.87a42.37 42.37 0 011.74 6.31s-5.44-9.57-7-12.39-5.44-12.62-2-18 7.18-1.31 8.48-4.35 1.74-9.13 12.61-12.18 16.31 3 17.83 6.53 7 6.3 11.09 5.21 1.31-2.39 1.31-2.39 4.78 0 3.69 6.74-6.95 11.09-15.22 11.31-21.44-2.01-27.31-10.49z" fill="#263238" stroke="#263238" stroke-miterlimit="10"/><path d="M237.48 95.45S247.3 86.78 253 87s8.67 10 15.52 9.81" fill="none" stroke="#fff" stroke-miterlimit="10" stroke-width=".5"/><path d="M235.43 96.82l3.65 3.2s5.48-5.48 12.56-3 13.47 10.5 20.09 9.82 8.9-7.54 8-11.42M235.88 98.42s-4.11-1.14-5.93 2.28.45 8.22.45 8.22" fill="none" stroke="#fff" stroke-miterlimit="10" stroke-width=".5"/><path d="M239.08 100s-2.51.23-2.51 3.65-.69 5.71-3.2 6.85-3.42 2.06-2.51 3.43" fill="none" stroke="#fff" stroke-miterlimit="10" stroke-width=".5"/><path d="M271 113.72c-.81-2.21-4.11-3-7.24-3.41s-10.91 1.9-12.26 2.3a6.14 6.14 0 00-5.75.44c-1.84 0-9.57-.08-12.26 1.1-2.89 1.28-5.87 2.89-6.05 5.24-.13 1.77 1.5 2.75 2.85 3.16.63 2.86 2.94 7.27 8.21 7 6.66-.32 9.51-4.13 9.35-7.55-.1-2.1-.55-5.92-.74-7.44a4 4 0 013.66-.1c.23 1.56.82 5.28 1.28 7.3.77 3.33 4.55 6.23 11 4.74 5.13-1.19 6.17-6.05 6-9 1.29-.73 2.6-2.11 1.95-3.78zm-32.6 13.85c-5.29.25-6.21-5.73-6.25-6a1 1 0 00-.81-.84c-.5-.09-1.95-.57-1.9-1.21.07-1 1.71-2.17 4.86-3.56a21.76 21.76 0 016-.84c1.78-.09 3.56-.11 4.83-.1.2 1.63.61 5.16.7 7.08.17 1.78-1.3 5.18-7.39 5.47zm29.21-11.49a1 1 0 00-.55 1c0 .26.76 6.26-4.4 7.45-5.94 1.36-8.25-1.52-8.65-3.24s-1-5.38-1.23-7c1.21-.35 2.93-.81 4.67-1.21a21.58 21.58 0 016-.82c3.41.49 5.3 1.2 5.64 2.11.29.63-.97 1.48-1.44 1.71z" fill="#263238"/><path d="M202.23 337.29l10.22 18.3 2.2-14s-8.43-4.72-12.42-4.3z" fill="#5846f9" stroke="#263238" stroke-miterlimit="10"/><path d="M263.63 345.46s-4.78 2.61-6.31 5-3.91 3.26-1.74 6.3A36.15 36.15 0 01261 369.6c.87 4.57 4.35 8.26 8.05 11.09s9.56 3.48 10.21.22-7.39-16.53-8-18.92a16.75 16.75 0 01-.44-6.52c.18-2.4-3.49-11.31-7.19-10.01z" fill="#263238" stroke="#263238" stroke-miterlimit="10"/><path d="M279.27 381a6.85 6.85 0 01-5.42.38c-6.09-1.74-8.92-8.91-12-16.74a47.22 47.22 0 00-6.62-11.54c-.69 1-.9 2 .31 3.71A36.15 36.15 0 01261 369.6c.87 4.57 4.35 8.26 8.05 11.09s9.51 3.47 10.22.31zM268.41 341.33s-7.17 4.57-7.39 6.74 1.74 8.92 2.61 10 3.48-3.7 4.35-2.4l2.17 3.27.87-5.88z" fill="#fff" stroke="#263238" stroke-miterlimit="10"/><path fill="#fff" d="M212.23 340.33l-2.39 32.61 13.91 19.14 1.09-43.92-12.61-7.83z"/><g clip-path="url(#d)"><path d="M211.25 353.7l2.79.17a24.32 24.32 0 0110.57 3.55l.23-9.26-12.61-7.83z" style="mix-blend-mode:multiply" fill="#5846f9" opacity=".5"/></g><path fill="none" stroke="#263238" stroke-miterlimit="10" d="M212.23 340.33l-2.39 32.61 13.91 19.14 1.09-43.92-12.61-7.83z"/><path d="M224.33 368.75a22.35 22.35 0 00-13.7-6.65l-.79 10.9 13.91 19.13z" fill="#fff" stroke="#263238" stroke-miterlimit="10"/><path d="M224 400.78s1.09-6.53 0-11.09-8.48-17-15.66-24.57-17.17-22.62-23.48-28.7-14.13-4.57-14.13 5.65 6.3 27.83 15.65 37.18S209 399 212.44 400.78s7.4 3.22 11.56 0z" fill="#263238" stroke="#263238" stroke-miterlimit="10"/><path d="M224.45 395A54.53 54.53 0 00214 384.25c-8.05-6.52-14.14-21.09-17.83-30.22-2.29-5.65-7.56-12.87-11.26-17.56v-.05c-6.31-6.09-14.13-4.57-14.13 5.65s6.3 27.83 15.65 37.18S209 399 212.44 400.78s7.4 3.26 11.53 0a43.09 43.09 0 00.48-5.78z" fill="#fff" stroke="#263238" stroke-miterlimit="10"/><path d="M224.12 399.69c-2.82-4.33-8.16-9.63-14.5-15.44-10.22-9.35-18.7-37.83-26.31-46.53-4.64-5.3-9.19-2.69-12 .16a14.39 14.39 0 00-.57 4.19c0 10.22 6.3 27.83 15.65 37.18S209 399 212.44 400.78s7.4 3.26 11.53 0c.03 0 .03-.41.15-1.09z" fill="#fff" stroke="#263238" stroke-miterlimit="10"/><path d="M231.23 251.53l2.61-27.61s19.35-5.44 28.92-4.35a120.07 120.07 0 0120.24 4.56s3.7 36.1 8 53.71 6.3 43.71 6.52 53.49-6.31 13.26-8.05 15.44-12.82 15.44-12.82 15.44-7-4.35-9.14-11.31-.87-9.78-.87-9.78l16.36-12.4s-6.74-39.79-12-48.71-9.13-12.39-14.78-13.91-5.87-.87-13.05 3.91a85.15 85.15 0 00-12.61 10.44L225.27 354s-8-7.61-13.26-11.09a87.59 87.59 0 00-9.78-5.65s8.78-66 13.13-69.67 15.87-16.06 15.87-16.06z" fill="#5846f9"/><g clip-path="url(#e)"><path d="M297.53 332.34c-2.48 0-6.36.19-8.84-5.59-3.88-9.05-7.32-35.33-13.36-48.26s-18.1-24.14-24.56-24.14 8.19 9.48 8.19 9.48-5.61-2.58-6.9-2.58-17.24 8.62-22.41 11.63-4.31 5.61-6 13.36c-1.47 6.6-2.31 50.85-2.53 64 2.41 2.13 4.18 3.81 4.18 3.81l5.31-73.58A85.15 85.15 0 01243.19 270c7.18-4.78 7.39-5.43 13.05-3.91s9.56 5 14.78 13.91 12 48.71 12 48.71l-16.31 12.4s-1.3 2.82.87 9.78 9.14 11.31 9.14 11.31 11.08-13.27 12.82-15.44 7.75-5.42 7.99-14.42z" style="mix-blend-mode:multiply" fill="#263238" opacity=".2"/></g><path d="M231.23 251.53h0l2.61-27.61s19.35-5.44 28.92-4.35a120.07 120.07 0 0120.24 4.56s3.7 36.1 8 53.71 6.3 43.71 6.52 53.49-6.31 13.26-8.05 15.44-12.82 15.44-12.82 15.44-7-4.35-9.14-11.31-.87-9.78-.87-9.78l16.36-12.4s-6.74-39.79-12-48.71-9.13-12.39-14.78-13.91-5.87-.87-13.05 3.91a85.15 85.15 0 00-12.61 10.44L225.27 354s-8-7.61-13.26-11.09a87.59 87.59 0 00-9.78-5.65s8.78-66 13.13-69.67 15.87-16.06 15.87-16.06zM283 328.72s1.36 9 2 10.36" fill="none" stroke="#263238" stroke-miterlimit="10"/><path d="M259.13 221.82l-1.78 27.49a7.33 7.33 0 003.56-2c1.27-1.53 2.55-13.5 2.55-13.5M243.85 223.85l7.13-1.01.51-1.79M266.26 221.31l-.51 1.53-3.82-.26M268.8 221.31l-.25 2.04 5.85 1.27M234.44 250.08s5.6-.51 11.45 6.61M243.6 252.37s1.27 0 4.58 5.09" fill="none" stroke="#263238" stroke-linecap="round" stroke-linejoin="round"/><path d="M230.8 193.91s3.47-3 4.78-4.35 1.74-4.57 3.26-2.61 1.52 4.35.44 5-3.7 2-4.35 2.83-5.87 1.3-4.13-.87zM282.35 179.15s-4.23-1.87-5.87-2.73-3-3.84-3.89-1.51-.15 4.6 1.08 4.9 4.11.76 5 1.4 5.99-.5 3.68-2.06z" fill="#fff" stroke="#263238" stroke-miterlimit="10"/><path fill="#263238" stroke="#263238" stroke-miterlimit="10" d="M233.19 164.34l.87 31.09 3.91 28.92 3.7-.65-4.57-29.14-.22-31.09-3.69.87zM270.15 153.9s6.74 23.92 7.4 26.75 2.39 18.48 2.82 20-2.82 24.35-2.82 24.35l3.69.87 2.61-27.61-3-17.4-6.74-27.39z"/><path fill="#fff" stroke="#263238" stroke-miterlimit="10" d="M240.84 218.45l-1.62-1.43-1.72 2.65.47 4.68 3.7-.65-.83-5.25zM281.71 221l-.93-2.65-2.55 1.76c-.39 2.89-.68 4.93-.68 4.93l3.69.87z"/><path d="M254.71 165.43s-12.17-7-12.61-4.78.22 13.48 1.52 13 11.31-6.07 11.31-6.07 12.83 7.16 13.05 3.68-.44-12.61-3.48-12.83-9.79 7-9.79 7z" fill="#263238" stroke="#263238" stroke-miterlimit="10"/><path fill="none" stroke="#fff" stroke-linecap="round" stroke-linejoin="round" stroke-width=".5" d="M256.74 166.19l6.35-2.89M256.74 166.19l5.77 1.35M248.27 164.84l5.01 1.73-4.81 1.54M256.36 164.65s.38 2.5 0 3.08-1.93.38-2.51-.39"/><path d="M303.15 191.78s-3.41-1.44-1-3.8 27.8-8 32.61-7.91 7.5 3.58 8.52 7.59-1.32 8.16-6.38 10.2-26.71 4.92-30.07 4.38-3.68-10.46-3.68-10.46z" fill="#fff"/><g clip-path="url(#f)"><path d="M343.36 187.85l-1.64.35c-.3-1.77-.63-3.55-1-5.31h.19a7.91 7.91 0 00-2.15-1.75c.05.23.12.47.17.71l-7.61 1.93c-.34-1.09-.74-2.13-1.16-3.15l-1.51.25c.44 1 .85 2.13 1.22 3.27l-10.16 2.59a30.89 30.89 0 00-1.82-3.64l-1.56.37a27.38 27.38 0 011.88 3.65l-8 2a20.55 20.55 0 00-2.35-3.41c-.53.16-1 .31-1.5.47a18.92 18.92 0 012.42 3.3l-1.29.32a12 12 0 00-4.34 2c0 .16 0 .87.14 1.85a10.39 10.39 0 014.57-2.44l1.63-.41a19 19 0 011.32 3.82l-7.18 1.5q.12.74.3 1.47l7.16-1.49a22 22 0 01.23 3.89l-6.09 1a2.56 2.56 0 001.64 1.25l4.35-.7c0 .21-.05.41-.07.62l1.51-.13c0-.24.05-.49.07-.73l8.12-1.3v1.07l1.56-.22v-1.11l9.11-1.46c0 .34-.06.68-.09 1L333 199c0-.31.06-.62.08-.93l5.3-.86a11.61 11.61 0 002.67-1.94l-7.91 1.27a40 40 0 00-.19-4.95l7.56-1.58c.27 1.72.49 3.43.68 5.1a8.87 8.87 0 001.3-1.69c-.15-1.23-.32-2.46-.51-3.71l1.59-.33a7 7 0 00-.21-1.53zm-32.46 2.61l7.83-2a31.81 31.81 0 011.22 4.26l-7.72 1.61a20.18 20.18 0 00-1.33-3.87zm1.91 9.31a22.58 22.58 0 00-.29-4l7.72-1.61a42.06 42.06 0 01.54 4.28zm7.42-11.67l10-2.56a37.85 37.85 0 011 4.83l-9.79 2a34.9 34.9 0 00-1.21-4.27zm2.1 10.14a43.46 43.46 0 00-.55-4.35l9.68-2a39.11 39.11 0 01.15 4.88zm10.41-8.17a39 39 0 00-1-4.9l7.53-1.91q.57 2.61 1 5.24z" style="mix-blend-mode:multiply" fill="#5846f9"/></g><path d="M303.15 191.78s-3.41-1.44-1-3.8 27.8-8 32.61-7.91 7.5 3.58 8.52 7.59-1.32 8.16-6.38 10.2-26.71 4.92-30.07 4.38-3.68-10.46-3.68-10.46z" fill="none" stroke="#263238" stroke-miterlimit="10"/><path d="M297 191.67l2.44 9.26L306 200a8.18 8.18 0 00-2.92-9.34z" fill="#fff" stroke="#263238" stroke-miterlimit="10"/><path d="M297 191.67s-10.89-13-12.34-12.55-9.93 1-11 2.06 1.09 4.22 1.09 4.22a19.44 19.44 0 00-.83 3.9c0 1.38 2 2.79 2 2.79a15.22 15.22 0 00.21 3.58c.32 1 .87 1.33 1.06 2s-.13 3.23 1.65 3.81a9 9 0 004.94.51l2.28-.71s5.14 1.12 7.28.68 6.07-1 6.07-1z" fill="#fff"/><g clip-path="url(#g)"><path d="M293.33 201.91c1.15-.23 2.8-.5 4.09-.69-1.91.21-4.76.35-6.49-.42-2.79-1.24-6.19-3.09-9.6-1.86a29.22 29.22 0 00-3.57 1.56 1.84 1.84 0 001.07.93 9 9 0 004.94.51l2.28-.71s5.14 1.12 7.28.68z" style="mix-blend-mode:multiply" fill="#5846f9" opacity=".5"/></g><path d="M297 191.67s-10.89-13-12.34-12.55-9.93 1-11 2.06 1.09 4.22 1.09 4.22a19.44 19.44 0 00-.83 3.9c0 1.38 2 2.79 2 2.79a15.22 15.22 0 00.21 3.58c.32 1 .87 1.33 1.06 2s-.13 3.23 1.65 3.81a9 9 0 004.94.51l2.28-.71s5.14 1.12 7.28.68 6.07-1 6.07-1z" fill="none" stroke="#263238" stroke-miterlimit="10"/><path fill="#fff" stroke="#263238" stroke-miterlimit="10" d="M274.73 185.4l9.85-.57M275.91 192.09l9.78-.77M277.18 197.62l8.28-1.22"/><path d="M214.71 212.17s2.82-2.39-.22-3.91-28.92.65-33.49 2.17-6.09 5.66-5.87 9.79 3.7 7.39 9.13 7.83 27-3.26 30-4.79.45-11.09.45-11.09z" fill="#fff"/><g clip-path="url(#h)"><path d="M215 222.63a4 4 0 00.64-1.63l-8 1.34c0-1.13 0-2.26.14-3.37l8-1.15c0-.5-.1-1-.16-1.49l-7.66 1.1a22.66 22.66 0 01.83-3.82l6.22-.55c-.12-.55-.21-.89-.21-.89a4.23 4.23 0 00.6-.65l-6 .53a11 11 0 013-4.2c-.6 0-1.31-.08-2.08-.09a13.63 13.63 0 00-2.64 4.44l-8.11.71a30.87 30.87 0 012.13-4.92l-1.74.11a31.36 31.36 0 00-2 5l-8.82.78a32.85 32.85 0 011.19-4.89l-1.63.19a34.63 34.63 0 00-1.09 4.83l-6.64.59A23.13 23.13 0 01183 210a15.74 15.74 0 00-1.91.45 24.85 24.85 0 00-1.72 4.26L176 215a10.84 10.84 0 00-.52 1.55l3.48-.31a18.53 18.53 0 00-.39 5.42l-3.06.45a7.45 7.45 0 00.62 1.42l2.62-.38a17.87 17.87 0 001.09 3.76 12 12 0 003.4 1l4.36-.72c0 .26.08.52.12.78l1.49-.12-.21-.85 8.35-1.39c.1.4.23.81.35 1.21l1.5-.23c-.13-.41-.26-.82-.36-1.23l7.19-1.2c0 .41 0 .81.06 1.21.52-.1 1-.2 1.52-.31v-1.15zm-34.52-6.54l6.87-.6a41.15 41.15 0 00-.26 4.93l-7.05 1a17 17 0 01.4-5.33zm.92 10.62a16.35 16.35 0 01-1.18-3.79l6.91-1c0 1.29.15 2.55.29 3.78zm7.49-1.25c-.14-1.22-.24-2.46-.29-3.74l8.18-1.18a21.71 21.71 0 00.33 3.55zm7.92-6.44l-8.23 1.19a42.19 42.19 0 01.28-4.86l8.62-.75a24.27 24.27 0 00-.71 4.4zm9.19 3.58l-7.48 1.24a20.19 20.19 0 01-.32-3.51l7.92-1.14c-.06 1.13-.12 2.27-.12 3.41zm.28-4.95l-8 1.16a23.38 23.38 0 01.72-4.35l8.07-.71a24.25 24.25 0 00-.76 3.9z" style="mix-blend-mode:multiply" fill="#5846f9"/></g><path d="M214.71 212.17s2.82-2.39-.22-3.91-28.92.65-33.49 2.17-6.09 5.66-5.87 9.79 3.7 7.39 9.13 7.83 27-3.26 30-4.79.45-11.09.45-11.09z" fill="none" stroke="#263238" stroke-miterlimit="10"/><path d="M220.58 210.22l.43 9.56-6.52 1.09a8.17 8.17 0 010-9.78z" fill="#fff" stroke="#263238" stroke-miterlimit="10"/><path d="M220.58 210.22s6.52-15.66 8-15.66 9.79-2 11.09-1.3.22 4.35.22 4.35a19.39 19.39 0 012 3.47c.43 1.31-1.09 3.27-1.09 3.27a15.49 15.49 0 01.87 3.48c0 1.08-.44 1.52-.44 2.17s1.09 3-.43 4.13a9.07 9.07 0 01-4.57 2h-2.39s-4.57 2.61-6.74 2.82-6.09.87-6.09.87z" fill="#fff"/><g clip-path="url(#i)"><path d="M233.84 216.09h2.39a9.07 9.07 0 004.57-2 2.39 2.39 0 00.76-2.43 13.05 13.05 0 01-4.48 1.79c-3.41.62-7.12.93-10.22 2.47a38.17 38.17 0 00-5.68 3.8c.78-.13 4-.66 5.92-.85 2.17-.17 6.74-2.78 6.74-2.78z" style="mix-blend-mode:multiply" fill="#5846f9" opacity=".5"/></g><path d="M220.58 210.22s6.52-15.66 8-15.66 9.79-2 11.09-1.3.22 4.35.22 4.35a19.39 19.39 0 012 3.47c.43 1.31-1.09 3.27-1.09 3.27a15.49 15.49 0 01.87 3.48c0 1.08-.44 1.52-.44 2.17s1.09 3-.43 4.13a9.07 9.07 0 01-4.57 2h-2.39s-4.57 2.61-6.74 2.82-6.09.87-6.09.87z" fill="none" stroke="#263238" stroke-miterlimit="10"/><path fill="#fff" stroke="#263238" stroke-miterlimit="10" d="M239.93 197.61l-9.57 2.39M240.8 204.35l-9.57 2.17M241.23 210l-8.26 1.3"/></g></svg>