<svg xmlns="http://www.w3.org/2000/svg" viewBox="0 0 750 500"><path d="M199 192.3s-5.6-4.58-14.38 9-12.41 21.61-12.41 21.61-2.24 2.81-4.1.63-4.13-8.05-7.74-7.4-5.37 4.61-5.28 10.65-.23 19.3-.26 20.49-.87 2.83-2.38 1.55-9.78-12.63-14.93-8.38-2.15 21-1.86 22.89-.13 2.57-1 2.93-3.32-3.72-5.8-6.85-5.92-6.33-8.68-3.63-4.81 14.86 4.81 35.95l5.1 9.48 10.79.5c23.18-.33 33.3-7.38 34.56-11s-3.1-5.38-7-6.29-8.61-1.34-8.67-2.31.41-1.66 2.2-2.19 18.26-5 19.89-11.47-12.16-9.09-14-9.9-.67-2.29.38-2.82 12.91-6.49 18.41-9 8.37-5.66 7.37-9.33-7.23-3.08-10-3.83-1.19-4-1.19-4 5.68-6.7 14.22-20.46 1.82-16.91 1.82-16.91" fill="#ebebeb"/><path d="M128.18 303c6.31-10.08 17.82-27.82 27.63-43.09s18.67-29.11 25-39.16l7.52-11.91 2-3.24.54-.84c.12-.19.19-.28.19-.28l-.16.3c-.13.2-.3.49-.51.85l-2 3.27c-1.73 2.84-4.27 6.93-7.43 12-6.31 10.09-15.14 23.94-24.95 39.22s-21.35 33-27.71 43" fill="#e0e0e0"/><path d="M163.23 224.49a3.86 3.86 0 01.19.76c.11.49.24 1.2.4 2.08.31 1.76.67 4.2 1 6.91s.65 5.08.88 6.92c.11.83.21 1.53.28 2.1a4 4 0 01.08.77 2.7 2.7 0 01-.21-.75c-.1-.49-.23-1.2-.38-2.08-.29-1.77-.63-4.22-1-6.92s-.69-5.07-.93-6.92l-.3-2.09a3 3 0 01-.01-.78zM167.05 244.32c0-.09 5-1.06 11.18-2.18s11.22-1.94 11.23-1.85-5 1.07-11.17 2.18-11.22 1.94-11.24 1.85zM150.93 267.1a3.72 3.72 0 01.8 0l2.14.23c1.82.19 4.32.44 7.1.62s5.29.26 7.11.3h2.16a2.77 2.77 0 01.79.06 4.61 4.61 0 01-.79.07h-2.16c-1.83 0-4.35 0-7.14-.2s-5.29-.46-7.1-.71c-.9-.13-1.63-.24-2.13-.34a4.34 4.34 0 01-.78-.03zM143.53 249.92a3.85 3.85 0 01.35.65l.87 1.8c.71 1.52 1.68 3.64 2.73 6s2 4.49 2.64 6l.76 1.84a2.85 2.85 0 01.24.7 3 3 0 01-.36-.65l-.86-1.8c-.71-1.52-1.68-3.64-2.73-6s-2-4.48-2.64-6c-.3-.72-.56-1.34-.76-1.84a2.85 2.85 0 01-.24-.7zM126.74 268.23a4.93 4.93 0 01.45.82l1.12 2.31c.92 1.95 2.18 4.65 3.56 7.65s2.59 5.72 3.47 7.7c.41.94.75 1.73 1 2.35a4.81 4.81 0 01.34.88 5 5 0 01-.45-.83l-1.12-2.3c-.92-2-2.18-4.66-3.56-7.66s-2.6-5.72-3.47-7.7l-1-2.34a5.54 5.54 0 01-.34-.88zM136.59 289.35a6.44 6.44 0 011 0l2.73.19c2.31.16 5.5.36 9 .49s6.72.17 9 .18h2.74a5.74 5.74 0 011 0 7 7 0 01-1 .09c-.64 0-1.58.07-2.74.09-2.31 0-5.51 0-9-.08s-6.72-.38-9-.59l-2.72-.3a6.34 6.34 0 01-1.01-.07zM110.91 230.44a28.48 28.48 0 01-.28 4.93 35.66 35.66 0 01-4.49 13.23l-.1-.18h.21l-.1.18-28 49.67-.17.31-.2-.3-29.6-47.23-1.46-2.33-.23-.36h.43l-.2.36a36.17 36.17 0 01-4.46-12.48 33.8 33.8 0 01-.45-6.49l.18-3.21c.16-1.06.32-2.11.47-3.16a36.47 36.47 0 0112.09-20.67 35.14 35.14 0 019.73-5.71l1.29-.48.64-.24.66-.18 2.61-.68a37.72 37.72 0 015.22-.63 35.6 35.6 0 015.07.09c.83.07 1.64.25 2.45.36l1.2.2c.39.08.78.2 1.17.3l2.29.62 2.17.83c.36.14.72.26 1.07.41l1 .51 2 1a35.92 35.92 0 0111.5 10.62 36.55 36.55 0 015 10.72 31.9 31.9 0 01.88 4.24 22.42 22.42 0 01.34 3.15c0 .84 0 1.49.07 1.95s0 .66 0 .66v-.66c0-.43-.06-1.1-.11-1.94a24.87 24.87 0 00-.38-3.14 33.61 33.61 0 00-.92-4.21 36.78 36.78 0 00-5-10.62A35.81 35.81 0 0093 199.39l-2-1-1-.49c-.34-.16-.7-.27-1.06-.41l-2.15-.82-2.27-.6c-.38-.1-.76-.22-1.15-.3l-1.19-.19c-.8-.11-1.6-.28-2.42-.35a35 35 0 00-5-.07 36.88 36.88 0 00-5.16.63l-2.58.68-.65.18-.63.23-1.27.48a34.65 34.65 0 00-9.65 5.64 36 36 0 00-11.92 20.47c-.15 1-.31 2.07-.46 3.11s-.12 2.11-.17 3.18a33.83 33.83 0 00.44 6.41 35.88 35.88 0 004.4 12.31l.21.36h-.41l.2-.36c.46.74 1 1.53 1.45 2.33l29.58 47.26h-.37c11.78-20.72 21.61-38 28.17-49.58l.11.18h-.22l.1-.18a36.31 36.31 0 004.58-13.13c.23-1.59.29-2.83.35-3.65v-.94c0-.22.05-.33.05-.33z" fill="#e0e0e0"/><path d="M98.35 230a2 2 0 010-.35c0-.26 0-.6-.08-1v-.76c0-.28-.09-.59-.14-.92a17 17 0 00-.46-2.25 21.06 21.06 0 00-2.42-5.79 21.68 21.68 0 00-26-9.31 22.64 22.64 0 00-2.83 1.23 23.44 23.44 0 00-2.66 1.7 25.42 25.42 0 00-2.46 2.09 24.41 24.41 0 00-2.13 2.5 21.28 21.28 0 00-3.11 6 21.51 21.51 0 000 13.67 20.62 20.62 0 003.08 6 24.47 24.47 0 002.11 2.52 26.69 26.69 0 002.45 2.1 23.53 23.53 0 002.66 1.71 22 22 0 002.64 1.18 21.75 21.75 0 0026.08-9.18 20.47 20.47 0 002.45-5.78 15.67 15.67 0 00.47-2.25c0-.33.11-.63.15-.91v-.77c0-.43.06-.78.08-1a2 2 0 010-.36 1.63 1.63 0 010 .36v1.77c0 .28-.08.59-.12.92a17.16 17.16 0 01-.43 2.28 20.77 20.77 0 01-2.4 5.87 22 22 0 01-26.46 9.45 20.5 20.5 0 01-5.59-3 24.07 24.07 0 01-2.51-2.14 24.46 24.46 0 01-2.1-2.58 21.42 21.42 0 01-3.16-6.1 23.93 23.93 0 01-1.12-7 23.63 23.63 0 011.16-7 21.36 21.36 0 013.18-6.08 25.59 25.59 0 012.18-2.56 26.43 26.43 0 012.52-2.12 24.44 24.44 0 012.72-1.73 22.92 22.92 0 012.9-1.2 22 22 0 0126.41 9.58 21.17 21.17 0 012.37 5.89 15.3 15.3 0 01.41 2.27c0 .34.1.64.12.93s0 .53 0 .76v1.05a1.88 1.88 0 01.04.31z" fill="#e0e0e0"/><path fill="#e0e0e0" d="M76.03 240.23l-12.73-8.87 3.1-4.44 8.53 5.95 11.04-14.03 4.25 3.35-14.19 18.04z"/><path d="M432.08 75.87a42.17 42.17 0 0110.83 2.85l7.95-6.66 13.66 10.4-4.3 9.44a42.51 42.51 0 015.64 9.67l10.33.91 2.31 17-9.72 3.63a41.72 41.72 0 01-2.86 10.89l6.67 8-10.4 13.67-9.44-4.31a42.15 42.15 0 01-9.67 5.64l-.91 10.33-17 2.31-3.63-9.72A42.1 42.1 0 01410.7 157l-8 6.66-13.66-10.4 4.31-9.44a41.94 41.94 0 01-5.64-9.67l-10.33-.91-2.31-17 9.71-3.64a42.22 42.22 0 012.86-10.82L381 93.79l10.39-13.67 9.45 4.31a42.3 42.3 0 019.67-5.64l.91-10.33 17-2.31 3.63 9.72zM427 99.33a18.42 18.42 0 1018.5 14.09A18.43 18.43 0 00427 99.33z" fill="#f5f5f5" fill-rule="evenodd"/><path d="M277.15 130.26a27.33 27.33 0 017 1.86l5.16-4.33 8.87 6.75-2.79 6.13a27.46 27.46 0 013.66 6.28l6.71.59 1.49 11-6.3 2.36a27.52 27.52 0 01-1.86 7l4.33 5.16-6.73 8.94-6.13-2.79a27.21 27.21 0 01-6.28 3.65l-.59 6.71-11 1.5-2.36-6.31a27.1 27.1 0 01-7-1.85l-5.16 4.33-8.87-6.75 2.8-6.13a27.1 27.1 0 01-3.66-6.28l-6.71-.59-1.5-11.05 6.31-2.35a27.28 27.28 0 011.85-7L244 141.9l6.75-8.87 6.13 2.79a27.54 27.54 0 016.27-3.66l.59-6.71 11.05-1.45 2.36 6.3zm-3.32 15.23a12 12 0 1012 9.15 12 12 0 00-12-9.15z" fill="#ebebeb" fill-rule="evenodd"/><path d="M369.82 211a14.57 14.57 0 014 2.64A19.26 19.26 0 01380 225a19.52 19.52 0 01-.68 9.06 19.84 19.84 0 01-5.71 8.74 18.46 18.46 0 01-4.77 3.12 18.65 18.65 0 01-5.71 1.67 19.7 19.7 0 01-20.59-11.29 18.49 18.49 0 01-1.67-5.71 18.81 18.81 0 01.07-5.71 19.91 19.91 0 014.3-9.51 19.48 19.48 0 017.28-5.44 19.26 19.26 0 0112.93-.9 14.69 14.69 0 014.37 2c-.06.12-1.53-.79-4.48-1.53a19.26 19.26 0 00-12.5 1.19A18.72 18.72 0 00346 216a19 19 0 00-4 9.08 18.85 18.85 0 001.57 10.8A18.71 18.71 0 00363 246.53a17.59 17.59 0 005.41-1.56 17.26 17.26 0 004.54-2.93 18.89 18.89 0 006.3-16.91 19.31 19.31 0 00-5.73-11.13c-2.21-2.14-3.78-2.89-3.7-3z" fill="#ebebeb"/><path d="M390.44 195.42a5.84 5.84 0 01.15-.66c.13-.49.3-1.15.52-2l2.16-7.85.08.2-15.84-8.57.34-.06-7.17 8.18-.13.15-.19-.05a44.39 44.39 0 00-11.59-1.23h-.22l-.11-.19c-1.65-3-3.44-6.17-5.31-9.51l.46.19-17.28 5.08.31-.45c.22 3.37.45 7.07.69 10.87v.28l-.24.14a43.57 43.57 0 00-9 7.28l-.2.21-.28-.08-10.47-3 .57-.23L309 210l-.11-.64 8.15 7.21.24.21-.07.31a43.4 43.4 0 00-1.21 11.48v.32l-.29.16-9.52 5.29.26-.63 5.04 17.29-.56-.39 10.86-.67h.34l.17.29a43.68 43.68 0 007.25 9c.07.25-.14-.55.16.56V260.1l-.1.33-.19.65-.37 1.32-.76 2.62c-.5 1.75-1 3.49-1.49 5.22l-.27-.64 15.79 8.67-.67.11 7.21-8.14.14-.24.32.08a43.91 43.91 0 0011.53 1.27h.33l.15.28q2.69 4.83 5.28 9.53l-.61-.25 17.29-5-.36.52c-.22-3.68-.44-7.31-.65-10.86v-.31l.26-.15a43.66 43.66 0 009.07-7.25l.2-.21.28.08 10.45 3-.53.22 8.7-15.77.09.52-8.13-7.23-.18-.16.05-.23a43.57 43.57 0 001.3-11.57v-.22l.19-.11 9.53-5.25-.15.38c-1.92-6.71-3.56-12.42-5-17.31l.26.17-10.87.6h-.11l-.06-.09a44.63 44.63 0 00-5.22-7.11l-1.48-1.6a5.22 5.22 0 01-.49-.54 5 5 0 01.55.47c.36.33.89.83 1.56 1.54a42.72 42.72 0 015.39 7.06l-.16-.09 10.86-.73h.19l.06.2c1.45 4.88 3.14 10.58 5.12 17.27l.07.25-.23.12-9.5 5.32.19-.33a44.55 44.55 0 01-1.25 11.78l-.13-.4 8.17 7.2.26.22-.17.3-8.63 15.81-.18.32-.35-.1-10.47-3 .48-.13a44.41 44.41 0 01-9.25 7.44l.24-.45q.33 5.33.68 10.86v.41l-.39.11-17.28 5.06-.41.12-.2-.37-5.29-9.52.48.28a44.82 44.82 0 01-11.82-1.28l.54-.17-7.21 8.15-.29.33-.38-.21-15.8-8.66-.39-.21.13-.43 1.49-5.21.75-2.63.38-1.31.19-.66.09-.33.05-.16v-.15c.3 1.11.08.31.15.55a44.69 44.69 0 01-7.43-9.27l.51.27-10.87.66h-.44l-.12-.42-5-17.29-.12-.42.38-.21 9.52-5.27-.27.48a44.53 44.53 0 011.29-11.81l.17.52c-2.83-2.51-5.61-5-8.15-7.22l-.3-.28.19-.36 8.69-15.78.19-.35.38.11 10.45 3-.48.13a45.29 45.29 0 019.27-7.41l-.22.42c-.22-3.79-.44-7.5-.64-10.86v-.35l.34-.1 17.3-5 .3-.09.15.28c1.85 3.34 3.62 6.56 5.26 9.53l-.33-.18a44.21 44.21 0 0111.76 1.32l-.32.1 7.24-8.12.15-.17.2.11 15.74 8.75.13.07v.14c-1 3.35-1.78 5.94-2.32 7.73l-.61 2a4.05 4.05 0 01-.28.69zM432.78 213.5l-15.69-62.4 63.85-1.06-48.16 63.46z" fill="#ebebeb"/><path fill="#ebebeb" d="M439.735 191.044l21.93-28.902 116.883 88.687-21.93 28.902z"/><g><path d="M547 373l8.11 18.39s-16 14.42-14.8 18l36.22-14.45-11.46-29.17z" fill="#5846f9"/><path d="M547 373l8.11 18.39s-16 14.42-14.8 18l36.22-14.45-11.46-29.17z" opacity=".5"/><path d="M576.53 394.93l-1.27-2.93L541 407s-1.33 1.34-.7 2.41z" fill="#263238"/><path d="M610.78 399.07l10.16 17.35s-14.22 16.14-12.66 19.58l34.34-18.48-14.71-27.72z" fill="#5846f9"/><path d="M610.78 399.07l10.16 17.35s-14.22 16.14-12.66 19.58l34.34-18.48-14.71-27.72z" opacity=".5"/><path d="M642.62 417.47l-1.62-2.73-32.3 18.74s-1.17 1.49-.42 2.47z" fill="#263238"/><path d="M566.48 155.77l-22.26 1.74-.74-12.46s-9-.13-10.32-8.9S530.5 107 530.5 107a30.83 30.83 0 0131.22-.45l1.44.82z" fill="#ffbe9d"/><path d="M543.45 144.92a20.65 20.65 0 0011-4.86s-1.94 6.9-10.82 7.34z" fill="#eb996e"/><path d="M563.36 116.61c.14-.09 5.79-2.64 6.44 3.4s-5.54 5.44-5.57 5.27-.87-8.67-.87-8.67z" fill="#ffbe9d"/><path d="M565.83 122.79s.11.06.3.13a1.05 1.05 0 00.78-.07 2.62 2.62 0 001-2.47 3.43 3.43 0 00-.45-1.47 1.23 1.23 0 00-.88-.72.54.54 0 00-.59.36c-.06.17 0 .29 0 .3s-.14-.08-.12-.34a.66.66 0 01.2-.4.75.75 0 01.56-.22 1.5 1.5 0 011.2.82 3.59 3.59 0 01.55 1.64 2.75 2.75 0 01-1.26 2.77 1.11 1.11 0 01-1-.05c-.27-.13-.31-.26-.29-.28z" fill="#eb996e"/><path d="M534.29 120.8a1.27 1.27 0 001.39 1.09 1.2 1.2 0 001.13-1.31 1.26 1.26 0 00-1.38-1.1 1.22 1.22 0 00-1.14 1.32zM533.9 119.12c.18.14 1-.7 2.38-.88s2.44.35 2.56.16-.14-.36-.61-.61a3.53 3.53 0 00-2.08-.33 3.38 3.38 0 00-1.87.9c-.37.38-.46.7-.38.76zM547.42 119.28a1.27 1.27 0 001.39 1.09 1.21 1.21 0 001.13-1.31 1.27 1.27 0 00-1.38-1.1 1.22 1.22 0 00-1.14 1.32zM547.21 117.5c.18.15 1-.69 2.38-.88s2.43.35 2.56.17-.14-.36-.62-.61a3.42 3.42 0 00-2.07-.34 3.35 3.35 0 00-1.87.91c-.37.38-.47.69-.38.75zM543.72 128.2a9.7 9.7 0 00-2.25-.08c-.35 0-.69 0-.78-.24a1.74 1.74 0 01.09-1c.2-.88.42-1.81.65-2.77a45.26 45.26 0 001.32-7.19 45.73 45.73 0 00-1.9 7.06l-.6 2.78a2 2 0 000 1.38.86.86 0 00.64.42 1.93 1.93 0 00.59 0 8.93 8.93 0 002.24-.36zM547.82 128.58c-.22 0 0 1.48-1.13 2.7s-2.69 1.27-2.67 1.48.39.24 1.05.16a3.68 3.68 0 002.24-1.15 3.18 3.18 0 00.85-2.25c-.03-.62-.24-.96-.34-.94zM546.11 112.26c.19.35 1.51 0 3.12 0s3 .22 3.12-.14c.07-.17-.2-.49-.77-.77a5.17 5.17 0 00-2.39-.48 5.31 5.31 0 00-2.36.62c-.54.28-.83.61-.72.77zM533.85 115.14c.28.27 1.17-.17 2.28-.35s2.1-.08 2.27-.43c.07-.17-.12-.46-.57-.69a3.23 3.23 0 00-1.93-.24 3.14 3.14 0 00-1.74.87c-.35.37-.44.7-.31.84z" fill="#263238"/><path d="M525.44 102.05a3.32 3.32 0 01.79-3.07 2.33 2.33 0 013-.19 2.72 2.72 0 011.85-3.58c1.42-.29 2.8.62 4.24.8a6.56 6.56 0 004-1.05c1.23-.7 2.34-1.6 3.59-2.26a11.34 11.34 0 0115.29 4.57 5 5 0 015.57 1.26 8.27 8.27 0 012.07 5.59 18.75 18.75 0 01-.45 4.08c0 .11 0 .22.05.34.59 4.84.84 10.59-1.21 10.91-3.59.56-3.68-6.33-3.68-6.33-4.65-1.08-3.94-7.92-5.18-8.76s-3.88-2.85-12.44 3.16a18.07 18.07 0 01-10.78 2.73h-.38a8.42 8.42 0 01-2.5-.67 4.74 4.74 0 01-2.26-1.9 2.59 2.59 0 01.12-2.82 5.71 5.71 0 01-1.69-2.81z" fill="#263238"/><path fill="#ebebeb" d="M543.45 152.68l.99 34.88 21.7-46.71-.54-4.33-22.15 16.16z"/><path d="M557.84 256.93c-.79.26-46 45.95-45 54.16s33.17 69 33.17 69l23-11.31-21.53-53.28.28-3.31 26.31-21.55-1.41-34.64z" fill="#263238"/><path d="M567.58 265.94c.53.79 8.35 72.57 10.45 76.28s33.52 65 33.52 65l23.33-9.4-28.48-67.35 3.24-63.74-1.75-18-35.23 7.27z" fill="#263238"/><path d="M577.62 341a3.5 3.5 0 01-.15-.72c-.09-.52-.2-1.21-.34-2.07-.28-1.86-.68-4.45-1.16-7.63-.93-6.51-2.21-15.4-3.63-25.22s-2.58-18.74-3.48-25.24c-.41-3.2-.75-5.8-1-7.66l-.24-2.09a3.61 3.61 0 010-.73s.06.25.15.72.2 1.21.34 2.07l1.15 7.64c.94 6.5 2.22 15.39 3.63 25.22s2.59 18.73 3.48 25.24c.42 3.19.76 5.79 1 7.65.1.87.19 1.57.25 2.09a3.65 3.65 0 010 .73zM605.81 328.41a35.3 35.3 0 01-1.36 5.69 34.31 34.31 0 01-1.84 5.55A35 35 0 01604 334a33.19 33.19 0 011.81-5.59zM609.34 344.67a6.56 6.56 0 01-1.28-1.77 17.53 17.53 0 01-2.17-10.2 6.43 6.43 0 01.44-2.13 22.8 22.8 0 003 14.1zM540 307.75a12.26 12.26 0 016.45 5.88c-.12.08-1.24-1.55-3-3.16s-3.56-2.59-3.45-2.72zM543.5 305.63a6.94 6.94 0 012.22 2.52 7 7 0 011.27 3.12 30 30 0 01-1.69-2.86 30 30 0 01-1.8-2.78z" fill="#455a64"/><path d="M546.62 200.91l5.77 28.66 4.7 40s19.38-2.71 27.64-5.32c9.58-3 30.42-5.62 30.42-5.62l-3.52 3.48c7.46-2.09 12.21-9.2 12.21-9.2C611 241 600 216.44 600 216.44l-9.77-48.52s-1.48-6.84-2.38-9.89-15.73-12.86-17.79-14.1l-1.29-.61-.41-3.89-1.53-.92-16.04 14.59a17.35 17.35 0 00-5.59 10.9 125 125 0 00-.7 18.25c.19 5.75 2.12 18.66 2.12 18.66z" fill="#5846f9"/><path d="M557.64 151.28s-8.48 4.55-9.95 8.41 2.9 46.18 2.9 46.18l-30.47.58-.12 18.15s48.39 3.83 50.28 1.21c2.54-3.54 5.5-36.61 5.5-36.61l1.1-23.8s-2.77-18.14-19.24-14.12z" fill="#5846f9"/><path d="M552.39 229.57a29.26 29.26 0 0012.2 1.13c4.29-.39 8.66-2.74 10.28-6.74 1.24-3.05.72-6.5.91-9.79.17-2.87.87-5.67 1.31-8.5s-1-8-2-10.75c0 0-1.08 19.64-4.16 27.89a6.62 6.62 0 01-1.88 3c-1.09.88-2.59 1-4 1.1-3.89.41-13.27-.27-13.27-.27" opacity=".3"/><path d="M576.86 168a2.5 2.5 0 010 .44c0 .3 0 .72-.05 1.26 0 1.14-.13 2.77-.23 4.86s-.25 4.7-.41 7.69-.28 6.42-.65 10.18-.72 7.88-1.19 12.3-1 9.14-1.85 14.07a29.8 29.8 0 01-.84 3.73 7.32 7.32 0 01-2.2 3.3 5.57 5.57 0 01-3.79 1.35h-4c-5.44-.14-11.06-.41-16.82-.73-8.65-.47-17-1-24.77-1.56h-.22v-.22c0-6.45.07-12.52.11-18.13v-.21h.21l29.41-.63 8.22-.14h2.91s-.25 0-.74.05l-2.16.09-8.23.26-29.4.81.21-.21c0 5.6 0 11.67-.06 18.12l-.23-.24c7.79.53 16.13 1.07 24.77 1.54 5.75.31 11.37.6 16.8.74 1.36 0 2.7.05 4 0a5.06 5.06 0 003.5-1.23 6.79 6.79 0 002.05-3.08 30.29 30.29 0 00.83-3.66c.85-4.91 1.39-9.63 1.9-14s.9-8.52 1.25-12.28.52-7.18.72-10.17.36-5.56.49-7.68.25-3.72.33-4.85c0-.54.07-1 .1-1.27a2.14 2.14 0 01.03-.5z" fill="#263238"/><path d="M526 224.33a77.67 77.67 0 01-.21-8.8 77.84 77.84 0 01.3-8.8 77.67 77.67 0 01.21 8.8 77.84 77.84 0 01-.3 8.8zM522.78 209.49c-.06 0 .24-.38.82-.18a.93.93 0 01.62.8 1.07 1.07 0 01-1.84.86 1 1 0 01-.3-.95c.14-.58.54-.7.55-.64s-.19.27-.2.68a.73.73 0 00.25.57.7.7 0 00.71.11.68.68 0 00.37-.6.6.6 0 00-.31-.51c-.35-.21-.64-.08-.67-.14z" fill="#263238"/><path d="M590.38 172.08s15.86 20.73 17.79 26.37.44 13.76-2.79 17.64-5.83 2.3-5.83 2.3z" fill="#5846f9"/><path d="M599 216.73a17.46 17.46 0 01-4 .93 16.56 16.56 0 01-4.06.44 17.28 17.28 0 014-.93 16.56 16.56 0 014.06-.44zM602 232a5.93 5.93 0 01.43 1.09c.24.72.6 1.74 1.07 3a90 90 0 004.26 9.61 102.56 102.56 0 005.32 9.06c.74 1.13 1.35 2 1.78 2.65a5.1 5.1 0 01.62 1 5.24 5.24 0 01-.78-.88c-.47-.59-1.13-1.46-1.91-2.57a78.07 78.07 0 01-5.48-9 70.15 70.15 0 01-4.14-9.72c-.43-1.28-.75-2.33-.93-3.06A4.56 4.56 0 01602 232z" fill="#263238"/><path d="M603.1 234.46c2.52 4.48 5.1 9 8.92 12.47a22.84 22.84 0 013.9 3.77c1 1.49 1.47 3.57.49 5.1a1.58 1.58 0 01-1.58.85 2 2 0 01-1-.84 61.74 61.74 0 01-10.53-20.66M601 218.31c2.17-1.56 2.93-4.52 2.61-7.18s-1.54-5.1-2.63-7.53a123.35 123.35 0 01-7.71-22.6l-1.55-5.75 7.84 41z" opacity=".3"/><path d="M561.77 149.44a32.6 32.6 0 013-2.95 34.47 34.47 0 013-3 12.16 12.16 0 01-2.6 3.31 11.69 11.69 0 01-3.4 2.64zM560.17 153c0 .09-.92.37-2.32 1.06a18.4 18.4 0 00-8.41 8.52c-.68 1.41-1 2.35-1 2.33a2.06 2.06 0 01.11-.69 12.38 12.38 0 01.6-1.79 16.58 16.58 0 018.59-8.69 12.06 12.06 0 011.78-.62 2 2 0 01.65-.12zM602.74 222.44a1.76 1.76 0 01-.25-.4l-.63-1.19c-.57-1.11-1.34-2.62-2.29-4.46-1-4.54-2.39-11.16-3.92-18.53-1.42-6.99-2.65-13.28-3.65-17.86l-1-5.43c-.1-.59-.19-1.08-.26-1.48a1.83 1.83 0 01-.05-.52 2.52 2.52 0 01.15.5c.09.39.21.88.35 1.47.3 1.34.71 3.16 1.2 5.39 1 4.62 2.3 10.9 3.76 17.83 1.53 7.37 2.87 14 3.76 18.57.89 1.87 1.61 3.4 2.14 4.53l.56 1.23a1.89 1.89 0 01.13.35zM550.07 205.86a8 8 0 01-.24-1.5c-.11-1.06-.26-2.45-.44-4.12-.36-3.47-.82-8.28-1.29-13.58s-.87-10.12-1.14-13.61c-.12-1.67-.21-3.06-.29-4.12a8.37 8.37 0 010-1.52 10.19 10.19 0 01.23 1.5c.11 1.06.26 2.45.45 4.12a1323.252 1323.252 0 012.42 27.18c.12 1.67.21 3.06.29 4.13a10.93 10.93 0 01.01 1.52z" fill="#263238"/><path d="M520.51 208.57s-6.58-5-8.18-5.29c-1.23-.23-8.56-.1-11.93 0a2.4 2.4 0 00-2.42 2.34 1 1 0 000 .24 2.17 2.17 0 001.6 1.66 2.55 2.55 0 00-1.77 2.41c0 1.9 2.27 2.3 2.27 2.3l-.33.3a2.27 2.27 0 001.12 3.81l1 .24a2.24 2.24 0 00-1.39 1.89c0 2.5 5.68 3 5.68 3s13.93 2.21 14.23 2.11.12-15.01.12-15.01z" fill="#ffbe9d"/><path d="M501.69 200.28c.06.83.26 2.59 1.66 3.38l7.77-.3s-5.78-2-6.61-3a6.05 6.05 0 00-1.11-1.09 1.1 1.1 0 00-1.71 1.01z" fill="#ffbe9d"/><path d="M507.46 203.28a11 11 0 01-3.54.25 13.73 13.73 0 01-3.54-.25 11.9 11.9 0 013.55-.25 14.67 14.67 0 013.53.25zM505.72 207.62a7.35 7.35 0 01-3.06.31 7.23 7.23 0 01-3-.53 14.14 14.14 0 013.05 0 13.4 13.4 0 013.01.22zM509.67 207.06c.12.08 0 .5-.47.78s-.89.25-.9.11.28-.31.62-.53.63-.42.75-.36zM506.57 212.54a22.39 22.39 0 01-6.67-.22 11.1 11.1 0 013.35-.15 11.27 11.27 0 013.32.37zM511 210.46c.06 0 .18.14.22.44a1.58 1.58 0 01-1.36 1.73c-.3 0-.48 0-.48-.11s.67-.22 1.11-.79.39-1.24.51-1.27zM507.75 217.35a9.31 9.31 0 01-3-.12 9.12 9.12 0 01-3-.62 9.31 9.31 0 013 .12 9.43 9.43 0 013 .62zM512.08 214.9c.06 0 .16.16.15.47a1.89 1.89 0 01-.42 1c-.56.69-1.2.94-1.27.84s.41-.57.88-1.15.58-1.13.66-1.16z" fill="#eb996e"/><path d="M609 262.51a8.85 8.85 0 006.73-4.24c.16-.27.3-.64.09-.87a.8.8 0 00-.59-.18 18.26 18.26 0 00-6.38 1.1.87.87 0 00-.57.43.85.85 0 000 .52c.27 1.05.54 2.1.82 3.16" fill="#5846f9"/><path d="M609 262.51a8.85 8.85 0 006.73-4.24c.16-.27.3-.64.09-.87a.8.8 0 00-.59-.18 18.26 18.26 0 00-6.38 1.1.87.87 0 00-.57.43.85.85 0 000 .52c.27 1.05.54 2.1.82 3.16" opacity=".4"/><path d="M543.45 152.68s-3.2 10.73-2.32 10.12 2.79-2.3 2.79-2.3z" fill="#ebebeb"/><path d="M543.63 157.63l-1.74 4.18a5.15 5.15 0 00-.34 1.35c-.15 1.17-.31 3.31.38 3.46a2.34 2.34 0 001.87-.77z" fill="#263238"/><path d="M597.83 158.29s-17.09-6.67-26.56-.78-11.19 15.29-16.83 15.29c-11 0-10.64-7.76-10.64-7.76l-2.34.71c0 1.59-2.54 13 9 14.39s16.46-14.38 26.88-14.39a34.56 34.56 0 0118.33 5.63l7.49-4.73z" fill="#263238"/><path d="M554 180a16.09 16.09 0 006.59-7.57c2.66-6.13 8.36-13.12 13.12-14.88s15.77-3 23.38 2l4.87 6.58-6.32 4.11a58.77 58.77 0 00-11.15-4.47c-7.86-2.19-12.64.29-17.21 4.61-.28.27-.55.54-.77.8a51.8 51.8 0 01-7.24 6.4C557 179.11 555 180 554 180z" fill="#455a64"/></g><g><path d="M200 86.87c-10.14 1.57-17.57-7-19.94-14.53-2.19-7-3.23-14.29-6.3-21-4.3-9.3-15.68-13.6-25.89-12.74s-20.51 6-29.55 10.81l2.5 56s19.67-21 29.13-21.34c15.78-.63 14.92 25.3 30.24 29.13 0 0 21.48 5.82 36-12.93 9.21-11.91 10-26.37 10-26.37S219.13 83.92 200 86.87z" fill="#5846f9"/><path d="M117.88 40.17c.14 0 2.9 59.48 6.16 132.85s5.8 132.87 5.66 132.88-2.89-59.47-6.16-132.86-5.8-132.86-5.66-132.87z" fill="#263238"/><path d="M172 68.46a68.42 68.42 0 007.46 16.82c2.92 4.57 7.35 8.42 12.66 9.53a12.48 12.48 0 012.84.73 2.74 2.74 0 011.69 2.23c0 1.47-1.47 2.43-2.79 3.08a23.2 23.2 0 01-5.83 2.24c-2 .38-3.66.6-5.07-1a28.52 28.52 0 01-3.66-4.39c-4.63-7.89-6.92-19.17-7.3-28.09" opacity=".2"/><path d="M185.75 104.43s-.16-.07-.45-.26a13.37 13.37 0 01-1.21-.89 20.48 20.48 0 01-3.74-4.06 31 31 0 01-3.75-7.28 80.77 80.77 0 01-2.77-9.63 106.78 106.78 0 01-2.59-18c-.13-2.32-.15-4.2-.15-5.5v-1.5a2.66 2.66 0 010-.52 1.81 1.81 0 01.06.52c0 .4 0 .89.06 1.49.06 1.3.13 3.18.31 5.49a119.92 119.92 0 002.72 17.9 86.15 86.15 0 002.76 9.59 32.32 32.32 0 003.64 7.22 22.13 22.13 0 003.57 4.11c.97.89 1.57 1.29 1.54 1.32z" fill="#263238"/></g><g><path fill="#e0e0e0" d="M56.74 317.72l133.97 21.93v-21.93H56.74zM212.82 367.27L346.8 389.2v-21.93H212.82zM367.83 414.66l133.98 21.93v-21.93H367.83zM522.64 452.38l133.97 21.93v-21.93H522.64z"/><path fill="#5846f9" d="M56.74 301.3h133.97v16.43H56.74z"/><path d="M148.9 301.3h41.81v16.43H148.9z" opacity=".3"/><path fill="#5846f9" d="M212.82 350.84h133.97v16.43H212.82z"/><path d="M304.99 350.84h41.81v16.43h-41.81z" opacity=".3"/><path fill="#5846f9" d="M367.84 398.23h133.97v16.43H367.84z"/><path d="M460 398.23h41.81v16.43H460z" opacity=".3"/><path fill="#5846f9" d="M522.85 435.95h133.97v16.43H522.85z"/><path d="M615.01 435.95h41.81v16.43h-41.81z" opacity=".3"/><path d="M574.26 376.16a3.64 3.64 0 103.64-3.65 3.64 3.64 0 00-3.64 3.65z" fill="#ebebeb"/></g></svg>